<svg version="1.1" xmlns="http://www.w3.org/2000/svg" xmlns:xlink="http://www.w3.org/1999/xlink" width="169.71573" height="126.865" viewBox="0,0,169.71573,126.865"><defs><radialGradient cx="239.44541" cy="188.49171" r="54.24933" gradientUnits="userSpaceOnUse" id="color-1"><stop offset="0" stop-color="#fff900"/><stop offset="1" stop-color="#0015ff"/></radialGradient><linearGradient x1="234.23586" y1="205.73917" x2="246.3073" y2="205.73917" gradientUnits="userSpaceOnUse" id="color-2"><stop offset="0" stop-color="#f2e600"/><stop offset="1" stop-color="#0007ff"/></linearGradient></defs><g transform="translate(-154.30489,-117.55212)"><g data-paper-data="{&quot;isPaintingLayer&quot;:true}" fill-rule="nonzero" stroke-linejoin="miter" stroke-miterlimit="10" stroke-dasharray="" stroke-dashoffset="0" style="mix-blend-mode: normal"><path d="M185.19608,241.74171v-106.5h108.49866v106.5z" fill="#ffffff" stroke="url(#color-1)" stroke-width="3.5" stroke-linecap="butt"/><path d="M226.9017,198.34492c-2.88163,0 -5.21765,-5.40205 -5.21765,-12.06581c0,-6.66376 2.33602,-12.06581 5.21765,-12.06581c2.88163,0 5.21765,5.40205 5.21765,12.06581c0,6.66376 -2.33602,12.06581 -5.21765,12.06581z" fill="#f2e400" stroke="#004cff" stroke-width="3.5" stroke-linecap="butt"/><path d="M249.80824,186.87911c0,-6.66376 2.33602,-12.06581 5.21765,-12.06581c2.88162,0 5.21764,5.40205 5.21764,12.06581c0,6.66376 -2.33602,12.06581 -5.21764,12.06581c-2.88163,0 -5.21765,-5.40205 -5.21765,-12.06581z" fill="#f0ff00" stroke="#0600ff" stroke-width="3.5" stroke-linecap="butt"/><path d="M246.3073,204.19582c0,0 -0.28077,3.05584 -2.81455,3.08089c-2.58775,0.02558 -2.72416,-2.56347 -3.12538,-2.53536c-0.4181,0.0293 -0.9873,2.53547 -2.81153,2.54115c-2.64637,0.00824 -3.31998,-2.88668 -3.31998,-2.88668" fill="none" stroke="url(#color-2)" stroke-width="3.5" stroke-linecap="round"/><path d="M166.88822,241.51498c-5.98309,0 -10.83333,-4.85026 -10.83333,-10.83334c0,-5.98308 4.85025,-10.83333 10.83333,-10.83333c5.98309,0 10.83334,4.85025 10.83334,10.83333c0,5.98309 -4.85025,10.83334 -10.83334,10.83334z" fill="#0059ff" stroke="#dcf200" stroke-width="3.5" stroke-linecap="butt"/><path d="M311.43728,242.66712c-5.98309,0 -10.83333,-4.85026 -10.83333,-10.83334c0,-5.98308 4.85025,-10.83333 10.83333,-10.83333c5.98309,0 10.83334,4.85025 10.83334,10.83333c0,5.98309 -4.85025,10.83334 -10.83334,10.83334z" fill="#fffc00" stroke="#000ff5" stroke-width="3.5" stroke-linecap="butt"/><path d="M288.75255,149.95219c-8.07083,-1.72144 -13.16537,-9.90656 -11.37896,-18.28196c1.78641,-8.37539 9.77729,-13.76947 17.84812,-12.04803c8.07083,1.72144 13.16537,9.90656 11.37896,18.28196c-1.78641,8.37539 -9.77729,13.76948 -17.84812,12.04803z" fill="#ffffff" stroke="#9aeaf5" stroke-width="3.5" stroke-linecap="butt"/><path d="M295.93953,132.13172c-0.04855,0.0571 -0.075,0.11374 -0.08155,0.19796c0.03764,0.08327 0.1238,0.10945 0.18355,0.19224c0.06189,0.05473 0.12381,0.10945 0.18353,0.19223c0.20753,-0.11659 0.40852,-0.14892 0.60077,-0.069c0.07283,-0.08563 0.10364,-0.19844 0.11237,-0.31073c-0.084,-0.05424 -0.16799,-0.10848 -0.25199,-0.16273c-0.16584,-0.13657 -0.18355,-0.19224 -0.11755,-0.47394c0.22281,-0.31311 0.46799,-0.34644 0.75079,-0.29647c0.19662,0.02378 0.36245,0.16035 0.42897,0.43919c0.01119,0.13989 -0.02182,0.28074 -0.14101,0.39543c-0.07279,0.08565 -0.13907,0.08709 -0.22962,0.11704c-0.06845,0.02951 -0.13036,-0.02518 -0.22525,0.06094c-0.02865,0.08468 -0.08155,0.19795 -0.04609,0.30928c0.0818,0.08233 0.14371,0.13706 0.22552,0.21938c0.16363,0.16464 0.2809,0.35828 0.16854,0.66904c-0.00218,0.02806 0.01773,0.05566 0.01337,0.1118c0.19008,0.10801 0.40443,0.18747 0.6166,0.29503c0.32043,0.13323 0.61442,0.32309 0.90404,0.56909c0.18571,0.16419 0.34715,0.35687 0.5285,0.57718c0.24109,0.3031 0.41153,0.66381 0.48707,1.11062c0.01554,0.08375 0.03325,0.13943 0.0488,0.22319c0.01992,0.0276 0.03983,0.05521 0.06192,0.05472c0.49716,0.12939 0.97222,0.25933 1.46937,0.38873c0.10826,0.0257 0.19447,0.05186 0.31144,-0.03474c0.1391,-0.08708 0.24518,-0.0333 0.34691,0.07661c0.042,0.02712 0.06189,0.05472 0.10171,0.10993c0.1811,-0.05996 0.36217,-0.11993 0.53889,-0.12373c0.26508,-0.00572 0.34472,0.10467 0.34282,0.41302c0.01362,0.39209 -0.10528,0.78704 -0.24628,1.18248c-0.05945,0.19748 -0.18518,0.3964 -0.36843,0.48443c-0.28063,-0.07803 -0.46197,-0.29834 -0.66978,-0.46204c-0.32454,0.2032 -0.40852,0.14896 -0.55907,-0.18414c-0.47725,-0.10183 -0.92587,-0.28835 -1.40312,-0.39019c-0.16664,1.29287 -0.82417,2.09184 -1.72712,2.64384c-0.141,0.39543 -0.37717,0.59674 -0.67744,0.77138c-0.2539,0.14561 -0.51897,0.15134 -0.78186,0.12898c-0.41753,-0.01905 -0.83068,-0.09421 -1.26595,-0.16891c-0.05946,0.19748 -0.13881,0.36736 -0.10774,0.53486c-0.09708,0.11418 -0.20972,0.14465 -0.32018,0.14702c-0.24299,0.00525 -0.46389,0.01001 -0.67388,-0.12561c-0.20999,-0.1356 -0.41998,-0.27122 -0.67169,-0.15369c-0.32918,-0.02092 -0.65396,-0.09801 -0.91933,-0.37257c-0.03982,-0.05518 -0.10172,-0.1099 -0.17016,-0.08041c-0.13472,0.03092 -0.24298,0.00524 -0.37336,-0.01999c-0.30707,-0.0214 -0.58332,-0.15559 -0.80668,-0.40303c-0.02209,0.00048 -0.0199,-0.02758 -0.03981,-0.05517c-0.01556,-0.08375 0.03517,-0.16894 -0.02455,-0.25172c-0.0818,-0.08233 -0.21872,-0.02332 -0.32699,-0.049c-0.47507,-0.12991 -0.97441,-0.23127 -1.47157,-0.36068c-0.19444,-0.05187 -0.38452,-0.15986 -0.57461,-0.2679c-0.27408,-0.16225 -0.5018,-0.35353 -0.58387,-0.71612c-0.08398,-0.05426 -0.14808,-0.08092 -0.23426,-0.10707c-0.42872,-0.15894 -0.8266,-0.43065 -1.17377,-0.78752c-0.12164,-0.13751 -0.24327,-0.27506 -0.31635,-0.46967c-0.27461,-0.72281 -0.30625,-1.45085 0.12819,-2.21697c0.07718,-0.1418 0.17426,-0.256 0.25144,-0.39782c0.04855,-0.05707 0.09491,-0.08612 0.05726,-0.1694c-0.13034,-0.02522 -0.26943,0.06187 -0.42188,0.03713c-0.17453,-0.02426 -0.35344,0.00762 -0.53234,0.0395c-0.57871,0.06852 -1.14186,0.22083 -1.7072,0.40118c-1.01369,0.27411 -1.97636,0.74331 -2.9036,1.32387c-0.16335,0.11563 -0.30681,0.25887 -0.5078,0.29122c-0.20099,0.03237 -0.28717,0.00617 -0.35806,-0.2165c-0.05536,-0.13895 -0.06655,-0.27884 -0.07554,-0.44682c-0.01583,-0.36404 -0.00735,-0.75662 0.021,-1.12158c0.06111,-0.78611 0.18412,-1.51747 0.3093,-2.27695c0.07691,-0.42208 0.15599,-0.87222 0.27927,-1.32333c0.231,-0.98595 0.54816,-1.94576 0.88525,-2.87794c0.14318,-0.4235 0.30846,-0.8475 0.53781,-1.24483c0.075,-0.11373 0.15217,-0.25553 0.24709,-0.34164c0.14343,-0.14324 0.27598,-0.1461 0.3976,-0.00859c0.042,0.02712 0.05971,0.0828 0.12599,0.08136c0.32533,0.63764 0.7235,1.18961 1.19448,1.65593c0.47098,0.46633 1.01042,0.90315 1.55419,1.28382c0.52387,0.35307 1.10068,0.59289 1.68183,0.77655c0.43089,0.13086 0.88605,0.23316 1.31694,0.36402c0.15028,0.0528 0.28062,0.07801 0.43088,0.13084c0.411,0.10325 0.84625,0.17796 1.27931,0.28073c0.43307,0.10277 0.86834,0.17747 1.29923,0.30833c0.3668,0.10421 0.76005,0.15176 1.14676,0.28359c0,0 0.02428,-0.02856 0.06846,-0.02951c0.02864,-0.08471 0.05726,-0.16942 0.08809,-0.28218c0.03299,-0.14085 0.12571,-0.19889 0.24054,-0.25744c0.13907,-0.08706 0.28935,-0.03427 0.42406,-0.06518c0.07281,-0.08568 0.07718,-0.14183 0.06164,-0.22556c-0.06192,-0.05473 -0.1481,-0.08089 -0.23208,-0.13513c-0.2299,-0.16321 -0.19936,-0.55626 0.03464,-0.7295c0.30245,-0.20271 0.8217,-0.07377 0.99214,0.28693c0.09519,0.19413 0.03572,0.39162 -0.12982,0.53533c-0.09491,0.08612 -0.20974,0.14468 -0.32018,0.14705c-0.04417,0.00093 -0.10826,-0.0257 -0.159,0.05949c-0.02864,0.08468 -0.01309,0.16842 0.05101,0.1951c0.15028,0.0528 0.27626,0.13416 0.40006,0.24362c0.22744,-0.08899 0.44617,-0.06569 0.66706,-0.07045c0.02864,-0.08468 0.07501,-0.11373 0.03737,-0.197c-0.042,-0.02712 -0.084,-0.05424 -0.12599,-0.08136c-0.03982,-0.05522 -0.10392,-0.08185 -0.14371,-0.13703c-0.10391,-0.08184 -0.135,-0.24935 -0.07992,-0.39069c0.05291,-0.11325 0.12354,-0.17084 0.21626,-0.22887c0.20756,-0.11659 0.42845,-0.12135 0.64061,-0.01382c0.19008,0.10801 0.26537,0.27456 0.312,0.52581c-0.13445,0.31121 -0.13445,0.31121 -0.52525,0.51582zM294.44088,140.34823c-0.09245,0.33833 -0.16062,0.64809 -0.25307,0.98642c0.24541,0.24696 0.55033,0.29644 0.86395,0.23364c0.04636,-0.02905 0.09272,-0.05807 0.12136,-0.14278c0.03082,-0.11276 0.06382,-0.25362 0.09683,-0.39447c0.03082,-0.11277 0.0859,-0.25411 0.1189,-0.39496c0.00218,-0.02806 0.00654,-0.08423 -0.03546,-0.11135c-0.03544,-0.11135 -0.12816,-0.05328 -0.21653,-0.05138c-0.24298,0.00525 -0.45515,-0.10228 -0.69597,-0.12512zM291.61775,138.08278c-0.042,-0.02712 -0.06192,-0.05473 -0.05755,-0.11087c0.00654,-0.08424 0.05291,-0.11325 0.09708,-0.11422c0.13255,-0.00286 0.24082,0.02285 0.37116,0.04807c0.02209,-0.00048 0.02209,-0.00048 0.07718,-0.14182c-0.19444,-0.05187 -0.38888,-0.10372 -0.60541,-0.1551c-0.36897,-0.07613 -0.71589,-0.15274 -1.08704,-0.2008c-0.30488,-0.04948 -0.63623,-0.04235 -0.95643,0.1047c-0.18107,0.05998 -0.22743,0.089 -0.37307,0.26032c0.43306,0.10277 0.86613,0.20553 1.2992,0.30832c0.24082,0.02282 0.47725,0.1018 0.71369,0.18079c0.19447,0.05187 0.36679,0.10421 0.56126,0.15608c0.02209,-0.00048 0.06845,-0.02951 0.11263,-0.03047c-0.03764,-0.08327 -0.05536,-0.13893 0.03737,-0.19699c0.06407,0.02663 0.13034,0.02522 0.19444,0.05187c0.05073,-0.08516 0.03081,-0.11277 -0.01119,-0.13989c-0.0818,-0.08233 -0.17017,-0.08043 -0.28278,-0.04997c-0.042,-0.02712 -0.0641,-0.02665 -0.09055,0.02998zM295.11177,137.39085c-0.12328,0.4511 -0.24652,0.90221 -0.34988,1.3809c-0.00439,0.05617 -0.03084,0.11278 0.0068,0.19606c0.3027,0.07757 0.62968,0.12657 0.97877,0.17509c0.12083,-0.70331 0.26373,-1.40708 0.47073,-2.08423c-0.01554,-0.08375 -0.05755,-0.11087 -0.12165,-0.13751c-0.28063,-0.07803 -0.5634,-0.12799 -0.86613,-0.20556c-0.03954,0.22509 -0.12109,0.42304 -0.11428,0.6191c-0.00218,0.02806 -0.02425,0.02854 -0.00436,0.05614zM282.75678,128.37992c0.13227,-0.28313 0.26236,-0.53818 0.41235,-0.76565c0.04637,-0.02902 0.05072,-0.08516 0.0109,-0.14038c-0.04418,0.00096 -0.09272,0.05807 -0.11918,0.11469c-0.20072,0.31262 -0.38154,0.65285 -0.49827,1.01975c-0.21162,0.453 -0.33489,0.90411 -0.48025,1.35571c-0.15191,0.53578 -0.30164,1.04352 -0.45355,1.57933c-0.12545,0.47919 -0.22879,0.95789 -0.33218,1.4366c-0.11863,0.67522 -0.19308,1.34949 -0.26753,2.02378c-0.04609,0.3093 -0.11428,0.61907 -0.11618,0.92742c-0.01309,0.16846 -0.00629,0.36452 0.00052,0.56056c-0.00654,0.08424 0.009,0.16798 0.04665,0.25128c0.03763,0.08327 0.1039,0.08182 0.17453,0.02426c0.03301,-0.14085 -0.0488,-0.22318 -0.05999,-0.36308c0.00873,-0.11231 -0.00246,-0.25221 -0.01361,-0.39209c0.00873,-0.11231 0.01745,-0.22459 0.02835,-0.365c0.00873,-0.11229 0.01964,-0.25265 0.11455,-0.33879c0.06845,-0.02951 0.10827,0.02568 0.10172,0.10989c0.00901,0.16798 -0.0019,0.30835 -0.01499,0.47681c-0.01528,0.19651 -0.03273,0.42112 0.01389,0.67238c0.09273,-0.05807 0.12137,-0.14278 0.108,-0.25458c-0.04663,-0.25124 -0.0248,-0.532 0.01692,-0.78516c0.02866,-0.08471 0.03736,-0.19698 0.06601,-0.28169c0.00218,-0.0281 0.02646,-0.05663 0.09492,-0.08613c0.13498,0.24934 -0.04364,0.56149 0.02508,0.81228c0.09491,-0.08612 0.12572,-0.19893 0.11453,-0.33882c-0.01117,-0.13989 0.00192,-0.30835 0.01284,-0.44871c0.02645,-0.05663 0.03299,-0.14085 0.07936,-0.16987c0.02209,-0.00048 0.04636,-0.02905 0.0221,-0.00048c-0.00437,0.05614 0.01117,0.13989 0.00464,0.22411c0.11044,-0.00239 0.13907,-0.0871 0.12354,-0.17085c0.11016,-0.28265 0.20045,-0.59292 0.29071,-0.90315c0.1189,-0.39496 0.23783,-0.7899 0.33682,-1.21247c0.26182,-1.09874 0.47946,-2.19652 0.63082,-3.29288c0.00873,-0.11231 0.01745,-0.2246 0.0262,-0.33692c-0.13038,-0.02519 -0.1481,-0.08089 -0.11728,-0.19366c0.03301,-0.14085 0.08591,-0.25409 0.13882,-0.36735c0.02864,-0.08471 0.05509,-0.14133 -0.00464,-0.22411c-0.14781,0.19938 -0.2138,0.48108 -0.35944,0.65237c-0.08619,-0.02616 -0.07964,-0.11039 -0.051,-0.19511c0.08371,-0.22601 0.16528,-0.42398 0.26891,-0.62241c0.02864,-0.08468 0.08153,-0.19794 0.13227,-0.28313c0.02864,-0.08471 0.03516,-0.16891 -0.00027,-0.28026c-0.09928,0.14227 -0.15219,0.25552 -0.20728,0.39685c-0.07718,0.1418 -0.13227,0.28313 -0.20946,0.42494c-0.05509,0.14133 -0.066,0.28171 -0.183,0.36831c-0.13034,-0.02522 -0.05316,-0.16705 -0.0687,-0.25078c0.09708,-0.11422 0.13227,-0.28312 0.16091,-0.36783zM283.54982,128.39085c0.00519,0.78467 -0.078,1.57124 -0.22746,2.35925c-0.123,0.73138 -0.288,1.43563 -0.45301,2.13989c-0.27054,1.21105 -0.66927,2.3688 -1.21824,3.47371c-0.00218,0.0281 -0.00437,0.05615 -0.02864,0.08471c0.03982,0.05518 0.08835,-0.0019 0.13473,-0.03096c0.55198,-0.29217 1.08186,-0.58387 1.60957,-0.84752c0.52335,-0.20747 1.04449,-0.38689 1.58555,-0.53867c0.3379,-0.09137 0.64934,-0.12611 0.98723,-0.21748c0.47261,-0.12232 0.95861,-0.1328 1.42032,-0.11471c0.11044,-0.00239 0.1988,-0.00428 0.29371,-0.0904c0.32889,-0.25934 0.68889,-0.35119 1.06878,-0.41544c0.38208,-0.09232 0.78188,-0.12896 1.15305,-0.08093c0.41533,0.04711 0.82849,0.12229 1.26376,0.19698c0.62969,0.12657 1.23732,0.25364 1.86482,0.40825c0.56342,0.12798 1.12466,0.28406 1.68808,0.41206c0.80206,0.1789 1.57984,0.38636 2.38189,0.56528c0.47507,0.12989 0.9545,0.20363 1.45166,0.33307c0.30271,0.07754 0.60542,0.1551 0.90813,0.23265c0.08619,0.02619 0.17453,0.02427 0.3049,0.0495c0.01526,-0.19653 -0.018,-0.33596 -0.09545,-0.47443c-0.19034,-0.38826 -0.42705,-0.74754 -0.73659,-1.02115c-0.30951,-0.2736 -0.62779,-0.43492 -0.96813,-0.59573c-0.78461,-0.40352 -1.60656,-0.61002 -2.3999,-0.90123c-0.58116,-0.18368 -1.16667,-0.3112 -1.75002,-0.46679c-0.93241,-0.20411 -1.8648,-0.40822 -2.79504,-0.64043c-0.58551,-0.12754 -1.16884,-0.2831 -1.75218,-0.43869c-0.7137,-0.18082 -1.44949,-0.36117 -2.15661,-0.62621c-0.30054,-0.10562 -0.57461,-0.26788 -0.8487,-0.43013c-0.44426,-0.24268 -0.83342,-0.62668 -1.24903,-0.95407c-0.24984,-0.19079 -0.47535,-0.41016 -0.69651,-0.68568c-0.20126,-0.24789 -0.37826,-0.52436 -0.57736,-0.80035c-0.03979,-0.0552 -0.07961,-0.11041 -0.13935,-0.19321c-0.05291,0.11325 -0.03737,0.19699 -0.024,0.30884zM301.73876,137.24794c-0.19226,-0.07992 -0.40879,-0.13132 -0.62533,-0.1827c-0.41098,-0.10325 -0.84407,-0.20602 -1.25504,-0.30927c-0.80205,-0.17892 -1.62618,-0.35733 -2.42823,-0.53625c-0.62751,-0.15464 -1.25502,-0.30929 -1.88255,-0.46393c-0.36897,-0.07613 -0.73579,-0.18034 -1.10476,-0.25647c-0.24081,-0.02284 -0.47508,-0.12988 -0.71371,-0.18082c-0.76004,-0.15176 -1.51793,-0.33163 -2.29788,-0.51099c-0.32699,-0.049 -0.65178,-0.1261 -0.97877,-0.17509c-0.67824,-0.06947 -1.35865,-0.11086 -2.05873,0.10042c-0.47479,0.15037 -0.85442,0.4949 -1.15877,1.00598c-0.52717,0.82417 -0.27193,2.07993 0.2056,2.46202c0.33161,0.27315 0.70961,0.51725 1.1184,0.64858c0.53915,0.15652 1.10042,0.3126 1.66601,0.41251c0.5457,0.07233 1.08922,0.17272 1.65484,0.27266c0.41316,0.07516 0.84841,0.14987 1.25939,0.25312c0.41316,0.07519 0.84623,0.17795 1.25721,0.2812c0.6916,0.1813 1.41185,0.27787 2.13209,0.37446c0.15244,0.02474 0.32915,0.02095 0.4838,0.01761c0.04418,-0.00096 0.06624,-0.00141 0.11263,-0.03046c0.07062,-0.05756 0.12137,-0.14275 0.15217,-0.25553c0.00655,-0.08422 -0.03325,-0.13943 -0.09516,-0.19416c-0.10391,-0.08182 -0.22989,-0.16318 -0.36027,-0.18841c-0.47943,-0.07375 -0.95233,-0.23172 -1.45384,-0.30498c-0.50153,-0.0733 -0.97877,-0.17509 -1.47812,-0.27645c-0.26072,-0.05045 -0.54352,-0.10042 -0.80424,-0.15083c-0.23863,-0.05094 -0.47725,-0.10184 -0.71588,-0.15274c-0.49714,-0.12942 -1.01857,-0.2303 -1.51137,-0.41587c-0.36464,-0.13227 -0.73798,-0.15225 -1.10478,-0.25646c-0.3248,-0.07706 -0.67169,-0.15367 -0.99429,-0.25885c-0.23863,-0.05091 -0.42655,-0.18699 -0.61226,-0.35115c-0.37581,-0.2722 -0.46033,-0.88697 -0.22444,-1.36854c0.10582,-0.2265 0.24926,-0.36973 0.41263,-0.48536c0.2539,-0.14561 0.5277,-0.26365 0.81487,-0.26983c0.53234,-0.0395 1.05814,0.00523 1.58175,0.07801c0.23863,0.05091 0.5037,0.04521 0.74233,0.09611c0.34688,0.0766 0.69597,0.12512 1.04505,0.17368c0.41316,0.07516 0.80642,0.12275 1.21957,0.19791c0.52145,0.10088 1.06278,0.22934 1.57984,0.38637c0.47507,0.12989 0.97441,0.23124 1.47157,0.36065c0.23863,0.05094 0.47941,0.07377 0.71588,0.15273c0.28281,0.04997 0.5656,0.09993 0.84623,0.17795c0.65179,0.1261 1.29919,0.30832 1.94664,0.49057c0.38888,0.10372 0.77779,0.20746 1.18659,0.33879c0.13009,-0.25507 0.2138,-0.48108 0.25334,-0.70617zM289.8893,137.05498c0.26724,-0.03378 0.51024,-0.03904 0.74669,0.03995c0,0 0.02428,-0.02853 0.04635,-0.02902c-0.13963,-0.47346 -0.10444,-0.64241 0.2419,-1.12635c-0.03764,-0.08327 -0.1061,-0.05377 -0.17016,-0.0804c-0.5258,-0.04472 -1.04939,-0.11753 -1.60166,-0.10561c-0.13254,0.00284 -0.29154,0.06232 -0.42627,0.09327c-0.18107,0.05998 -0.34443,0.17561 -0.48788,0.31883c-0.09708,0.11418 -0.17426,0.25599 -0.18735,0.42446c-0.024,0.30883 0.04474,0.55958 0.23043,0.72376c0.14371,0.13703 0.336,0.21698 0.52607,0.32499c0.30217,-0.48298 0.70416,-0.5477 1.08188,-0.58389zM296.12218,138.29394c0.08402,0.05426 0.17019,0.0804 0.25635,0.10659c0.48163,0.04567 0.93241,0.20411 1.35456,0.44725c0.49226,-0.37497 0.63544,-0.79847 0.44045,-1.41089c-0.25853,-0.07851 -1.49364,-0.36019 -1.75656,-0.38255c-0.09899,0.42256 -0.19581,0.81704 -0.29482,1.23959zM295.54591,140.88493c0.14591,0.10897 0.30052,0.10565 0.45297,0.13037c0.39107,0.07567 0.76225,0.12372 1.16205,0.08707c0.26727,-0.03378 0.47479,-0.15037 0.69322,-0.40734c0.22063,-0.28501 0.28173,-1.07113 -0.0079,-1.31714c-0.084,-0.05424 -0.14588,-0.10896 -0.2078,-0.16369c-0.37799,-0.2441 -0.7647,-0.37592 -1.19995,-0.4506c-0.10826,-0.0257 -0.23426,-0.10707 -0.39325,-0.0476c-0.03299,0.14085 -0.06817,0.30976 -0.10336,0.47871c0.12599,0.08136 0.28063,0.07803 0.43089,0.13085c0.19662,0.02378 0.36897,0.07613 0.56341,0.12798c0.15244,0.02474 0.29836,0.13372 0.42216,0.24318c0.26753,0.24648 0.11126,0.83843 -0.16472,0.98452c-0.04637,0.02902 -0.11482,0.05851 -0.18108,0.05993c-0.13252,0.00286 -0.26507,0.00573 -0.39543,-0.0195c-0.30488,-0.04948 -0.61198,-0.07088 -0.91686,-0.12036c-0.01992,-0.0276 -0.04417,0.00096 -0.08837,0.0019c-0.00654,0.08424 -0.03518,0.16894 -0.066,0.2817zM299.66721,137.7971c-0.12599,-0.08136 -0.94796,-0.28787 -1.21085,-0.31023c0.06874,0.25076 0.09108,0.53056 -0.01908,0.81321c-0.08591,0.2541 -0.19391,0.50868 -0.40581,0.68141c0.07309,0.19462 0.15054,0.3331 0.20154,0.52819c0.05316,0.16704 0.05999,0.36308 0.04253,0.58767c0.75732,-0.3807 1.41676,-1.48799 1.39168,-2.30026zM294.51671,138.80507c0.12081,-0.70331 0.37198,-1.38138 0.51273,-2.05711c-0.01554,-0.08375 -0.05974,-0.08279 -0.10174,-0.10991c-0.28281,-0.04997 -0.58553,-0.12752 -0.88823,-0.20509c0,0 -0.02209,0.00049 -0.06845,0.02951c-0.14511,0.73188 -0.37853,1.46562 -0.52582,2.22557c0.19226,0.07992 0.84407,0.20601 1.02078,0.20218c0.00218,-0.02806 0.02645,-0.05663 0.05072,-0.08516zM293.20223,138.69323c0.07691,-0.42208 0.14946,-0.78799 0.26837,-1.18294c0.09463,-0.36642 0.21136,-0.73329 0.264,-1.12683c-0.19226,-0.07995 -0.77778,-0.20746 -1.04505,-0.17368c-0.07254,0.36594 -0.16719,0.73236 -0.24192,1.12635c-0.07254,0.36594 -0.21137,0.73328 -0.24408,1.15444c0.34688,0.0766 0.65177,0.12605 0.99867,0.20267zM294.22216,140.32491c-0.38888,-0.10372 -0.73796,-0.15224 -1.12905,-0.2279c-0.066,0.2817 -0.1099,0.56293 -0.21791,0.81751c0.27654,0.41446 0.64988,0.43445 1.07396,0.36923c0.09245,-0.33833 0.18272,-0.64859 0.273,-0.95885zM291.63709,139.82008c-0.45297,-0.13037 -0.93241,-0.20411 -1.41183,-0.27786c-0.47943,-0.07375 -0.90814,-0.23269 -1.42957,-0.33355c0.13935,0.19321 0.26533,0.27457 0.39133,0.35593c0.21,0.13562 0.46854,0.21412 0.72707,0.29262c0.47505,0.12991 0.95231,0.23173 1.45166,0.33307c0.042,0.02712 0.11043,-0.00239 0.17671,-0.0038c0.05291,-0.11325 0.08374,-0.22604 0.09464,-0.36642zM292.89651,140.07322c-0.27844,-0.10611 -0.75569,-0.20792 -1.02078,-0.20221c-0.06381,0.25365 -0.10336,0.47873 -0.16936,0.7604c0.24106,0.30313 0.57677,0.23983 0.92586,0.28838c0.11018,-0.28268 0.17618,-0.56437 0.26427,-0.84656zM302.31527,137.20747c-0.04609,0.3093 -0.09438,0.6467 -0.24875,0.93031c0.14156,0.16511 0.30737,0.30167 0.49962,0.38163c0.2978,-0.42684 0.40334,-0.93363 0.30572,-1.37997c-0.21871,-0.02333 -0.21872,-0.02333 -0.55662,0.06804zM291.54821,136.99119c0.18327,-0.08802 0.25826,-0.20175 0.23372,-0.45347c-0.02456,-0.25172 -0.22801,-0.47155 -0.49524,-0.43777c-0.24516,0.03332 -0.43936,0.26173 -0.46118,0.54247c-0.00873,0.11231 0.02891,0.19557 0.08862,0.27838c0.10174,0.10991 0.24984,0.1908 0.42873,0.15891c0.04417,-0.00093 0.13471,-0.03093 0.20534,-0.08851zM297.21501,133.02917c-0.22555,-0.21939 -0.4819,-0.32595 -0.77125,-0.29169c-0.15462,0.00332 -0.1789,0.03188 -0.21626,0.22887c-0.02645,0.05663 -0.02863,0.0847 -0.03518,0.16894c0.34253,0.13274 0.66297,0.26599 1.02978,0.3702c0.108,-0.25458 0.09028,-0.31028 -0.00709,-0.47632zM291.78711,137.32235c0.13038,0.02522 0.23863,0.05091 0.38891,0.10374c0.09899,-0.42256 0.19581,-0.81704 0.27272,-1.23911c-0.16798,-0.10849 -0.34688,-0.0766 -0.51925,-0.12896c-0.05291,0.11325 0.01118,0.13989 0.02891,0.19558c0.14617,0.38923 0.10226,0.67046 -0.23318,1.01404c0.042,0.02712 0.03982,0.05521 0.06189,0.05472zM293.70872,132.46006c0.3447,0.10469 0.71368,0.18082 1.0584,0.28552c0.09708,-0.11422 0.08154,-0.19797 0.09027,-0.31028c-0.03764,-0.08327 -0.12381,-0.10942 -0.20783,-0.16366c-0.24763,-0.21891 -0.55906,-0.18416 -0.85059,-0.12181c-0.09708,0.11422 -0.08154,0.19797 -0.09027,0.31026zM295.00792,132.76843c0.14372,0.13706 0.29835,0.13371 0.44861,0.18654c0.12819,0.05328 0.27626,0.13416 0.45298,0.13037c0.0971,-0.11422 0.12573,-0.19892 0.04609,-0.3093c-0.21681,-0.33165 -0.49307,-0.46584 -0.85523,-0.34593c0,0 0,0 -0.02427,0.02856c-0.00655,0.08422 -0.01527,0.19651 -0.06818,0.30977zM294.88494,131.22957c0.00873,-0.11231 -0.051,-0.1951 -0.11289,-0.24981c-0.14372,-0.13706 -0.34033,-0.16084 -0.54352,-0.10039c-0.06845,0.02951 -0.11701,0.08661 -0.14563,0.17129c-0.00655,0.08422 0.03326,0.13943 0.07526,0.16655c0.042,0.02712 0.08401,0.05426 0.12601,0.08138c0.06626,-0.00144 0.0927,-0.05807 0.11916,-0.1147c0.02646,-0.05661 0.05293,-0.11325 0.11701,-0.08661c0.06628,-0.00142 0.084,0.05424 0.09953,0.13799c-0.00436,0.05617 -0.02864,0.0847 0.01119,0.13992c0.15462,-0.00334 0.15461,-0.00334 0.2539,-0.14561zM296.90247,131.94283c0.06845,-0.02951 0.08154,-0.19796 0.21188,-0.17274c0.0641,0.02665 0.03111,0.1675 0.11293,0.24981c0.08616,0.02619 0.17671,-0.0038 0.25171,-0.11754c-0.009,-0.16798 -0.09297,-0.22221 -0.19907,-0.27598c-0.1481,-0.08089 -0.30491,-0.0495 -0.46825,0.06614c-0.00871,0.11231 -0.01745,0.2246 0.09082,0.2503zM295.98071,131.31805c-0.17235,-0.05236 -0.327,-0.049 -0.47482,0.15037c0.03546,0.11136 0.12163,0.13751 0.20781,0.1637c0.06845,-0.02951 0.05945,-0.19749 0.16771,-0.17181c0.11044,-0.00239 0.09953,0.13799 0.11508,0.22174c0.06192,0.05473 0.13037,0.02522 0.22308,-0.03281c-0.00462,-0.22414 -0.10855,-0.30598 -0.2389,-0.3312zM302.05921,137.38118c0.03082,-0.11277 0.06599,-0.28169 -0.0821,-0.36258c-0.05946,0.19748 -0.05263,0.39354 -0.11209,0.59102c-0.05726,0.1694 -0.13882,0.36735 -0.22471,0.62145c0.30462,-0.23081 0.35071,-0.54009 0.4189,-0.84987z" fill="#c59b31" stroke="none" stroke-width="1" stroke-linecap="butt"/><path d="M283.71317,128.27522c0.17701,0.27644 0.3761,0.55245 0.57735,0.80035c0.19907,0.27598 0.44668,0.49489 0.69652,0.68568c0.41561,0.32739 0.80694,0.68332 1.24903,0.95407c0.27408,0.16225 0.54816,0.32451 0.84869,0.43013c0.70934,0.23696 1.42302,0.41778 2.15662,0.62621c0.58335,0.15559 1.16885,0.2831 1.75217,0.43869c0.93241,0.20411 1.86482,0.40822 2.79505,0.64043c0.58553,0.12751 1.17103,0.25505 1.75002,0.46679c0.81543,0.29073 1.63738,0.49723 2.3999,0.90123c0.34033,0.16081 0.68068,0.32165 0.96813,0.59573c0.30954,0.27361 0.52415,0.63337 0.73659,1.02115c0.05753,0.11089 0.08864,0.2784 0.09545,0.47443c-0.11044,0.00239 -0.21872,-0.0233 -0.30491,-0.0495c-0.30271,-0.07754 -0.60541,-0.1551 -0.90812,-0.23265c-0.47507,-0.12991 -0.9545,-0.20365 -1.45166,-0.33307c-0.80205,-0.17892 -1.58202,-0.35829 -2.3819,-0.56528c-0.56342,-0.12798 -1.12466,-0.28406 -1.68808,-0.41206c-0.60761,-0.12706 -1.23513,-0.28169 -1.86482,-0.40825c-0.41318,-0.07517 -0.82633,-0.15036 -1.26376,-0.19698c-0.37336,-0.01996 -0.77315,0.01668 -1.15305,0.08093c-0.3799,0.06425 -0.73989,0.15609 -1.06878,0.41544c-0.09273,0.05804 -0.18326,0.08802 -0.29372,0.0904c-0.4838,-0.0176 -0.94769,-0.00761 -1.42031,0.11471c-0.33569,0.06329 -0.64934,0.12611 -0.98723,0.21748c-0.54107,0.15178 -1.06004,0.30313 -1.58555,0.53867c-0.54543,0.20796 -1.0775,0.52776 -1.62948,0.81991c-0.04854,0.05712 -0.09491,0.08616 -0.13473,0.03096c0.00218,-0.0281 0.00437,-0.05615 0.02863,-0.08471c0.54899,-1.10492 0.94772,-2.26265 1.21826,-3.47372c0.165,-0.70424 0.32999,-1.4085 0.45299,-2.13989c0.14944,-0.78802 0.25472,-1.57506 0.22746,-2.35925c0.00654,-0.08424 -0.00901,-0.16798 0.0439,-0.28123c0.06192,0.05473 0.09956,0.13799 0.13935,0.1932zM297.19426,134.43104c0.29834,0.13369 0.59886,0.23934 0.89286,0.4292c0.25198,0.16273 0.4797,0.35402 0.70523,0.57336c0.10391,0.08184 0.18573,0.16419 0.2918,0.21794c0.042,0.02712 0.09055,-0.02998 0.11701,-0.08661c-0.11289,-0.24982 -0.31853,-0.44158 -0.50423,-0.60573c-0.32943,-0.3012 -0.70961,-0.51725 -1.11622,-0.67665c-0.19226,-0.07995 -0.38452,-0.15986 -0.60106,-0.21129c-0.0641,-0.02665 -0.13254,0.00286 -0.18764,0.14419c0.12164,0.13751 0.27409,0.16225 0.40226,0.21556zM297.7405,135.06389c0.042,0.02712 0.08181,0.08234 0.12381,0.10945c0.20999,0.1356 0.43989,0.29882 0.62342,0.49106c0.01992,0.0276 0.03981,0.05522 0.0818,0.08234c0.042,0.02712 0.08619,0.02616 0.13473,-0.03096c0.04637,-0.02902 0.00655,-0.08422 -0.01117,-0.13989c-0.01992,-0.0276 -0.03983,-0.05522 -0.08181,-0.08234c-0.22555,-0.21937 -0.45543,-0.38258 -0.72951,-0.54483c-0.042,-0.02712 -0.08619,-0.02619 -0.10826,-0.0257c-0.02209,0.00048 -0.04854,0.0571 -0.075,0.11373c-0.00218,0.0281 -0.00436,0.05613 0.042,0.02711zM297.18798,134.79553c0.0818,0.08233 0.16363,0.16464 0.29833,0.13372c0.0442,-0.00096 0.07282,-0.08564 0.0551,-0.14134c-0.07747,-0.13847 -0.22555,-0.21937 -0.34253,-0.13274c-0.02427,0.02854 -0.02645,0.05663 -0.05073,0.08516c0.0199,0.0276 0.01771,0.05568 0.03982,0.05521zM296.4912,133.82951c-0.1039,-0.08182 -0.28279,-0.04993 -0.31144,0.03475c-0.00218,0.0281 -0.00653,0.08423 0.01337,0.11183c0.03764,0.08327 0.12598,0.08136 0.21219,0.10752c0.042,0.02712 0.11044,-0.00239 0.13907,-0.08706c0.00439,-0.05617 -0.01554,-0.08375 -0.05317,-0.16705zM295.68478,133.70682c-0.04418,0.00096 -0.04855,0.0571 -0.02864,0.08471c0.0199,0.0276 0.03983,0.05518 0.05973,0.08278c0.0641,0.02668 0.12817,0.05331 0.1789,-0.03188c0.0442,-0.00093 0.04636,-0.02902 0.02864,-0.08468c-0.03546,-0.11136 -0.07962,-0.11041 -0.17017,-0.08043c0,0 -0.02209,0.00049 -0.06846,0.02951z" fill="#ffc941" stroke="none" stroke-width="1" stroke-linecap="butt"/><path d="M300.2369,137.56062c-0.62533,-0.18272 -1.29702,-0.33641 -1.94664,-0.49056c-0.28278,-0.04997 -0.5656,-0.09992 -0.84623,-0.17794c-0.23861,-0.05093 -0.47724,-0.10184 -0.71586,-0.15274c-0.47725,-0.10183 -0.97442,-0.23126 -1.47157,-0.36067c-0.51707,-0.15704 -1.03631,-0.28596 -1.57983,-0.38638c-0.39108,-0.07565 -0.80642,-0.12275 -1.21959,-0.19791c-0.34906,-0.04855 -0.69814,-0.09707 -1.04504,-0.17368c-0.23862,-0.05089 -0.5037,-0.04518 -0.74232,-0.0961c-0.5258,-0.04472 -1.04942,-0.1175 -1.58177,-0.078c-0.28717,0.00618 -0.55879,0.09613 -0.81487,0.26983c-0.16335,0.11563 -0.30681,0.25887 -0.41263,0.48536c-0.2337,0.45349 -0.12926,1.09588 0.22444,1.36854c0.1879,0.13609 0.39789,0.27171 0.61226,0.35116c0.32263,0.10518 0.64743,0.18227 0.99432,0.25884c0.3668,0.10421 0.74014,0.1242 1.10476,0.25647c0.4928,0.18559 0.99214,0.28693 1.51137,0.41589c0.23862,0.05089 0.47724,0.10183 0.71587,0.15273c0.26072,0.05045 0.54353,0.10039 0.80426,0.15085c0.50151,0.07326 0.97658,0.20316 1.47811,0.27644c0.47943,0.07375 0.9545,0.20363 1.45385,0.30499c0.13034,0.02522 0.25636,0.1066 0.36025,0.18845c0.0641,0.02665 0.10172,0.1099 0.09519,0.19413c-0.00873,0.11229 -0.05946,0.19747 -0.15219,0.25552c-0.04636,0.02905 -0.06845,0.02954 -0.11263,0.03047c-0.15462,0.00334 -0.33134,0.00715 -0.48381,-0.0176c-0.69815,-0.09705 -1.41838,-0.19364 -2.13207,-0.37445c-0.41098,-0.10325 -0.84623,-0.17795 -1.25722,-0.2812c-0.411,-0.10325 -0.82415,-0.17841 -1.2594,-0.25312c-0.5457,-0.07233 -1.08922,-0.17272 -1.65483,-0.27265c-0.56781,-0.07182 -1.10476,-0.25647 -1.66604,-0.41252c-0.41098,-0.10325 -0.76687,-0.34784 -1.11839,-0.64855c-0.47753,-0.38212 -0.73278,-1.63788 -0.20561,-2.46205c0.32427,-0.48345 0.68396,-0.8556 1.15879,-1.00596c0.70004,-0.21128 1.38046,-0.1699 2.0587,-0.10043c0.32918,0.02092 0.65397,0.09801 0.97878,0.17509c0.76006,0.15177 1.54001,0.33117 2.29789,0.51103c0.23862,0.05089 0.47507,0.12988 0.71369,0.18079c0.36897,0.07613 0.73796,0.15228 1.10477,0.25647c0.62533,0.18272 1.25502,0.30929 1.88254,0.46392c0.80205,0.17892 1.62622,0.35733 2.42827,0.53625c0.43527,0.07468 0.84405,0.20602 1.25503,0.30927c0.19444,0.05187 0.41316,0.07518 0.62534,0.1827c0.02234,0.27981 -0.06137,0.50583 -0.19146,0.7609c-0.40879,-0.13133 -0.81977,-0.23457 -1.24849,-0.3935zM289.00789,134.77569c-0.13034,-0.02522 -0.2408,-0.02285 -0.37552,0.0081c-0.42843,0.12133 -0.86341,0.32691 -1.22312,0.69902c-0.12137,0.14278 -0.22065,0.28505 -0.23809,0.50965c-0.00437,0.05614 -0.01091,0.14038 0.05316,0.16701c0.0641,0.02668 0.11047,-0.00237 0.13911,-0.08705c0.18954,-0.45254 0.53398,-0.62814 0.85632,-0.80326c0.20753,-0.11659 0.43063,-0.14944 0.65587,-0.21034c0.09055,-0.02998 0.18111,-0.05996 0.276,-0.1461c-0.01337,-0.1118 -0.07746,-0.13847 -0.14373,-0.13703zM289.76795,134.92743c0.13255,-0.00286 0.22526,-0.0609 0.20755,-0.11659c-0.01337,-0.1118 -0.10391,-0.08182 -0.16583,-0.13655c-0.10607,-0.05375 -0.22089,0.00476 -0.33569,0.06329c-0.02427,0.02856 -0.07065,0.05759 -0.05291,0.11325c0.0199,0.0276 0.03762,0.08328 0.05971,0.0828c0.08618,0.02616 0.15244,0.02474 0.19662,0.02378c0.06628,-0.00142 0.06628,-0.00141 0.09055,-0.02997z" fill="#ffc941" stroke="none" stroke-width="1" stroke-linecap="butt"/><path d="M282.59805,128.7197c0.01337,0.1118 -0.06164,0.22553 0.02452,0.25172c0.11701,-0.0866 0.12792,-0.22698 0.2051,-0.3688c0.07718,-0.14182 0.13227,-0.28313 0.20946,-0.42494c0.07718,-0.1418 0.13009,-0.25507 0.22935,-0.39733c0.03546,0.11136 0.02891,0.19558 0.00027,0.28026c-0.05073,0.08519 -0.10363,0.19844 -0.13227,0.28316c-0.10363,0.19841 -0.20728,0.39684 -0.26892,0.62241c-0.02864,0.08468 -0.03518,0.16891 0.05101,0.1951c0.14564,-0.17131 0.21163,-0.45303 0.35944,-0.65239c0.03764,0.08327 0.009,0.16797 -0.01746,0.2246c-0.03299,0.14085 -0.0859,0.2541 -0.11672,0.36686c-0.03082,0.1128 -0.0131,0.16846 0.16362,0.16467c-0.0087,0.11229 0.00464,0.22411 -0.02618,0.33688c-0.13146,1.12397 -0.36899,2.19414 -0.63081,3.29288c-0.09683,0.39447 -0.21573,0.78943 -0.33682,1.21247c-0.09028,0.31026 -0.15627,0.59195 -0.29071,0.90316c-0.02209,0.00048 -0.0641,-0.02665 -0.1061,-0.05377c-0.01772,-0.05566 -0.03982,-0.05521 -0.0641,-0.02665c-0.04855,0.0571 -0.075,0.11373 -0.07936,0.16987c-0.0109,0.14038 -0.024,0.30883 -0.01281,0.44872c0.01115,0.13992 -0.01964,0.25268 -0.11455,0.33882c-0.04446,-0.27933 0.10991,-0.56293 -0.02508,-0.81227c-0.04418,0.00096 -0.06845,0.02951 -0.0949,0.08612c-0.02864,0.08471 -0.05946,0.19748 -0.066,0.2817c-0.04392,0.28123 -0.06357,0.53391 -0.01692,0.78516c0.01334,0.11183 -0.01528,0.19652 -0.10801,0.25458c-0.05098,-0.19509 -0.05561,-0.41922 -0.04035,-0.61576c0.01309,-0.16843 0.024,-0.30883 0.03709,-0.47726c0.00439,-0.05617 -0.01115,-0.13992 -0.10171,-0.10993c-0.09491,0.08612 -0.10364,0.19843 -0.11455,0.33881c-0.00873,0.11231 -0.03954,0.22509 -0.02836,0.36498c-0.00873,0.11231 0.00243,0.25221 0.01361,0.39209c-0.0109,0.14038 0.09301,0.22222 0.05999,0.36307c-0.07063,0.05758 -0.159,0.05949 -0.17453,-0.02426c-0.01554,-0.08375 -0.03109,-0.1675 -0.04664,-0.25123c-0.009,-0.16798 0.00627,-0.3645 -0.00053,-0.56056c0.024,-0.30883 0.09217,-0.6186 0.11617,-0.92742c0.05238,-0.6738 0.14893,-1.34856 0.26756,-2.02382c0.08128,-0.47822 0.18464,-0.95692 0.31009,-1.4361c0.12982,-0.53532 0.27952,-1.04305 0.45353,-1.57934c0.14536,-0.45158 0.26861,-0.90269 0.48026,-1.35571c0.042,0.02712 0.03544,0.11134 0.03325,0.13943zM282.0984,130.60832c-0.13662,0.33927 -0.2291,0.6776 -0.32373,1.04401c-0.12328,0.4511 -0.20237,0.90126 -0.30573,1.37996c-0.00436,0.05614 -0.00655,0.08422 0.01118,0.13989c0.042,0.02712 0.08835,-0.0019 0.1148,-0.05853c0.02645,-0.05663 0.03301,-0.14084 0.06164,-0.22555c0.09683,-0.39447 0.19363,-0.78895 0.29264,-1.21151c0.06817,-0.30979 0.15846,-0.62005 0.26864,-0.9027c0.03082,-0.11277 0.01309,-0.16843 -0.09301,-0.22223c-0.02427,0.02856 -0.04855,0.05711 -0.02645,0.05666zM282.47287,129.47912c0.11263,-0.03046 0.19416,-0.22843 0.13663,-0.3393c-0.01772,-0.05566 -0.0619,-0.0547 -0.10827,-0.02568c-0.04854,0.05712 -0.05509,0.14134 -0.05945,0.19748c-0.00655,0.08422 0.01117,0.1399 0.03109,0.1675zM281.21889,134.83148c-0.02866,0.08471 -0.03301,0.14084 0.00464,0.22411c0.01554,0.08375 0.08181,0.08234 0.10826,0.02571c0.07281,-0.08568 0.07936,-0.1699 0.04172,-0.25317c0.00218,-0.02806 -0.042,-0.02712 -0.06189,-0.05473c-0.02427,0.02856 -0.04637,0.02905 -0.09273,0.05808zM282.45322,129.73178c0.00436,-0.05617 -0.01553,-0.08378 -0.05753,-0.11089c-0.042,-0.02712 -0.06627,0.00144 -0.09273,0.05807c-0.02427,0.02854 -0.05073,0.08516 -0.03301,0.14085c0.01992,0.0276 0.03764,0.08326 0.08401,0.05426c0.06845,-0.02951 0.09491,-0.08612 0.09926,-0.14227zM281.5854,134.65535c-0.04637,0.02902 -0.07283,0.08564 -0.07719,0.14182c-0.00436,0.05614 -0.00873,0.11228 0.05536,0.13892c0.042,0.02712 0.11263,-0.03044 0.11918,-0.11466c0.00436,-0.05614 -0.03109,-0.1675 -0.09735,-0.16608zM281.4327,134.35038c0.00218,-0.0281 -0.01337,-0.11183 -0.08181,-0.08233c-0.04418,0.00096 -0.09491,0.08612 -0.07936,0.16987c-0.00436,0.05614 0.03544,0.11134 0.08181,0.08234c0.04418,-0.00096 0.0728,-0.08566 0.07936,-0.16987zM282.87266,129.44242c0.00439,-0.05617 -0.03761,-0.08328 -0.0818,-0.08233c-0.04418,0.00096 -0.07064,0.05759 -0.07498,0.11373c-0.00437,0.05614 0.01555,0.08374 0.05755,0.11086c0.04634,-0.02902 0.09273,-0.05805 0.09926,-0.14227z" fill="#ffc941" stroke="none" stroke-width="1" stroke-linecap="butt"/><path d="M295.70245,140.57332c0.30488,0.04948 0.61198,0.07089 0.91686,0.12036c0.13038,0.02522 0.26291,0.02236 0.39546,0.0195c0.04418,-0.00096 0.11263,-0.03047 0.18107,-0.05997c0.29807,-0.14658 0.43227,-0.73804 0.16473,-0.98452c-0.12381,-0.10945 -0.27191,-0.19034 -0.42217,-0.24317c-0.19662,-0.02378 -0.36897,-0.07613 -0.56341,-0.12799c-0.12816,-0.05328 -0.28281,-0.04994 -0.43089,-0.13086c0.03519,-0.16891 0.06819,-0.30976 0.10336,-0.4787c0.13692,-0.059 0.2629,0.02236 0.39325,0.04759c0.41318,0.07517 0.82198,0.2065 1.19995,0.4506c0.084,0.05424 0.1459,0.10897 0.20781,0.1637c0.31171,0.24554 0.25063,1.03163 0.00793,1.31715c-0.19637,0.25651 -0.426,0.37356 -0.69326,0.40736c-0.39979,0.03664 -0.77098,-0.01143 -1.16203,-0.08707c-0.15026,-0.05283 -0.30708,-0.0214 -0.453,-0.13037c0.02866,-0.08471 0.03519,-0.16894 0.06382,-0.25365c0.0442,-0.00093 0.06627,-0.00142 0.09053,-0.02995z" fill="#fdc841" stroke="none" stroke-width="1" stroke-linecap="butt"/><path d="M298.25507,139.50922c-0.05098,-0.19509 -0.12845,-0.33354 -0.20153,-0.52819c0.2119,-0.17273 0.2978,-0.42684 0.4058,-0.68142c0.08591,-0.2541 0.06356,-0.53388 0.01911,-0.81321c0.2629,0.02236 1.06277,0.22935 1.21085,0.31023c0.00299,0.81275 -0.65645,1.92005 -1.41377,2.30075c0.01746,-0.22459 0.01063,-0.42063 -0.02044,-0.58816zM298.53924,138.69028c0.01337,0.11183 0.07964,0.11039 0.12816,0.05331c0.14128,-0.11517 0.15655,-0.3117 0.21383,-0.48111c0.03299,-0.14085 0.02182,-0.28074 -0.10199,-0.3902c-0.15437,0.28363 -0.06791,0.59005 -0.24001,0.81799zM299.14167,138.03267c0.06192,0.05473 0.14808,0.08092 0.23426,0.10707c0.04418,-0.00096 0.08837,-0.00191 0.11701,-0.08662c0.00436,-0.05614 -0.01337,-0.11182 -0.05536,-0.13894c0,0 0.00218,-0.02806 -0.0199,-0.02758c-0.10826,-0.0257 -0.21436,-0.07947 -0.33137,0.00713c-0.00654,0.08424 0.01337,0.1118 0.05536,0.13892zM299.06478,138.45475c0.06191,0.0547 0.14592,0.10895 0.25636,0.10657c0.04417,-0.00093 0.09491,-0.08613 0.07718,-0.1418c-0.07747,-0.13847 -0.20563,-0.19179 -0.30055,-0.10564c-0.02207,0.00045 -0.02425,0.02854 -0.04853,0.05709c-0.00218,0.0281 -0.00438,0.05617 0.01553,0.08378zM299.12478,138.81783c-0.01554,-0.08375 -0.05972,-0.08277 -0.12599,-0.08136c-0.0442,0.00096 -0.09055,0.02998 -0.09491,0.08615c-0.00655,0.08419 0.05536,0.13892 0.12162,0.13751c0.0442,-0.00096 0.09492,-0.08613 0.09928,-0.1423z" fill="#fdc841" stroke="none" stroke-width="1" stroke-linecap="butt"/><path d="M293.44518,138.68802c0.14729,-0.75995 0.38071,-1.49369 0.52582,-2.22556c0.02209,-0.00048 0.04634,-0.02902 0.06845,-0.02951c0.28281,0.04997 0.58553,0.12752 0.88823,0.20509c0.04418,-0.00096 0.08619,0.02616 0.10174,0.10991c-0.14075,0.67573 -0.39192,1.3538 -0.51273,2.05711c-0.02427,0.02854 -0.02645,0.05663 -0.05072,0.08516c-0.17673,0.00383 -0.82852,-0.12226 -1.02078,-0.20218zM293.94811,137.89237c0.13009,-0.25507 0.1961,-0.53677 0.28419,-0.81896c0.02864,-0.08468 -0.00903,-0.16795 -0.04883,-0.22315c-0.042,-0.02712 -0.0641,-0.02665 -0.11045,0.00239c-0.28418,0.81893 -0.28418,0.81893 -0.264,1.1268c0.0641,0.02668 0.11265,-0.03044 0.1391,-0.08705zM294.44744,137.99373c0.01993,0.02758 0.042,0.02712 0.06192,0.0547c0,0 0.0221,-0.00045 0.04634,-0.02902c0.02427,-0.02854 0.02645,-0.05663 0.05073,-0.08517c0.08809,-0.28219 0.17619,-0.56437 0.24437,-0.87414c0.00436,-0.05614 0.00655,-0.08423 -0.01119,-0.1399c-0.01771,-0.05569 -0.03761,-0.08328 -0.08181,-0.08233c-0.02209,0.00048 -0.04634,0.02902 -0.07063,0.05758c0,0 -0.02427,0.02854 -0.02645,0.05663c-0.0859,0.25411 -0.15191,0.53581 -0.2378,0.78992c-0.02645,0.05663 -0.02864,0.08468 -0.03301,0.14085c-0.00218,0.02806 -0.00652,0.0842 0.05755,0.11087zM294.34626,138.44438c0.00221,-0.02808 -0.0199,-0.0276 -0.03979,-0.0552c-0.02209,0.00048 -0.06628,0.00144 -0.09273,0.05807c-0.04855,0.0571 -0.07936,0.16987 -0.06382,0.25362c-0.00218,0.0281 0.01771,0.05569 0.05971,0.08281c0.04418,-0.00096 0.06845,-0.02951 0.09491,-0.08613c0.02645,-0.05663 0.03082,-0.1128 0.0573,-0.16941c-0.01992,-0.0276 -0.01556,-0.08374 -0.01556,-0.08374z" fill="#fdc841" stroke="none" stroke-width="1" stroke-linecap="butt"/><path d="M292.42553,137.33659c0.07254,-0.36594 0.16937,-0.7604 0.24191,-1.12634c0.26727,-0.03378 0.83288,0.06612 1.04505,0.17368c-0.03055,0.39306 -0.16936,0.76041 -0.264,1.1268c-0.09681,0.3945 -0.16936,0.76041 -0.26836,1.18297c-0.32481,-0.07709 -0.62971,-0.12654 -0.97658,-0.20316c0.03053,-0.39306 0.16936,-0.76041 0.22199,-1.15395zM292.61996,137.3885c-0.02864,0.08471 -0.05944,0.19748 -0.0019,0.30835c0.04418,-0.00096 0.09055,-0.02998 0.11701,-0.08661c0.13662,-0.33927 0.22689,-0.64953 0.27736,-1.01499c0.00655,-0.08422 -0.01117,-0.13989 -0.09519,-0.19413c-0.15434,0.2836 -0.20262,0.62097 -0.29728,0.98739zM293.3225,137.42941c0.13227,-0.28313 0.22253,-0.59337 0.22446,-0.90171c-0.0641,-0.02668 -0.11044,0.00239 -0.13689,0.05901c-0.10801,0.25458 -0.19611,0.53673 -0.21791,0.8175c0,0 -0.00219,0.02805 0.01773,0.05566c0.04418,-0.00096 0.08834,-0.0019 0.11263,-0.03046zM292.98516,138.08129c-0.02866,0.08471 0.01116,0.13992 0.07525,0.16656c0.14346,-0.14324 0.19855,-0.28458 0.14974,-0.50772c-0.15899,0.05946 -0.192,0.20031 -0.22499,0.34116z" fill="#fdc841" stroke="none" stroke-width="1" stroke-linecap="butt"/><path d="M295.06568,137.70011c-0.05726,0.1694 -0.06818,0.30977 -0.05698,0.44967c0.06407,0.02667 0.08835,-0.0019 0.1148,-0.05854c0.13445,-0.31121 0.22471,-0.62146 0.22882,-0.95789c0,0 0.00218,-0.02809 -0.01773,-0.05566c-0.042,-0.02712 -0.06628,0.00142 -0.11482,0.05851c-0.04854,0.05712 -0.01308,0.16846 -0.10364,0.19844c0.01529,-0.19654 0.07473,-0.39402 0.07011,-0.61814c0.3027,0.07757 0.58553,0.12751 0.86615,0.20556c0.06407,0.02663 0.10606,0.05375 0.12164,0.13751c-0.18492,0.67666 -0.32782,1.38045 -0.47072,2.08423c-0.35127,-0.02045 -0.67606,-0.09755 -0.97878,-0.17509c-0.03764,-0.08329 -0.03328,-0.13943 -0.00683,-0.19607c0.10118,-0.45061 0.22663,-0.9298 0.34992,-1.38093c0.00218,-0.02806 0.02428,-0.02853 0.04852,-0.05708c0.01337,0.1118 -0.01961,0.25267 -0.05045,0.36545zM295.92666,137.12097c-0.042,-0.02712 -0.11263,0.03046 -0.14563,0.17131c-0.06381,0.25362 -0.12764,0.50724 -0.19146,0.76086c-0.02645,0.05666 -0.02863,0.08471 -0.03299,0.14085c-0.00439,0.05617 -0.01091,0.14039 0.05317,0.16704c0.06407,0.02663 0.09052,-0.02999 0.14343,-0.14324c0.08809,-0.28219 0.17837,-0.59244 0.22009,-0.84561c0.0109,-0.14038 0.01745,-0.22459 -0.04664,-0.25123zM295.62338,138.75313c0.00218,-0.0281 -0.01772,-0.05569 -0.03764,-0.08327c0.00221,-0.02808 -0.042,-0.02712 -0.06625,0.00142c-0.06845,0.02951 -0.075,0.11373 -0.10364,0.19844c-0.00437,0.05614 -0.00654,0.08422 0.0731,0.19462c0.11701,-0.0866 0.1478,-0.19938 0.13445,-0.31121z" fill="#fdc841" stroke="none" stroke-width="1" stroke-linecap="butt"/><path d="M291.7923,138.107c-0.09055,0.02998 -0.07501,0.11373 -0.03737,0.19699c-0.04637,0.02902 -0.07063,0.05758 -0.11264,0.03046c-0.19444,-0.05187 -0.36678,-0.1042 -0.56124,-0.15607c-0.23862,-0.05089 -0.47507,-0.12989 -0.71369,-0.18082c-0.43527,-0.07468 -0.86616,-0.20553 -1.2992,-0.30832c0.14562,-0.17129 0.19198,-0.2003 0.37305,-0.26028c0.31799,-0.11898 0.62726,-0.12562 0.95425,-0.07663c0.37117,0.04803 0.71805,0.12463 1.08705,0.20076c0.19444,0.05187 0.38888,0.10372 0.60541,0.15514c-0.03301,0.14083 -0.03301,0.14082 -0.07719,0.14179c-0.13034,-0.02522 -0.23643,-0.07898 -0.37116,-0.04803c-0.04637,0.02902 -0.09054,0.02995 -0.09708,0.11418c-0.00439,0.05617 0.01555,0.08375 0.05755,0.11087c0.04417,-0.00093 0.06627,-0.00141 0.10825,0.02571c0.042,0.02712 0.06189,0.05472 0.084,0.05424z" fill="#fdc741" stroke="none" stroke-width="1" stroke-linecap="butt"/><path d="M292.8752,140.91449c0.08591,-0.2541 0.15191,-0.53581 0.21791,-0.81751c0.36897,0.07613 0.74017,0.12417 1.12905,0.2279c-0.09028,0.31027 -0.18055,0.62052 -0.273,0.95885c-0.42406,0.06521 -0.79742,0.04522 -1.07396,-0.36923zM293.89981,140.5c0,0 -0.01991,-0.02757 -0.042,-0.02712c-0.04418,0.00096 -0.09272,0.05807 -0.12354,0.17084c-0.00436,0.05614 0.01337,0.11183 0.05536,0.13895c0.02209,-0.00048 0.06627,-0.00141 0.09273,-0.05807c0.02427,-0.02854 0.02645,-0.05663 0.05291,-0.11325c-0.01772,-0.05566 -0.03546,-0.11136 -0.03546,-0.11136z" fill="#fcc741" stroke="none" stroke-width="1" stroke-linecap="butt"/><path d="M291.36573,140.19028c-0.47725,-0.10183 -0.97878,-0.17509 -1.45166,-0.33306c-0.23645,-0.07899 -0.49717,-0.12942 -0.72707,-0.29263c-0.12599,-0.08136 -0.25198,-0.16273 -0.39133,-0.35592c0.52143,0.10086 0.95014,0.2598 1.42957,0.33355c0.47943,0.07375 0.95886,0.14748 1.41183,0.27786c-0.0109,0.14038 -0.03955,0.22509 -0.09464,0.36642c-0.06628,0.00142 -0.13471,0.03092 -0.17671,0.0038z" fill="#f9c540" stroke="none" stroke-width="1" stroke-linecap="butt"/><path d="M295.08175,140.6147c-0.07279,0.08565 -0.10582,0.2265 -0.11672,0.36687c-0.00436,0.05617 0.01554,0.08375 0.05754,0.11087c0.0442,-0.00093 0.06628,-0.00141 0.09274,-0.05804c0.09928,-0.14229 0.13227,-0.28314 0.07911,-0.45016c0.0507,-0.08516 0.11262,-0.03044 0.15898,-0.05949c0.01992,0.0276 0.06191,0.05473 0.03546,0.11136c-0.03082,0.11276 -0.08591,0.25409 -0.1189,0.39496c-0.03084,0.11279 -0.06382,0.25362 -0.09683,0.39447c-0.00654,0.08424 -0.05291,0.11327 -0.12136,0.14278c-0.31361,0.0628 -0.61852,0.01332 -0.86395,-0.23364c0.09245,-0.33833 0.16062,-0.64809 0.25307,-0.98642c0.24081,0.02284 0.45301,0.13037 0.69597,0.12512c-0.00436,0.05614 -0.00654,0.08423 -0.05509,0.14133z" fill="#fcc741" stroke="none" stroke-width="1" stroke-linecap="butt"/><path d="M291.68428,140.63189c0.06381,-0.25362 0.10554,-0.50678 0.16935,-0.76041c0.26508,-0.00569 0.74234,0.09611 1.02078,0.20221c-0.0439,0.28123 -0.10991,0.56293 -0.24218,0.84609c-0.35127,-0.02045 -0.6848,0.01476 -0.94796,-0.28789zM292.65596,140.33063c0.00436,-0.05614 0.02863,-0.08471 0.03301,-0.14085c0.00436,-0.05614 0.0087,-0.11229 -0.05756,-0.11087c-0.06626,0.00144 -0.1148,0.05853 -0.12136,0.14275c-0.00436,0.05617 0.03329,0.13943 0.07747,0.13848c0.02209,-0.00048 0.04416,-0.00093 0.06845,-0.02951z" fill="#fbc641" stroke="none" stroke-width="1" stroke-linecap="butt"/><path d="M302.58606,138.54701c-0.19226,-0.07995 -0.36025,-0.18845 -0.49959,-0.38163c0.13227,-0.28313 0.20261,-0.62098 0.24872,-0.93028c0.32018,-0.14703 0.32018,-0.14703 0.53671,-0.09564c0.07335,0.47491 -0.03003,0.9536 -0.28583,1.40757z" fill="#fbc641" stroke="none" stroke-width="1" stroke-linecap="butt"/><path d="M296.16803,133.16386c0.02866,-0.08471 0.00872,-0.11228 0.03518,-0.16894c0.03737,-0.19699 0.06164,-0.22553 0.21626,-0.22888c0.28717,-0.00618 0.5457,0.07233 0.77125,0.2917c0.12381,0.10945 0.16362,0.16464 0.03135,0.44779c-0.3668,-0.10421 -0.70932,-0.23697 -1.05406,-0.34167z" fill="#fbc640" stroke="none" stroke-width="1" stroke-linecap="butt"/><path d="M294.67167,132.2712c0.06192,0.05473 0.15028,0.0528 0.20781,0.16367c-0.00873,0.11231 -0.01527,0.19655 -0.09027,0.31028c-0.3447,-0.10469 -0.69161,-0.1813 -1.0584,-0.28548c-0.01337,-0.11183 -0.0289,-0.19558 0.06818,-0.30979c0.28935,-0.03427 0.57871,-0.06852 0.87268,0.12134z" fill="#f7c340" stroke="none" stroke-width="1" stroke-linecap="butt"/><path d="M295.12246,132.42962c0.36217,-0.11993 0.63844,0.01425 0.85525,0.3459c0.05755,0.11087 0.02891,0.19558 -0.04609,0.30931c-0.15681,0.0314 -0.30272,-0.07754 -0.45298,-0.13037c-0.15026,-0.05283 -0.30491,-0.04949 -0.44862,-0.18651c0.00873,-0.11231 0.01745,-0.2246 0.0461,-0.30931c0.02426,-0.02856 0.02425,-0.02857 0.04634,-0.02902z" fill="#f8c440" stroke="none" stroke-width="1" stroke-linecap="butt"/><path d="M294.61985,131.23523c-0.01554,-0.08375 -0.03545,-0.11131 -0.09953,-0.13799c-0.04418,0.00096 -0.06846,0.02951 -0.07498,0.11373c-0.02427,0.02856 -0.05072,0.08519 -0.11918,0.11468c-0.01992,-0.0276 -0.084,-0.05424 -0.12601,-0.08137c-0.042,-0.02712 -0.10389,-0.08185 -0.07526,-0.16656c0.02864,-0.08468 0.07718,-0.1418 0.14562,-0.17129c0.18107,-0.05998 0.37772,-0.03618 0.54352,0.10039c0.084,0.05424 0.14372,0.13703 0.1129,0.24982c-0.11917,0.11466 -0.11917,0.11466 -0.2959,0.11849c-0.03982,-0.05522 -0.01555,-0.08374 -0.01119,-0.13992z" fill="#ecbb3f" stroke="none" stroke-width="1" stroke-linecap="butt"/><path d="M283.06303,127.56047c0.02645,-0.05663 0.05291,-0.11325 0.11917,-0.11466c0.042,0.02712 0.03764,0.08326 -0.01091,0.14038c-0.14998,0.22746 -0.28008,0.4825 -0.41235,0.76566c-0.05291,0.11325 -0.06599,0.28167 -0.14099,0.3954c-0.01772,-0.05566 0.01091,-0.14037 -0.05316,-0.16701c0.11672,-0.36686 0.29752,-0.70713 0.49824,-1.01977z" fill="#d8ac3c" stroke="none" stroke-width="1" stroke-linecap="butt"/><path d="M297.27991,131.62639c0.084,0.05424 0.19008,0.10801 0.19907,0.27599c-0.07718,0.14182 -0.16552,0.14371 -0.2517,0.11753c-0.05974,-0.0828 -0.02673,-0.22364 -0.11293,-0.2498c-0.10825,-0.0257 -0.12136,0.14274 -0.21189,0.17274c-0.08619,-0.02619 -0.09952,-0.13799 -0.09082,-0.25031c0.16335,-0.11563 0.31799,-0.11897 0.46825,-0.06613z" fill="#dfb13d" stroke="none" stroke-width="1" stroke-linecap="butt"/><path d="M296.01643,131.70967c-0.01554,-0.08375 -0.00683,-0.19603 -0.11511,-0.22174c-0.10825,-0.0257 -0.09708,0.11422 -0.16771,0.17177c-0.08837,0.00193 -0.15027,-0.0528 -0.2078,-0.16367c0.14998,-0.22746 0.30244,-0.20273 0.47479,-0.15037c0.10827,0.02568 0.21437,0.07944 0.219,0.30358c-0.09273,0.05804 -0.159,0.05949 -0.20317,0.06042z" fill="#e4b53e" stroke="none" stroke-width="1" stroke-linecap="butt"/><path d="M301.86719,137.58154c0.05728,-0.16939 0.05045,-0.36545 0.11209,-0.59102c0.14808,0.08092 0.1129,0.24982 0.08209,0.36262c-0.04609,0.30928 -0.09437,0.64669 -0.42108,0.87795c0.08373,-0.22604 0.16525,-0.42398 0.22689,-0.64954z" fill="#e3b53e" stroke="none" stroke-width="1" stroke-linecap="butt"/><path d="M295.37764,140.49623c-0.04634,0.02902 -0.08835,0.0019 -0.15901,0.05949c0.03111,0.1675 -0.0019,0.30835 -0.07908,0.45015c-0.02427,0.02856 -0.05073,0.08519 -0.09273,0.05807c-0.042,-0.02712 -0.06189,-0.05473 -0.05755,-0.11087c0.00873,-0.11231 0.01964,-0.25268 0.11673,-0.36689c0.04637,-0.02902 0.04855,-0.05706 0.03081,-0.11276c0.06628,-0.00142 0.15901,-0.05949 0.24081,0.02284z" fill="#c59b31" stroke="none" stroke-width="1" stroke-linecap="butt"/><path d="M291.99329,138.07468c0.042,0.02712 0.06189,0.05473 0.01117,0.13989c-0.06407,-0.02663 -0.13036,-0.02519 -0.19444,-0.05187c-0.042,-0.02712 -0.06191,-0.0547 -0.10172,-0.1099c0.09053,-0.03 0.20097,-0.03237 0.28499,0.02189z" fill="#ac8b37" stroke="none" stroke-width="1" stroke-linecap="butt"/><path d="M281.8952,135.2093c0.00436,-0.05617 -0.01119,-0.13992 -0.00464,-0.22411c0.02209,-0.00048 0.0641,0.02665 0.1061,0.05377c0.01554,0.08375 -0.01309,0.16843 -0.10146,0.17036z" fill="#c59b31" stroke="none" stroke-width="1" stroke-linecap="butt"/><path d="M296.99955,134.09885c0.21871,0.02333 0.40879,0.13133 0.60106,0.21129c0.40661,0.15939 0.76466,0.37589 1.1162,0.67662c0.18572,0.16419 0.36926,0.35641 0.50426,0.60576c-0.02646,0.05661 -0.05293,0.11324 -0.11701,0.08661c-0.13038,-0.02522 -0.20999,-0.13562 -0.29179,-0.21794c-0.22555,-0.21937 -0.45325,-0.41063 -0.70525,-0.57336c-0.29615,-0.1618 -0.59451,-0.29551 -0.89285,-0.42923c-0.12599,-0.08136 -0.30054,-0.10562 -0.42217,-0.24314c0.03301,-0.14085 0.09929,-0.14227 0.20756,-0.11659z" fill="#c59b31" stroke="none" stroke-width="1" stroke-linecap="butt"/><path d="M297.74922,134.95161c0.04418,-0.00096 0.06628,-0.00144 0.12817,0.05329c0.25417,0.13467 0.50616,0.29742 0.72951,0.54483c0.01992,0.0276 0.06191,0.05472 0.0818,0.08233c0.042,0.02712 0.05974,0.0828 0.01119,0.1399c-0.04855,0.0571 -0.09273,0.05807 -0.13473,0.03095c-0.0199,-0.0276 -0.03982,-0.05521 -0.08181,-0.08233c-0.18353,-0.19224 -0.39133,-0.35592 -0.62342,-0.49106c-0.042,-0.02712 -0.084,-0.05424 -0.1238,-0.10945c-0.01993,-0.02758 -0.01774,-0.05567 -0.03764,-0.08327c0.00436,-0.05614 0.02864,-0.08468 0.05073,-0.08516z" fill="#c59b31" stroke="none" stroke-width="1" stroke-linecap="butt"/><path d="M297.19671,134.6832c0.11483,-0.05851 0.26509,-0.00569 0.34253,0.13277c0.01774,0.05567 -0.0109,0.14038 -0.05508,0.14131c-0.11044,0.00239 -0.19444,-0.05187 -0.29836,-0.13369c-0.0199,-0.0276 -0.01771,-0.05568 -0.03761,-0.08329c0.00218,-0.02806 0.02645,-0.05663 0.04854,-0.05711z" fill="#c59b31" stroke="none" stroke-width="1" stroke-linecap="butt"/><path d="M296.42302,134.13933c-0.0641,-0.02665 -0.15244,-0.02475 -0.21217,-0.10756c-0.01993,-0.02758 -0.03764,-0.08326 -0.01336,-0.1118c0.03082,-0.1128 0.18543,-0.11612 0.31144,-0.03474c0.02209,-0.00048 0.03982,0.05518 0.03544,0.11135c-0.02864,0.08468 -0.09708,0.11419 -0.12137,0.14275z" fill="#c59b31" stroke="none" stroke-width="1" stroke-linecap="butt"/><path d="M295.92122,133.78579c-0.00218,0.0281 -0.00436,0.05614 -0.02864,0.0847c-0.05073,0.08516 -0.1148,0.05853 -0.1789,0.03188c-0.0199,-0.0276 -0.03982,-0.05522 -0.05971,-0.08281c-0.01993,-0.02758 0.00436,-0.05614 0.02863,-0.08468c0.02427,-0.02856 0.04635,-0.02902 0.07064,-0.05758c0.09055,-0.02998 0.13471,-0.03092 0.16798,0.10849z" fill="#c59b31" stroke="none" stroke-width="1" stroke-linecap="butt"/><path d="M288.87563,135.05879c-0.22307,0.03286 -0.44833,0.09374 -0.65587,0.21035c-0.32235,0.17512 -0.6668,0.35071 -0.85633,0.80325c-0.02645,0.05663 -0.07501,0.11373 -0.1391,0.08705c-0.042,-0.02712 -0.05973,-0.08277 -0.05316,-0.16701c0.01745,-0.22459 0.11673,-0.36687 0.23809,-0.50965c0.37961,-0.3445 0.79251,-0.5496 1.22312,-0.69902c0.11263,-0.03046 0.24299,-0.00525 0.37551,-0.00811c0.06628,-0.00144 0.13037,0.02522 0.14374,0.13703c-0.09491,0.08612 -0.18545,0.1161 -0.276,0.1461z" fill="#fefdfa" stroke="none" stroke-width="1" stroke-linecap="butt"/><path d="M289.50068,134.96123c-0.0199,-0.0276 -0.03979,-0.0552 -0.05971,-0.08281c-0.01772,-0.05566 0.00655,-0.08423 0.05291,-0.11325c0.11483,-0.05851 0.20972,-0.14466 0.33572,-0.06328c0.0641,0.02665 0.15243,0.02475 0.1658,0.13655c0.01554,0.08375 -0.07501,0.11373 -0.20753,0.11659c-0.02209,0.00048 -0.04419,0.00095 -0.11046,0.00237c-0.04418,0.00096 -0.11045,0.0024 -0.17673,0.00384z" fill="#fefbf3" stroke="none" stroke-width="1" stroke-linecap="butt"/><path d="M282.19578,130.77436c-0.09028,0.31027 -0.17836,0.59244 -0.24872,0.93028c-0.07473,0.39401 -0.17156,0.78849 -0.29264,1.21153c-0.00437,0.05614 -0.03301,0.14085 -0.06164,0.22553c-0.00436,0.05617 -0.05074,0.08519 -0.11482,0.05856c0.00436,-0.05617 -0.01556,-0.08375 -0.01118,-0.13992c0.07909,-0.45014 0.18027,-0.90079 0.28363,-1.37948c0.09465,-0.3664 0.18709,-0.70472 0.32373,-1.04401c0.00218,-0.0281 0.02646,-0.05663 0.05073,-0.08519c0.084,0.05424 0.10171,0.10993 0.0709,0.2227z" fill="#fefcf4" stroke="none" stroke-width="1" stroke-linecap="butt"/><path d="M282.52332,129.11368c0.02427,-0.02854 0.06846,-0.02951 0.10826,0.0257c0.03545,0.11131 -0.024,0.30881 -0.13444,0.31118c-0.0442,0.00096 -0.06191,-0.05471 -0.05536,-0.13893c0.00436,-0.05614 0.01091,-0.14038 0.08154,-0.19796z" fill="#c59b31" stroke="none" stroke-width="1" stroke-linecap="butt"/><path d="M281.39561,134.82763c0.01554,0.08375 0.009,0.16798 -0.04174,0.25317c-0.02425,0.02854 -0.09053,0.02999 -0.10827,-0.02571c-0.03763,-0.08327 -0.03327,-0.1394 -0.00464,-0.22411c0,0 0.04637,-0.02902 0.07065,-0.05759c0.0199,0.0276 0.042,0.02712 0.084,0.05424z" fill="#c59b31" stroke="none" stroke-width="1" stroke-linecap="butt"/><path d="M282.26777,129.84793c-0.01771,-0.05569 0.00873,-0.11231 0.03518,-0.16894c0.02645,-0.05663 0.04855,-0.05711 0.09273,-0.05808c0.042,0.02712 0.06189,0.05473 0.05753,0.1109c-0.00436,0.05614 -0.03082,0.11277 -0.09926,0.14227c-0.04637,0.02902 -0.06627,0.00142 -0.08619,-0.02616z" fill="#c59b31" stroke="none" stroke-width="1" stroke-linecap="butt"/><path d="M281.5835,134.96373c-0.06407,-0.02663 -0.05973,-0.08278 -0.05537,-0.13895c0.00437,-0.05614 0.00873,-0.11229 0.07719,-0.1418c0.0442,-0.00096 0.084,0.05424 0.07746,0.13847c-0.00437,0.05614 -0.05508,0.14134 -0.09928,0.14227z" fill="#c59b31" stroke="none" stroke-width="1" stroke-linecap="butt"/><path d="M281.24725,134.46651c-0.01554,-0.08375 0.03301,-0.14085 0.07936,-0.1699c0.04637,-0.02902 0.0641,0.02667 0.08181,0.08233c0.01771,0.05569 -0.01091,0.14038 -0.05509,0.14133c-0.04417,0.00093 -0.08617,-0.02618 -0.1061,-0.05376z" fill="#c59b31" stroke="none" stroke-width="1" stroke-linecap="butt"/><path d="M282.69377,129.47437c0.00436,-0.05614 0.05291,-0.11325 0.09709,-0.11422c0.0442,-0.00096 0.084,0.05425 0.07964,0.11039c-0.00436,0.05617 -0.05073,0.08519 -0.09709,0.11422c-0.042,-0.02712 -0.06192,-0.05473 -0.07964,-0.11039z" fill="#c59b31" stroke="none" stroke-width="1" stroke-linecap="butt"/><path d="M298.88124,138.26249c-0.03519,0.16895 -0.07255,0.36593 -0.21383,0.4811c-0.04852,0.05709 -0.09273,0.05805 -0.12816,-0.05331c0.1721,-0.22795 0.08564,-0.53437 0.24001,-0.818c0.12381,0.10945 0.13497,0.24934 0.10199,0.3902z" fill="#fef7e3" stroke="none" stroke-width="1" stroke-linecap="butt"/><path d="M299.41767,137.88662c0,0 -0.00219,0.02805 0.0199,0.02758c0.042,0.02712 0.0818,0.08233 0.05536,0.13895c-0.02864,0.08471 -0.07501,0.11373 -0.11701,0.08661c-0.0641,-0.02665 -0.15028,-0.0528 -0.23426,-0.10706c-0.042,-0.02712 -0.0619,-0.05471 -0.05536,-0.13893c0.13689,-0.059 0.2231,-0.03284 0.33136,-0.00713z" fill="#c59b31" stroke="none" stroke-width="1" stroke-linecap="butt"/><path d="M299.09776,138.31393c0.11701,-0.0866 0.26727,-0.03381 0.32263,0.10515c0.01772,0.05566 -0.03299,0.14085 -0.07719,0.14182c-0.08834,0.0019 -0.17235,-0.05234 -0.25633,-0.10658c-0.02209,0.00048 -0.01774,-0.0557 -0.03764,-0.08329c0.00218,-0.02806 0.00436,-0.05614 0.04853,-0.05709z" fill="#c59b31" stroke="none" stroke-width="1" stroke-linecap="butt"/><path d="M298.90166,138.85064c0.02645,-0.05663 0.05072,-0.08517 0.09492,-0.08612c0.06845,-0.02951 0.11044,-0.00239 0.12599,0.08137c-0.00437,0.05614 -0.05291,0.11325 -0.0971,0.11422c-0.06625,0.00142 -0.12599,-0.08136 -0.12381,-0.10946z" fill="#c59b31" stroke="none" stroke-width="1" stroke-linecap="butt"/><path d="M294.07301,136.85262c0.04634,-0.02902 0.09273,-0.05807 0.11044,-0.00239c0.03982,0.05522 0.07747,0.13847 0.04883,0.22315c-0.08593,0.25412 -0.15191,0.53581 -0.28418,0.81896c-0.02645,0.05663 -0.07501,0.11373 -0.13911,0.08705c-0.02018,-0.30786 -0.02018,-0.30787 0.264,-1.1268z" fill="#fefbf1" stroke="none" stroke-width="1" stroke-linecap="butt"/><path d="M294.37874,137.74297c0.0859,-0.25411 0.15188,-0.53581 0.2378,-0.78992c0,0 0.00218,-0.02807 0.02645,-0.05663c0.02427,-0.02854 0.04855,-0.0571 0.07063,-0.05758c0.04417,-0.00093 0.0641,0.02668 0.08181,0.08234c0.01771,0.05569 0.01555,0.08375 0.01119,0.13989c-0.04393,0.28125 -0.15409,0.5639 -0.24436,0.87413c-0.00218,0.0281 -0.02646,0.05663 -0.05073,0.08519c-0.00218,0.02806 -0.02428,0.02854 -0.04635,0.02902c-0.02209,0.00048 -0.042,-0.02712 -0.06191,-0.05472c-0.0199,-0.0276 -0.01554,-0.08375 -0.01336,-0.1118c0.00439,-0.05617 0.00655,-0.08423 -0.01116,-0.13993z" fill="#c59b31" stroke="none" stroke-width="1" stroke-linecap="butt"/><path d="M294.3288,138.66896c-0.02645,0.05663 -0.05291,0.11324 -0.09491,0.08612c-0.02209,0.00048 -0.04199,-0.02712 -0.05972,-0.08277c-0.01556,-0.08375 -0.00901,-0.16799 0.06381,-0.25362c0.00218,-0.0281 0.02646,-0.05665 0.06846,-0.02953c0.0199,0.0276 0.0199,0.02761 0.04199,0.02712c-0.00221,0.02808 -0.00438,0.05617 0.01337,0.11183c-0.02646,0.05661 -0.03084,0.11279 -0.03301,0.14085z" fill="#c59b31" stroke="none" stroke-width="1" stroke-linecap="butt"/><path d="M293.0168,136.53909c-0.04827,0.33737 -0.14072,0.67569 -0.27736,1.01498c-0.00436,0.05614 -0.05291,0.11325 -0.11701,0.08662c-0.05971,-0.08281 -0.02891,-0.19558 0.00191,-0.30836c0.08809,-0.28219 0.11428,-0.61907 0.29289,-0.93125c0.08619,0.02616 0.10174,0.10991 0.09956,0.13799z" fill="#fefcf4" stroke="none" stroke-width="1" stroke-linecap="butt"/><path d="M293.19215,137.40419c0.0439,-0.28123 0.12982,-0.53534 0.21791,-0.8175c0.00654,-0.08424 0.05071,-0.0852 0.13689,-0.05901c-0.00191,0.30835 -0.09219,0.61858 -0.22446,0.90171c-0.02645,0.05663 -0.07063,0.05758 -0.11263,0.03046c0.00218,-0.0281 -0.01772,-0.05566 -0.01772,-0.05566z" fill="#c59b31" stroke="none" stroke-width="1" stroke-linecap="butt"/><path d="M293.0604,138.24785c-0.0641,-0.02665 -0.10392,-0.08184 -0.07526,-0.16655c0.03299,-0.14085 0.06382,-0.25362 0.22499,-0.34116c0.02672,0.22362 -0.02837,0.36496 -0.14973,0.50771z" fill="#c59b31" stroke="none" stroke-width="1" stroke-linecap="butt"/><path d="M295.75318,138.21785c-0.05291,0.11325 -0.10144,0.17036 -0.14344,0.14324c-0.0641,-0.02665 -0.05973,-0.08282 -0.05316,-0.16704c0.00436,-0.05614 0.00653,-0.08421 0.03299,-0.14085c0.06381,-0.25362 0.12764,-0.50724 0.19145,-0.76087c0.03301,-0.14085 0.08156,-0.19795 0.14564,-0.17131c0.08619,0.02616 0.05754,0.11087 0.04663,0.25124c-0.04172,0.25316 -0.13199,0.56341 -0.22008,0.8456z" fill="#c59b31" stroke="none" stroke-width="1" stroke-linecap="butt"/><path d="M295.1977,137.13673c0.02645,-0.05663 0.05072,-0.08519 0.11482,-0.05855c0,0 0.01991,0.0276 0.01771,0.05568c-0.02618,0.33688 -0.09436,0.64668 -0.22882,0.95789c-0.00436,0.05614 -0.0507,0.08516 -0.1148,0.05853c-0.01119,-0.13989 0.00191,-0.30836 0.05701,-0.44969c0.05291,-0.11325 0.08371,-0.22601 0.07252,-0.3659c0.09055,-0.02998 0.0551,-0.14133 0.08155,-0.19795z" fill="#fdf7e7" stroke="none" stroke-width="1" stroke-linecap="butt"/><path d="M295.41802,138.84169c0.02645,-0.05663 0.05509,-0.14134 0.10363,-0.19844c0.00218,-0.02806 0.04634,-0.02902 0.06627,-0.00141c-0.00221,0.02808 0.03981,0.05521 0.03762,0.08326c0.01119,0.13992 -0.01962,0.2527 -0.13662,0.3393c-0.05536,-0.13895 -0.07526,-0.16656 -0.0709,-0.2227z" fill="#c59b31" stroke="none" stroke-width="1" stroke-linecap="butt"/><path d="M293.90443,140.72419c-0.00436,0.05614 -0.0507,0.08516 -0.0927,0.05804c-0.0641,-0.02665 -0.08181,-0.08234 -0.05537,-0.13895c0.0087,-0.11229 0.08153,-0.19794 0.12353,-0.17082c0.02209,-0.00048 0.0221,-0.00048 0.04201,0.02712c-0.00218,0.02806 -0.00436,0.05615 0.01336,0.11181c-0.02427,0.02856 -0.02864,0.08471 -0.03084,0.11279z" fill="#c59b31" stroke="none" stroke-width="1" stroke-linecap="butt"/><path d="M292.48796,140.22213c0.00654,-0.08424 0.05509,-0.14133 0.12136,-0.14275c0.06628,-0.00142 0.06189,0.05473 0.05755,0.11087c-0.00436,0.05614 -0.00655,0.08421 -0.03301,0.14084c0,0 -0.02208,0.00049 -0.04634,0.02903c-0.04418,0.00096 -0.084,-0.05425 -0.09953,-0.138z" fill="#c59b31" stroke="none" stroke-width="1" stroke-linecap="butt"/></g></g></svg>