<svg version="1.1" xmlns="http://www.w3.org/2000/svg" xmlns:xlink="http://www.w3.org/1999/xlink" width="202.53649" height="334.16954" viewBox="0,0,202.53649,334.16954"><g transform="translate(-170.78349,-139.26885)"><g data-paper-data="{&quot;isPaintingLayer&quot;:true}" fill-rule="nonzero" stroke-linejoin="miter" stroke-miterlimit="10" stroke-dasharray="" stroke-dashoffset="0" style="mix-blend-mode: normal"><g><path d="M193.80992,233.08067v-92.06182h93.78952v92.06182z" fill="#ffffff" stroke="#ff4040" stroke-width="3.5" stroke-linecap="butt"/><path d="M194.64893,223.90964c0,0 12.0113,1.41349 20.67906,-19.8997c4.79527,-11.79112 2.12392,-34.66618 6.78535,-41.63359c7.78718,-11.63945 23.50826,-10.9515 31.36273,-10.28645c10.59378,0.897 19.67959,6.47716 21.14053,16.55771c1.82398,12.58551 -5.66126,31.05899 -7.19516,43.18031c-2.17385,17.17849 1.85663,21.30232 1.85663,21.30232" fill="none" stroke="#ff4040" stroke-width="3.5" stroke-linecap="round"/><path d="M227.76061,165.07547c2.76138,0.22023 15.56653,1.2415 15.56653,1.2415l5.40269,2.59329l3.88994,-1.72886l18.15304,1.62081c0,0 3.42764,16.80613 -8.1019,17.38308c-12.34393,0.6177 -14.8055,-7.55019 -14.8055,-7.55019c0,0 -4.14123,6.96814 -13.98754,5.69726c-13.04351,-1.68356 -8.16348,-19.42009 -8.16348,-19.42009c0,0 1.04505,0.08336 2.04622,0.16321z" fill="none" stroke="#ff4040" stroke-width="3.5" stroke-linecap="round"/><path d="M266.99094,213.9687l-13.72283,13.29062l-9.50874,-7.77988l12.53424,-15.77585z" fill="none" stroke="#ff4040" stroke-width="3.5" stroke-linecap="round"/><path d="M256.61778,203.70358l3.34967,-0.43221l3.78188,2.26913l1.51275,-0.54027l2.16108,2.16108l-0.32416,6.15907" fill="none" stroke="#ff4040" stroke-width="3.5" stroke-linecap="round"/><path d="M262.02047,203.91969l0.43221,-4.64631" fill="none" stroke="#ff4040" stroke-width="3.5" stroke-linecap="round"/><path d="M198.03462,186.34659l17.72083,12.10203" fill="none" stroke="#ff4040" stroke-width="3.5" stroke-linecap="round"/><path d="M194.86503,195.82651c0,0 7.89711,-7.49798 11.92465,-10.33668c3.9426,-2.77883 11.99126,-6.51971 11.99126,-6.51971" fill="none" stroke="#ff4040" stroke-width="3.5" stroke-linecap="round"/><path d="M274.68076,181.27526c0,0 8.04864,3.74089 11.99126,6.51971" data-paper-data="{&quot;index&quot;:null}" fill="none" stroke="#ff4040" stroke-width="3.5" stroke-linecap="round"/><path d="M195.27324,154.67962l15.38686,-7.95276l3.11195,8.81719l-19.53613,36.82473" fill="none" stroke="#ff4040" stroke-width="3.5" stroke-linecap="round"/><path d="M256.37015,195.35149c0,0 -1.8728,23.13357 -10.52026,22.17541c-6.59437,-0.73065 -7.01549,-24.13404 -7.01549,-24.13404z" data-paper-data="{&quot;index&quot;:null}" fill="#ff4040" stroke="#ff4040" stroke-width="3.5" stroke-linecap="round"/><path d="M260.23518,146.02089l-10.91489,14.97375l-12.32327,-14.97375" fill="none" stroke="#ff4040" stroke-width="3.5" stroke-linecap="round"/><path d="M241.43523,200.01836c0,0 0.61612,-3.32622 3.3089,-4.61192c0.82675,-0.39474 2.04283,-0.72686 3.17637,-0.65906c0.77169,0.04615 1.99431,0.30695 2.93447,0.83738c1.07637,0.60728 1.83461,1.50803 2.01255,1.82023c1.01429,1.77956 0.9181,3.87338 0.07378,5.54192c-0.65386,1.29216 -2.10434,2.53232 -2.94958,3.50108c-1.75342,2.00966 -2.70846,2.95518 -2.70846,2.95518l5.466,0.143l-0.15121,3.70829l-11.72137,-0.51789l0.12768,-2.15158c0,0 1.9239,-2.14033 4.02981,-4.40373c2.04562,-2.19858 4.26955,-4.5085 4.62929,-5.40524c0.22436,-0.55928 0.12299,-2.22598 -1.99068,-2.39667c-2.27738,-0.18391 -2.71315,2.38182 -2.71315,2.38182l-3.52441,-0.74282z" fill="#ff6767" stroke="none" stroke-width="0" stroke-linecap="round"/></g><path d="M254.19763,466.44575c-5.17196,0 -9.36466,-4.1927 -9.36466,-9.36466c0,-5.17196 4.1927,-9.36466 9.36466,-9.36466c5.17196,0 9.36466,4.1927 9.36466,9.36466c0,5.17196 -4.1927,9.36466 -9.36466,9.36466z" fill="#ffffff" stroke="#ff4040" stroke-width="3.5" stroke-linecap="butt"/><path d="M293.88736,463.40672c-5.17196,0 -9.36466,-4.19271 -9.36466,-9.36467c0,-5.17196 4.1927,-9.36466 9.36466,-9.36466c5.17196,0 9.36467,4.1927 9.36467,9.36466c0,5.17196 -4.1927,9.36467 -9.36467,9.36467z" fill="#ffffff" stroke="#ff4040" stroke-width="3.5" stroke-linecap="butt"/><g><path d="M352.84259,446.96724l18.49974,-7.98028l-2.53918,31.55838l-17.04879,-9.79398z" data-paper-data="{&quot;index&quot;:null}" fill="#ffffff" stroke="#ff4040" stroke-width="3.5" stroke-linecap="round"/><path d="M342.03874,457.20232l-18.49974,7.98028l2.53918,-31.55838l17.04879,9.79398z" fill="#ffffff" stroke="#ff4040" stroke-width="3.5" stroke-linecap="round"/><g stroke-linecap="butt"><g fill="#ffffff" stroke="#ff4040" stroke-width="3.5"><path d="M343.76182,467.66088c-7.59744,-1.62048 -12.39316,-9.3255 -10.71153,-17.20964c1.68164,-7.88414 9.20381,-12.96184 16.80125,-11.34137c7.59744,1.62048 12.39316,9.3255 10.71153,17.20964c-1.68164,7.88414 -9.20381,12.96184 -16.80125,11.34137z"/></g><g data-paper-data="{&quot;index&quot;:null}" stroke="none" stroke-width="1"><path d="M350.52725,450.88567c-0.0457,0.05375 -0.07061,0.10706 -0.07677,0.18634c0.03543,0.07838 0.11655,0.10304 0.1728,0.18097c0.05826,0.05152 0.11655,0.10304 0.17277,0.18096c0.19535,-0.10975 0.38456,-0.1402 0.56554,-0.06496c0.06856,-0.08062 0.09756,-0.18679 0.10578,-0.29249c-0.07908,-0.05106 -0.15813,-0.10212 -0.23721,-0.15319c-0.1561,-0.12857 -0.1728,-0.18097 -0.11066,-0.44614c0.20974,-0.29474 0.44055,-0.32612 0.70676,-0.27907c0.18508,0.02238 0.34119,0.15094 0.40381,0.41344c0.01053,0.13169 -0.02054,0.26428 -0.13273,0.37224c-0.06853,0.08063 -0.13091,0.08199 -0.21615,0.11018c-0.06444,0.02778 -0.12271,-0.02371 -0.21204,0.05735c-0.02696,0.07971 -0.07677,0.18634 -0.0434,0.29113c0.07701,0.07751 0.13528,0.12902 0.21229,0.20651c0.15403,0.15498 0.26443,0.33727 0.15865,0.6298c-0.00205,0.02642 0.01668,0.05239 0.01259,0.10524c0.17893,0.10167 0.38071,0.17648 0.58044,0.27772c0.30163,0.12541 0.57839,0.30414 0.85102,0.53571c0.17481,0.15455 0.32679,0.33594 0.4975,0.54332c0.22695,0.28533 0.38739,0.62488 0.45849,1.04548c0.01463,0.07884 0.03131,0.13126 0.04594,0.2101c0.01875,0.02599 0.03748,0.05198 0.05829,0.05152c0.468,0.12182 0.91519,0.24412 1.38319,0.36592c0.10191,0.0242 0.18307,0.04882 0.29318,-0.03271c0.13094,-0.08197 0.23081,-0.03135 0.32657,0.07213c0.03954,0.02553 0.05826,0.05152 0.09575,0.10347c0.17048,-0.05644 0.34093,-0.1129 0.50729,-0.11648c0.24954,-0.00539 0.3245,0.09852 0.32271,0.38879c0.01281,0.36909 -0.0991,0.74088 -0.23183,1.11312c-0.05596,0.1859 -0.17432,0.37315 -0.34683,0.45602c-0.26417,-0.07346 -0.43489,-0.28084 -0.6305,-0.43494c-0.3055,0.19128 -0.38456,0.14022 -0.52627,-0.17334c-0.44926,-0.09586 -0.87156,-0.27144 -1.32082,-0.3673c-0.15686,1.21703 -0.77583,1.96915 -1.62582,2.48877c-0.13273,0.37224 -0.35504,0.56174 -0.6377,0.72613c-0.23901,0.13708 -0.48854,0.14246 -0.736,0.12142c-0.39304,-0.01792 -0.78195,-0.08869 -1.19169,-0.15901c-0.05597,0.1859 -0.13068,0.3458 -0.10143,0.5035c-0.09137,0.10749 -0.19742,0.13617 -0.30139,0.1384c-0.22874,0.00494 -0.43668,0.00941 -0.63434,-0.11825c-0.19767,-0.12765 -0.39535,-0.25531 -0.63229,-0.14467c-0.30987,-0.01968 -0.61561,-0.09226 -0.86541,-0.35071c-0.03748,-0.05195 -0.09576,-0.10345 -0.16018,-0.07569c-0.12682,0.02911 -0.22874,0.00494 -0.35146,-0.01881c-0.28907,-0.02014 -0.5491,-0.14646 -0.75937,-0.3794c-0.02079,0.00046 -0.01874,-0.02596 -0.03747,-0.05194c-0.01464,-0.07884 0.03311,-0.15904 -0.02311,-0.23696c-0.07701,-0.07751 -0.20588,-0.02196 -0.30782,-0.04613c-0.44721,-0.12229 -0.91726,-0.21769 -1.38526,-0.33952c-0.18304,-0.04882 -0.36197,-0.15049 -0.5409,-0.25219c-0.25801,-0.15273 -0.47237,-0.33279 -0.54963,-0.67412c-0.07906,-0.05109 -0.13939,-0.07617 -0.22052,-0.10079c-0.40356,-0.14961 -0.77812,-0.40538 -1.10492,-0.74132c-0.11451,-0.12944 -0.229,-0.25892 -0.29778,-0.44213c-0.2585,-0.68041 -0.28829,-1.36575 0.12067,-2.08694c0.07265,-0.13348 0.16404,-0.24098 0.23669,-0.37448c0.0457,-0.05372 0.08935,-0.08107 0.0539,-0.15946c-0.1227,-0.02374 -0.25362,0.05825 -0.39714,0.03496c-0.1643,-0.02284 -0.33271,0.00718 -0.50111,0.03718c-0.54477,0.0645 -1.07489,0.20787 -1.60707,0.37765c-0.95422,0.25803 -1.86043,0.69971 -2.73329,1.24621c-0.15377,0.10885 -0.28882,0.24368 -0.47802,0.27414c-0.1892,0.03047 -0.27032,0.00582 -0.33706,-0.2038c-0.05211,-0.13079 -0.06265,-0.26248 -0.0711,-0.42061c-0.01489,-0.34268 -0.00693,-0.71223 0.01976,-1.0558c0.05752,-0.74 0.17331,-1.42846 0.29115,-2.14339c0.0724,-0.39732 0.14684,-0.82107 0.26289,-1.24572c0.21744,-0.92812 0.516,-1.83163 0.83333,-2.70913c0.13478,-0.39865 0.29037,-0.79779 0.50626,-1.17182c0.07061,-0.10706 0.14324,-0.24054 0.2326,-0.3216c0.13502,-0.13484 0.2598,-0.13752 0.37429,-0.00808c0.03954,0.02553 0.05621,0.07794 0.11859,0.07659c0.30625,0.60024 0.68107,1.11983 1.12442,1.55881c0.44335,0.43898 0.95115,0.85017 1.46303,1.20851c0.49315,0.33236 1.03611,0.55812 1.58319,0.731c0.40562,0.12318 0.83408,0.21948 1.23969,0.34267c0.14146,0.0497 0.26416,0.07344 0.4056,0.12317c0.38689,0.09719 0.79662,0.16753 1.20428,0.26426c0.40767,0.09673 0.81741,0.16707 1.22302,0.29025c0.34529,0.09809 0.71546,0.14286 1.0795,0.26695c0,0 0.02286,-0.02689 0.06444,-0.02778c0.02695,-0.07974 0.0539,-0.15948 0.08292,-0.26563c0.03106,-0.13259 0.11834,-0.18723 0.22642,-0.24234c0.13091,-0.08196 0.27237,-0.03226 0.39919,-0.06136c0.06854,-0.08066 0.07265,-0.13351 0.05802,-0.21232c-0.05829,-0.05152 -0.13941,-0.07614 -0.21847,-0.1272c-0.21642,-0.15364 -0.18766,-0.52364 0.03261,-0.68671c0.28471,-0.19082 0.7735,-0.06944 0.93394,0.27011c0.0896,0.18275 0.03363,0.36865 -0.1222,0.50393c-0.08935,0.08107 -0.19743,0.13619 -0.30139,0.13843c-0.04158,0.00087 -0.10191,-0.0242 -0.14968,0.056c-0.02695,0.07971 -0.01232,0.15855 0.04802,0.18366c0.14146,0.0497 0.26006,0.12629 0.3766,0.22933c0.2141,-0.08376 0.42001,-0.06184 0.62793,-0.06632c0.02695,-0.07971 0.07061,-0.10706 0.03517,-0.18544c-0.03954,-0.02553 -0.07908,-0.05106 -0.11859,-0.07659c-0.03748,-0.05198 -0.09783,-0.07705 -0.13528,-0.12899c-0.09783,-0.07705 -0.12707,-0.23472 -0.07523,-0.36776c0.04981,-0.10659 0.1163,-0.16083 0.20358,-0.21545c0.19538,-0.10975 0.40333,-0.11423 0.60303,-0.01301c0.17893,0.10167 0.24981,0.25846 0.2937,0.49498c-0.12657,0.29295 -0.12657,0.29295 -0.49444,0.48556zM349.11651,458.62023c-0.08703,0.31848 -0.15119,0.61008 -0.23822,0.92857c0.23103,0.23248 0.51804,0.27905 0.81327,0.21994c0.04363,-0.02735 0.08729,-0.05467 0.11424,-0.1344c0.02902,-0.10615 0.06008,-0.23875 0.09115,-0.37133c0.02901,-0.10616 0.08087,-0.23921 0.11193,-0.37179c0.00205,-0.02642 0.00615,-0.0793 -0.03338,-0.10483c-0.03335,-0.10482 -0.12064,-0.05016 -0.20383,-0.04837c-0.22873,0.00494 -0.42846,-0.09629 -0.65515,-0.11779zM346.45898,456.48765c-0.03954,-0.02553 -0.05829,-0.05152 -0.05417,-0.10437c0.00615,-0.0793 0.04981,-0.10659 0.09139,-0.10752c0.12478,-0.00269 0.22669,0.0215 0.34938,0.04524c0.0208,-0.00046 0.0208,-0.00046 0.07265,-0.13351c-0.18304,-0.04882 -0.36606,-0.09764 -0.56991,-0.146c-0.34733,-0.07166 -0.67389,-0.14378 -1.02328,-0.18902c-0.287,-0.04658 -0.59892,-0.03987 -0.90033,0.09856c-0.17045,0.05646 -0.21409,0.08378 -0.35119,0.24504c0.40766,0.09673 0.81533,0.19348 1.223,0.29024c0.2267,0.02147 0.44926,0.09584 0.67183,0.17019c0.18307,0.04882 0.34529,0.09809 0.52834,0.14692c0.02079,-0.00046 0.06444,-0.02778 0.10603,-0.02868c-0.03543,-0.07838 -0.05211,-0.13077 0.03517,-0.18544c0.06032,0.02507 0.1227,0.02374 0.18304,0.04882c0.04775,-0.08017 0.02901,-0.10616 -0.01053,-0.13169c-0.07701,-0.07751 -0.16018,-0.07572 -0.2662,-0.04703c-0.03954,-0.02553 -0.06034,-0.02508 -0.08524,0.02822zM349.74808,455.83629c-0.11605,0.42464 -0.23207,0.84928 -0.32937,1.2999c-0.00413,0.05288 -0.02903,0.10617 0.0064,0.18457c0.28495,0.07302 0.59275,0.11914 0.92137,0.16482c0.11373,-0.66206 0.24825,-1.32455 0.44311,-1.96199c-0.01463,-0.07884 -0.05417,-0.10437 -0.11451,-0.12944c-0.26417,-0.07346 -0.53037,-0.12047 -0.81534,-0.19351c-0.03722,0.21189 -0.11398,0.39822 -0.10757,0.58278c-0.00205,0.02642 -0.02283,0.02686 -0.00411,0.05285zM338.11772,447.35391c0.12451,-0.26653 0.24696,-0.50662 0.38816,-0.72074c0.04365,-0.02732 0.04775,-0.08017 0.01027,-0.13215c-0.04159,0.0009 -0.08729,0.05467 -0.11219,0.10796c-0.18894,0.29428 -0.35915,0.61457 -0.46904,0.95993c-0.19921,0.42643 -0.31524,0.85107 -0.45208,1.27619c-0.143,0.50435 -0.28396,0.98232 -0.42696,1.48669c-0.11809,0.45108 -0.21538,0.9017 -0.3127,1.35233c-0.11168,0.63561 -0.18175,1.27034 -0.25183,1.90508c-0.0434,0.29116 -0.10758,0.58276 -0.10937,0.87302c-0.01232,0.15858 -0.00592,0.34314 0.0005,0.52768c-0.00615,0.0793 0.00848,0.15813 0.04391,0.23653c0.03542,0.07838 0.09781,0.07702 0.16429,0.02284c0.03107,-0.13259 -0.04594,-0.2101 -0.05647,-0.34179c0.00822,-0.10573 -0.00232,-0.23742 -0.01281,-0.36909c0.00822,-0.10573 0.01642,-0.21143 0.02669,-0.3436c0.00822,-0.1057 0.01849,-0.23784 0.10783,-0.31892c0.06444,-0.02778 0.10192,0.02417 0.09576,0.10345c0.00848,0.15813 -0.00179,0.29027 -0.01411,0.44884c-0.01439,0.18499 -0.03081,0.39643 0.01307,0.63295c0.08729,-0.05467 0.11424,-0.1344 0.10166,-0.23964c-0.0439,-0.23649 -0.02334,-0.5008 0.01593,-0.73911c0.02698,-0.07974 0.03517,-0.18544 0.06215,-0.26518c0.00205,-0.02644 0.0249,-0.05331 0.08935,-0.08107c0.12706,0.2347 -0.04108,0.52855 0.02361,0.76464c0.08935,-0.08107 0.11835,-0.18725 0.10782,-0.31894c-0.01052,-0.13169 0.0018,-0.29027 0.01209,-0.42239c0.0249,-0.05331 0.03106,-0.13259 0.07471,-0.15991c0.0208,-0.00046 0.04363,-0.02735 0.0208,-0.00046c-0.00412,0.05285 0.01052,0.13169 0.00436,0.21096c0.10396,-0.00225 0.13091,-0.08199 0.1163,-0.16083c0.1037,-0.26607 0.18869,-0.55815 0.27366,-0.85018c0.11193,-0.37179 0.22388,-0.74357 0.31706,-1.14135c0.24646,-1.0343 0.45133,-2.06769 0.59382,-3.09973c0.00822,-0.10573 0.01643,-0.21143 0.02467,-0.31715c-0.12272,-0.02371 -0.13941,-0.07614 -0.1104,-0.1823c0.03107,-0.13259 0.08088,-0.23919 0.13068,-0.3458c0.02695,-0.07974 0.05186,-0.13305 -0.00436,-0.21096c-0.13913,0.18769 -0.20126,0.45286 -0.33836,0.61411c-0.08113,-0.02463 -0.07497,-0.10391 -0.04802,-0.18366c0.0788,-0.21276 0.15559,-0.39911 0.25315,-0.5859c0.02695,-0.07971 0.07675,-0.18633 0.12451,-0.26653c0.02695,-0.07974 0.0331,-0.15901 -0.00026,-0.26381c-0.09345,0.13392 -0.14326,0.24054 -0.19513,0.37357c-0.07265,0.13348 -0.12451,0.26653 -0.19717,0.40001c-0.05186,0.13305 -0.06213,0.26518 -0.17227,0.34671c-0.1227,-0.02374 -0.05005,-0.15725 -0.06467,-0.23607c0.09139,-0.10752 0.12451,-0.26653 0.15147,-0.34626zM338.86427,447.3642c0.00488,0.73865 -0.07343,1.47908 -0.21411,2.22088c-0.11579,0.68848 -0.27111,1.35142 -0.42643,2.01438c-0.25468,1.14002 -0.63002,2.22986 -1.14679,3.26997c-0.00205,0.02644 -0.00412,0.05285 -0.02695,0.07974c0.03748,0.05195 0.08316,-0.00179 0.12683,-0.02914c0.5196,-0.27503 1.01841,-0.54963 1.51516,-0.7978c0.49265,-0.1953 0.98322,-0.36418 1.49255,-0.50708c0.31807,-0.08602 0.61126,-0.11871 0.92932,-0.20472c0.44489,-0.11514 0.90238,-0.12501 1.33701,-0.10799c0.10396,-0.00225 0.18715,-0.00403 0.27649,-0.08509c0.30959,-0.24413 0.64848,-0.33059 1.00608,-0.39108c0.35967,-0.08691 0.73601,-0.12141 1.08542,-0.07618c0.39098,0.04434 0.77991,0.11511 1.18963,0.18542c0.59275,0.11914 1.16474,0.23876 1.75545,0.38431c0.53037,0.12047 1.05869,0.2674 1.58906,0.38789c0.75501,0.1684 1.48718,0.36369 2.24218,0.53212c0.44721,0.12226 0.89851,0.19169 1.36652,0.31353c0.28496,0.07299 0.56991,0.146 0.85487,0.21901c0.08113,0.02466 0.1643,0.02284 0.28703,0.0466c0.01438,-0.185 -0.01695,-0.31626 -0.08985,-0.4466c-0.17918,-0.3655 -0.402,-0.70369 -0.69338,-0.96125c-0.29136,-0.25755 -0.59096,-0.40941 -0.91135,-0.56078c-0.73859,-0.37985 -1.51233,-0.57424 -2.25913,-0.84837c-0.54708,-0.17291 -1.09825,-0.29294 -1.64738,-0.4394c-0.87771,-0.19214 -1.75543,-0.38429 -2.6311,-0.60287c-0.55117,-0.12006 -1.10029,-0.2665 -1.6494,-0.41296c-0.67184,-0.17021 -1.36447,-0.33998 -2.03012,-0.58947c-0.28291,-0.09943 -0.54091,-0.25216 -0.79892,-0.40491c-0.4182,-0.22845 -0.78453,-0.58992 -1.17577,-0.8981c-0.23518,-0.1796 -0.44747,-0.3861 -0.65567,-0.64547c-0.18945,-0.23335 -0.35606,-0.49361 -0.54348,-0.75341c-0.03746,-0.05197 -0.07494,-0.10394 -0.13118,-0.18187c-0.04981,0.10659 -0.03517,0.18544 -0.02259,0.29073zM355.98634,455.7018c-0.18098,-0.07523 -0.38481,-0.12363 -0.58866,-0.17199c-0.38687,-0.09719 -0.79455,-0.19393 -1.18142,-0.29112c-0.755,-0.16842 -1.5308,-0.33637 -2.28581,-0.5048c-0.59071,-0.14557 -1.18141,-0.29115 -1.77213,-0.43672c-0.34733,-0.07166 -0.69263,-0.16975 -1.03996,-0.24142c-0.22669,-0.0215 -0.44721,-0.12226 -0.67184,-0.17021c-0.71546,-0.14286 -1.42889,-0.31217 -2.1631,-0.48102c-0.30782,-0.04613 -0.61355,-0.11869 -0.92137,-0.16482c-0.63846,-0.0654 -1.27897,-0.10436 -1.93798,0.09453c-0.44695,0.14155 -0.80429,0.46588 -1.09079,0.94698c-0.49625,0.77583 -0.25598,1.95793 0.19355,2.31761c0.31216,0.25713 0.66798,0.48691 1.05281,0.61054c0.50752,0.14734 1.03588,0.29427 1.56829,0.38832c0.5137,0.06808 1.02533,0.16259 1.55778,0.25667c0.38892,0.07076 0.79865,0.14108 1.18553,0.23827c0.38892,0.07077 0.79659,0.16752 1.18347,0.26471c0.65104,0.17066 1.32904,0.26158 2.00703,0.35249c0.1435,0.02329 0.30984,0.01971 0.45542,0.01656c0.04159,-0.0009 0.06236,-0.00133 0.10603,-0.02868c0.06648,-0.05418 0.11424,-0.13438 0.14324,-0.24054c0.00616,-0.07929 -0.03131,-0.13126 -0.08957,-0.18278c-0.09783,-0.07702 -0.21642,-0.15361 -0.33914,-0.17736c-0.4513,-0.06941 -0.89646,-0.21813 -1.36857,-0.28709c-0.47211,-0.069 -0.92137,-0.16482 -1.39142,-0.26023c-0.24542,-0.04749 -0.51163,-0.09453 -0.75707,-0.14199c-0.22463,-0.04795 -0.44926,-0.09586 -0.67389,-0.14378c-0.46799,-0.12184 -0.95883,-0.2168 -1.42272,-0.39148c-0.34325,-0.12451 -0.6947,-0.14333 -1.03999,-0.24142c-0.30575,-0.07253 -0.63229,-0.14465 -0.93597,-0.24366c-0.22463,-0.04793 -0.40153,-0.17603 -0.57634,-0.33055c-0.35377,-0.25623 -0.43333,-0.83495 -0.21127,-1.28828c0.09962,-0.21322 0.23464,-0.34804 0.38842,-0.45689c0.23901,-0.13708 0.49675,-0.24819 0.76707,-0.25401c0.50111,-0.03718 0.99608,0.00491 1.48897,0.07343c0.22463,0.04793 0.47416,0.04255 0.69879,0.09048c0.32654,0.07211 0.65515,0.11779 0.98375,0.16349c0.38892,0.07076 0.75912,0.11555 1.14804,0.1863c0.49086,0.09496 1.00043,0.21589 1.48717,0.36372c0.44721,0.12226 0.91726,0.21767 1.38526,0.33949c0.22463,0.04795 0.45129,0.06944 0.67389,0.14378c0.26622,0.04703 0.53242,0.09407 0.79659,0.16752c0.61355,0.11869 1.223,0.29024 1.83247,0.46178c0.36606,0.09764 0.73217,0.19528 1.11698,0.31892c0.12246,-0.2401 0.20126,-0.45286 0.23848,-0.66474zM344.8319,455.52012c0.25156,-0.0318 0.48031,-0.03673 0.7029,0.03762c0,0 0.02286,-0.02686 0.04362,-0.02732c-0.13144,-0.44569 -0.09831,-0.60472 0.22771,-1.06027c-0.03543,-0.07838 -0.09987,-0.05061 -0.16018,-0.07569c-0.49496,-0.04209 -0.98785,-0.11064 -1.50772,-0.09942c-0.12476,0.00266 -0.27444,0.05867 -0.40127,0.08781c-0.17045,0.05646 -0.32424,0.1653 -0.45927,0.30013c-0.09137,0.10749 -0.16404,0.24098 -0.17636,0.39957c-0.02259,0.29073 0.04211,0.52676 0.21692,0.68132c0.13528,0.12899 0.3163,0.20425 0.49521,0.30593c0.28445,-0.45465 0.66286,-0.51558 1.01843,-0.54964zM350.6992,456.68645c0.07909,0.05107 0.16021,0.07569 0.24131,0.10034c0.45338,0.04299 0.87772,0.19214 1.27511,0.42102c0.46338,-0.35298 0.59816,-0.75163 0.41461,-1.32813c-0.24337,-0.0739 -1.40604,-0.33906 -1.65352,-0.36011c-0.09318,0.39778 -0.18433,0.76911 -0.27752,1.16688zM350.15672,459.12547c0.13734,0.10258 0.28289,0.09946 0.42641,0.12272c0.36813,0.07123 0.71753,0.11646 1.09389,0.08196c0.25158,-0.0318 0.44695,-0.14155 0.65256,-0.38344c0.20769,-0.2683 0.2652,-1.00831 -0.00744,-1.23988c-0.07908,-0.05106 -0.13733,-0.10258 -0.19561,-0.1541c-0.35582,-0.22978 -0.71984,-0.35387 -1.12957,-0.42417c-0.10191,-0.0242 -0.22052,-0.10079 -0.37019,-0.04481c-0.03106,0.13259 -0.06417,0.2916 -0.0973,0.45063c0.11859,0.07659 0.26417,0.07346 0.40562,0.12318c0.18508,0.02238 0.34733,0.07166 0.53037,0.12047c0.1435,0.02329 0.28085,0.12587 0.3974,0.22891c0.25183,0.23202 0.10474,0.78924 -0.15506,0.92678c-0.04365,0.02732 -0.1081,0.05509 -0.17046,0.05642c-0.12475,0.00269 -0.24953,0.0054 -0.37224,-0.01835c-0.287,-0.04658 -0.57608,-0.06673 -0.86308,-0.11331c-0.01875,-0.02599 -0.04159,0.0009 -0.08319,0.00179c-0.00615,0.0793 -0.03311,0.15904 -0.06213,0.26518zM354.0363,456.21876c-0.11859,-0.07659 -0.89236,-0.27098 -1.13984,-0.29203c0.0647,0.23606 0.08574,0.49944 -0.01796,0.76551c-0.08088,0.23919 -0.18254,0.47885 -0.38201,0.64145c0.06881,0.18321 0.14171,0.31356 0.18973,0.4972c0.05005,0.15725 0.05647,0.34179 0.04004,0.55321c0.71291,-0.35838 1.33366,-1.40072 1.31005,-2.16534zM349.1879,457.16756c0.11372,-0.66206 0.35016,-1.30036 0.48265,-1.93646c-0.01463,-0.07884 -0.05623,-0.07793 -0.09577,-0.10346c-0.26622,-0.04703 -0.55118,-0.12004 -0.83613,-0.19306c0,0 -0.0208,0.00046 -0.06444,0.02778c-0.1366,0.68894 -0.35632,1.37965 -0.49498,2.09503c0.18098,0.07523 0.79455,0.19393 0.96091,0.19032c0.00205,-0.02642 0.0249,-0.05331 0.04775,-0.08017zM347.95051,457.0623c0.0724,-0.39732 0.1407,-0.74177 0.25262,-1.11356c0.08908,-0.34493 0.19896,-0.69027 0.24852,-1.06074c-0.18098,-0.07526 -0.73217,-0.19528 -0.98375,-0.16349c-0.06829,0.34447 -0.15738,0.6894 -0.22771,1.06027c-0.06829,0.34447 -0.19897,0.69027 -0.22977,1.08673c0.32654,0.07211 0.61354,0.11866 0.94011,0.19078zM348.91063,458.59827c-0.36606,-0.09764 -0.69468,-0.14332 -1.06283,-0.21453c-0.06213,0.26518 -0.10345,0.52991 -0.20513,0.76956c0.26031,0.39015 0.61176,0.40896 1.01097,0.34757c0.08703,-0.31848 0.17201,-0.61054 0.25698,-0.90261zM346.47717,458.12306c-0.42641,-0.12272 -0.87771,-0.19214 -1.32903,-0.26156c-0.4513,-0.06941 -0.85488,-0.21905 -1.34572,-0.31399c0.13118,0.18187 0.24978,0.25846 0.36838,0.33506c0.19768,0.12766 0.44105,0.20156 0.68443,0.27545c0.44718,0.12229 0.89645,0.21813 1.36651,0.31353c0.03954,0.02553 0.10396,-0.00225 0.16634,-0.00358c0.04981,-0.10659 0.07883,-0.21278 0.08908,-0.34493zM347.66274,458.36133c-0.2621,-0.09988 -0.71137,-0.19572 -0.96091,-0.19035c-0.06008,0.23877 -0.0973,0.45066 -0.15943,0.7158c0.22692,0.28535 0.54295,0.22576 0.87156,0.27146c0.10371,-0.26609 0.16584,-0.53126 0.24877,-0.79691zM356.52906,455.6637c-0.0434,0.29116 -0.08885,0.60877 -0.23416,0.87573c0.13326,0.15543 0.28933,0.28396 0.47032,0.35923c0.28034,-0.4018 0.37968,-0.87887 0.28779,-1.29902c-0.20588,-0.02196 -0.20588,-0.02196 -0.52397,0.06404zM346.39351,455.46008c0.17252,-0.08286 0.2431,-0.18992 0.22001,-0.42688c-0.02311,-0.23696 -0.21462,-0.4439 -0.46619,-0.41209c-0.23079,0.03138 -0.41358,0.24638 -0.43412,0.51066c-0.00822,0.10573 0.02721,0.18411 0.08342,0.26205c0.09577,0.10346 0.23518,0.1796 0.40358,0.14958c0.04158,-0.00087 0.12682,-0.02911 0.19331,-0.08332zM351.72793,451.73046c-0.21232,-0.20653 -0.45363,-0.30683 -0.72601,-0.27458c-0.14555,0.00312 -0.1684,0.03001 -0.20358,0.21545c-0.0249,0.05331 -0.02695,0.07974 -0.03313,0.15904c0.32244,0.12496 0.62409,0.25038 0.96939,0.34849c0.10166,-0.23964 0.08498,-0.29208 -0.00668,-0.44838zM346.61841,455.77185c0.12272,0.02374 0.22463,0.04793 0.36609,0.09765c0.09318,-0.39778 0.18433,-0.76911 0.25672,-1.16643c-0.15813,-0.10212 -0.32654,-0.07211 -0.48879,-0.12139c-0.04981,0.10659 0.01053,0.13169 0.02721,0.18411c0.13759,0.36639 0.09627,0.63113 -0.2195,0.95455c0.03954,0.02553 0.03748,0.05198 0.05826,0.05152zM348.42728,451.19479c0.32449,0.09855 0.67183,0.17021 0.99633,0.26877c0.09139,-0.10752 0.07676,-0.18636 0.08498,-0.29208c-0.03543,-0.07838 -0.11656,-0.10301 -0.19564,-0.15407c-0.2331,-0.20607 -0.52626,-0.17335 -0.8007,-0.11467c-0.09139,0.10752 -0.07676,0.18636 -0.08498,0.29206zM349.65029,451.48501c0.1353,0.12902 0.28085,0.12587 0.4223,0.1756c0.12067,0.05016 0.26006,0.12629 0.42641,0.12272c0.0914,-0.10752 0.11837,-0.18725 0.0434,-0.29116c-0.20409,-0.3122 -0.46415,-0.43852 -0.80507,-0.32564c0,0 0,0 -0.02284,0.02689c-0.00616,0.07929 -0.01439,0.18499 -0.06419,0.2916zM349.53453,450.03641c0.00822,-0.10573 -0.04802,-0.18366 -0.10628,-0.23516c-0.1353,-0.12902 -0.32038,-0.1514 -0.51165,-0.09451c-0.06444,0.02778 -0.11014,0.08153 -0.13709,0.16124c-0.00616,0.07929 0.03131,0.13126 0.07084,0.15679c0.03954,0.02553 0.07909,0.05107 0.11862,0.0766c0.06237,-0.00136 0.08727,-0.05467 0.11216,-0.10798c0.02491,-0.0533 0.04982,-0.10659 0.11014,-0.08153c0.06238,-0.00133 0.07908,0.05106 0.09369,0.1299c-0.00411,0.05288 -0.02695,0.07974 0.01053,0.13172c0.14555,-0.00315 0.14555,-0.00315 0.23901,-0.13708zM351.43373,450.70783c0.06444,-0.02778 0.07676,-0.18636 0.19946,-0.16262c0.06034,0.02508 0.02928,0.15768 0.10631,0.23515c0.0811,0.02466 0.16634,-0.00358 0.23694,-0.11064c-0.00847,-0.15811 -0.08753,-0.20917 -0.1874,-0.2598c-0.13941,-0.07614 -0.28703,-0.0466 -0.4408,0.06225c-0.0082,0.10573 -0.01642,0.21143 0.0855,0.23563zM350.56604,450.11969c-0.16225,-0.04928 -0.30783,-0.04613 -0.44697,0.14155c0.03338,0.10483 0.11451,0.12944 0.19563,0.1541c0.06444,-0.02778 0.05596,-0.1859 0.15786,-0.16172c0.10396,-0.00225 0.09369,0.1299 0.10832,0.20874c0.05829,0.05152 0.12272,0.02374 0.21,-0.03089c-0.00434,-0.21099 -0.10218,-0.28803 -0.22488,-0.31177zM356.288,455.82721c0.02901,-0.10616 0.06213,-0.26518 -0.07729,-0.34132c-0.05597,0.1859 -0.04955,0.37046 -0.10552,0.55636c-0.0539,0.15946 -0.13068,0.3458 -0.21153,0.58501c0.28675,-0.21727 0.33013,-0.50841 0.39433,-0.80003z" fill="#c59b31"/><path d="M339.01805,447.25534c0.16662,0.26022 0.35403,0.52005 0.54348,0.75341c0.1874,0.2598 0.42048,0.46587 0.65567,0.64547c0.39124,0.30819 0.75961,0.64324 1.17577,0.8981c0.25801,0.15273 0.516,0.30547 0.79892,0.40491c0.66772,0.22306 1.33956,0.39327 2.03012,0.58947c0.54913,0.14646 1.1003,0.2665 1.6494,0.41296c0.87772,0.19214 1.75545,0.38429 2.6311,0.60287c0.55118,0.12004 1.10235,0.24009 1.64738,0.4394c0.7676,0.27368 1.54133,0.46806 2.25913,0.84837c0.32036,0.15137 0.64075,0.30277 0.91135,0.56078c0.29138,0.25756 0.49341,0.59621 0.69338,0.96125c0.05415,0.1044 0.08344,0.26206 0.08985,0.4466c-0.10396,0.00225 -0.20588,-0.02194 -0.28703,-0.0466c-0.28496,-0.07299 -0.56991,-0.146 -0.85487,-0.21901c-0.44721,-0.12229 -0.89851,-0.19172 -1.36652,-0.31353c-0.755,-0.16842 -1.48922,-0.33727 -2.24218,-0.53212c-0.53037,-0.12047 -1.05869,-0.2674 -1.58906,-0.38789c-0.57197,-0.1196 -1.16268,-0.26517 -1.75545,-0.38431c-0.38895,-0.07077 -0.77787,-0.14154 -1.18963,-0.18542c-0.35146,-0.01879 -0.7278,0.01571 -1.08542,0.07618c-0.35761,0.06049 -0.69649,0.14694 -1.00608,0.39108c-0.08729,0.05464 -0.17252,0.08286 -0.27649,0.08509c-0.45542,-0.01656 -0.8921,-0.00716 -1.33701,0.10799c-0.31601,0.05958 -0.61126,0.11871 -0.92932,0.20472c-0.50933,0.14288 -0.99787,0.28535 -1.49255,0.50708c-0.51344,0.19576 -1.0143,0.49681 -1.53391,0.77181c-0.04569,0.05376 -0.08935,0.08109 -0.12683,0.02914c0.00205,-0.02644 0.00412,-0.05285 0.02695,-0.07974c0.51679,-1.0401 0.89213,-2.12994 1.1468,-3.26997c0.15532,-0.66293 0.31065,-1.32589 0.42643,-2.01438c0.14068,-0.74179 0.23977,-1.48269 0.21411,-2.22088c0.00615,-0.0793 -0.00848,-0.15813 0.04133,-0.26474c0.05829,0.05152 0.09372,0.1299 0.13118,0.18187zM351.70839,453.0501c0.28084,0.12584 0.56373,0.2253 0.84049,0.40402c0.23721,0.15319 0.45157,0.33325 0.66387,0.53974c0.09783,0.07705 0.17482,0.15455 0.27468,0.20516c0.03954,0.02553 0.08524,-0.02822 0.11014,-0.08153c-0.10628,-0.23516 -0.29984,-0.41568 -0.47466,-0.57021c-0.31011,-0.28354 -0.66798,-0.48691 -1.05076,-0.63696c-0.18098,-0.07526 -0.36197,-0.15049 -0.5658,-0.19889c-0.06034,-0.02508 -0.12478,0.00269 -0.17663,0.13573c0.11451,0.12944 0.25801,0.15273 0.37866,0.20292zM352.22261,453.64582c0.03954,0.02553 0.07701,0.07751 0.11655,0.10304c0.19767,0.12765 0.41408,0.2813 0.58685,0.46226c0.01875,0.02599 0.03748,0.05198 0.07701,0.07751c0.03954,0.02553 0.08113,0.02463 0.12683,-0.02914c0.04365,-0.02732 0.00616,-0.07929 -0.01052,-0.13169c-0.01875,-0.02599 -0.03748,-0.05198 -0.07701,-0.07751c-0.21232,-0.2065 -0.42872,-0.36014 -0.68672,-0.51287c-0.03954,-0.02553 -0.08113,-0.02466 -0.10191,-0.0242c-0.0208,0.00046 -0.0457,0.05375 -0.07061,0.10706c-0.00205,0.02644 -0.00411,0.05285 0.03954,0.02553zM351.70251,453.3932c0.07701,0.07751 0.15403,0.15498 0.28083,0.12587c0.04161,-0.0009 0.06856,-0.08062 0.05188,-0.13305c-0.07292,-0.13036 -0.21232,-0.2065 -0.32244,-0.12496c-0.02286,0.02686 -0.0249,0.05331 -0.04775,0.08017c0.01874,0.02599 0.01667,0.05242 0.03748,0.05198zM351.04657,452.48389c-0.09781,-0.07702 -0.26621,-0.047 -0.29318,0.03271c-0.00205,0.02644 -0.00615,0.0793 0.01259,0.10527c0.03543,0.07838 0.11859,0.07659 0.19975,0.10122c0.03954,0.02553 0.10396,-0.00225 0.13091,-0.08196c0.00413,-0.05288 -0.01463,-0.07884 -0.05006,-0.15725zM350.28748,452.36834c-0.04159,0.0009 -0.0457,0.05375 -0.02695,0.07974c0.01874,0.02599 0.03748,0.05195 0.05622,0.07792c0.06034,0.02511 0.12066,0.05019 0.1684,-0.03001c0.04161,-0.00087 0.04365,-0.02732 0.02696,-0.07971c-0.03338,-0.10483 -0.07496,-0.10394 -0.1602,-0.07572c0,0 -0.02079,0.00046 -0.06444,0.02778z" fill="#ffc941"/><path d="M354.57259,455.99612c-0.58866,-0.17199 -1.22094,-0.31668 -1.83247,-0.46178c-0.2662,-0.04703 -0.53242,-0.09407 -0.79659,-0.16752c-0.22461,-0.04794 -0.44926,-0.09586 -0.67388,-0.14378c-0.44926,-0.09586 -0.91726,-0.21769 -1.38526,-0.33952c-0.48675,-0.14782 -0.97554,-0.26919 -1.48717,-0.36372c-0.36814,-0.0712 -0.75912,-0.11555 -1.14805,-0.1863c-0.32858,-0.0457 -0.6572,-0.09137 -0.98375,-0.16349c-0.22462,-0.04791 -0.47416,-0.04253 -0.69878,-0.09047c-0.49496,-0.04209 -0.98786,-0.11061 -1.48898,-0.07343c-0.27032,0.00582 -0.52602,0.09049 -0.76707,0.25401c-0.15377,0.10885 -0.28882,0.24368 -0.38842,0.45689c-0.22,0.42689 -0.12168,1.0316 0.21127,1.28828c0.17688,0.12811 0.37454,0.25577 0.57634,0.33055c0.30371,0.09901 0.60946,0.17157 0.936,0.24366c0.34529,0.09809 0.69672,0.1169 1.03996,0.24142c0.46389,0.1747 0.93394,0.27011 1.42273,0.39149c0.22462,0.04791 0.44926,0.09586 0.67388,0.14378c0.24543,0.04749 0.51165,0.09451 0.75708,0.142c0.47209,0.06897 0.9193,0.19124 1.39141,0.26022c0.4513,0.06941 0.89851,0.19169 1.36858,0.28711c0.1227,0.02374 0.24131,0.10034 0.33911,0.17739c0.06034,0.02508 0.09576,0.10345 0.0896,0.18275c-0.00822,0.1057 -0.05597,0.1859 -0.14326,0.24054c-0.04363,0.02735 -0.06444,0.02781 -0.10603,0.02868c-0.14555,0.00315 -0.3119,0.00673 -0.45542,-0.01656c-0.6572,-0.09135 -1.33519,-0.18228 -2.00702,-0.35248c-0.38687,-0.09719 -0.79659,-0.16752 -1.18347,-0.26471c-0.38689,-0.09719 -0.77582,-0.16795 -1.18554,-0.23827c-0.5137,-0.06808 -1.02533,-0.16259 -1.55777,-0.25667c-0.5345,-0.06761 -1.03996,-0.24142 -1.56831,-0.38832c-0.38687,-0.09719 -0.7219,-0.32743 -1.0528,-0.61051c-0.44951,-0.35971 -0.68981,-1.54181 -0.19356,-2.31764c0.30525,-0.4551 0.64385,-0.80543 1.09082,-0.94696c0.65899,-0.19888 1.29949,-0.15993 1.93796,-0.09455c0.30987,0.01968 0.61561,0.09226 0.92137,0.16482c0.71547,0.14287 1.44968,0.31174 2.16312,0.48106c0.22462,0.04791 0.44721,0.12226 0.67183,0.17019c0.34733,0.07166 0.69467,0.14334 1.03996,0.24142c0.58866,0.17199 1.18141,0.29115 1.77213,0.43672c0.755,0.16842 1.53083,0.33637 2.28584,0.5048c0.40974,0.07031 0.79455,0.19393 1.18142,0.29112c0.18304,0.04882 0.38892,0.07077 0.58866,0.17199c0.02104,0.26341 -0.05776,0.47616 -0.18022,0.71626c-0.38481,-0.12363 -0.77169,-0.22083 -1.17527,-0.37042zM344.0022,453.37453c-0.1227,-0.02374 -0.22667,-0.0215 -0.35349,0.00764c-0.40331,0.11421 -0.81277,0.30774 -1.15139,0.65802c-0.11424,0.1344 -0.2077,0.26833 -0.22413,0.47976c-0.00412,0.05285 -0.01027,0.13215 0.05005,0.15722c0.06034,0.02511 0.10399,-0.00224 0.13094,-0.08195c0.17842,-0.426 0.50267,-0.59129 0.8061,-0.75614c0.19535,-0.10975 0.40537,-0.14068 0.6174,-0.19801c0.08524,-0.02822 0.17048,-0.05644 0.25981,-0.13752c-0.01259,-0.10524 -0.07292,-0.13036 -0.13531,-0.12899zM344.71768,453.5174c0.12478,-0.00269 0.21206,-0.05733 0.19538,-0.10975c-0.01259,-0.10524 -0.09783,-0.07702 -0.1561,-0.12854c-0.09984,-0.0506 -0.20794,0.00448 -0.31601,0.05958c-0.02286,0.02689 -0.0665,0.05421 -0.04981,0.10659c0.01874,0.02599 0.0354,0.07841 0.05621,0.07794c0.08112,0.02463 0.1435,0.02329 0.18508,0.02238c0.06238,-0.00133 0.06238,-0.00133 0.08524,-0.02822z" fill="#ffc941"/><path d="M337.96833,447.67374c0.01259,0.10524 -0.05802,0.21231 0.02308,0.23696c0.11014,-0.08153 0.12041,-0.21366 0.19307,-0.34716c0.07265,-0.13351 0.12451,-0.26653 0.19717,-0.40001c0.07265,-0.13348 0.12246,-0.2401 0.21589,-0.37403c0.03338,0.10483 0.02721,0.18411 0.00026,0.26381c-0.04775,0.0802 -0.09756,0.18679 -0.12451,0.26655c-0.09756,0.18676 -0.19513,0.37357 -0.25315,0.5859c-0.02695,0.07971 -0.03313,0.15901 0.04802,0.18366c0.1371,-0.16126 0.19922,-0.42646 0.33836,-0.61413c0.03543,0.07838 0.00847,0.15811 -0.01643,0.21143c-0.03106,0.13259 -0.08087,0.23921 -0.10989,0.34535c-0.02901,0.10619 -0.01232,0.15858 0.15403,0.15501c-0.00819,0.1057 0.00436,0.21096 -0.02465,0.31713c-0.12375,1.05805 -0.34734,2.06545 -0.59382,3.09973c-0.09115,0.37133 -0.20308,0.74312 -0.31706,1.14135c-0.08498,0.29206 -0.14711,0.55723 -0.27366,0.85018c-0.0208,0.00046 -0.06034,-0.02508 -0.09987,-0.05061c-0.01668,-0.05239 -0.03748,-0.05198 -0.06034,-0.02508c-0.0457,0.05375 -0.07061,0.10706 -0.07471,0.15991c-0.01027,0.13215 -0.02259,0.29073 -0.01206,0.4224c0.01051,0.13172 -0.01849,0.23786 -0.10783,0.31894c-0.04184,-0.26295 0.10346,-0.52991 -0.02361,-0.76464c-0.04159,0.0009 -0.06444,0.02778 -0.08935,0.08107c-0.02695,0.07974 -0.05597,0.1859 -0.06213,0.26518c-0.04134,0.26474 -0.05984,0.50259 -0.01593,0.73911c0.01256,0.10527 -0.01439,0.18499 -0.10167,0.23964c-0.04799,-0.18364 -0.05235,-0.39464 -0.03798,-0.57964c0.01232,-0.15855 0.02259,-0.29073 0.03492,-0.44928c0.00413,-0.05288 -0.01051,-0.13172 -0.09575,-0.10347c-0.08935,0.08107 -0.09756,0.18679 -0.10783,0.31894c-0.00822,0.10573 -0.03722,0.21189 -0.02669,0.34358c-0.00822,0.10573 0.00229,0.23742 0.01281,0.36909c-0.01027,0.13215 0.08756,0.20919 0.05647,0.34179c-0.06649,0.05421 -0.14968,0.056 -0.1643,-0.02284c-0.01463,-0.07884 -0.02927,-0.15768 -0.0439,-0.23649c-0.00847,-0.15811 0.00591,-0.34312 -0.0005,-0.52768c0.02259,-0.29073 0.08677,-0.58232 0.10936,-0.87302c0.04931,-0.63428 0.1402,-1.26946 0.25186,-1.90511c0.07651,-0.45017 0.17381,-0.90079 0.29191,-1.35187c0.1222,-0.50393 0.26313,-0.98187 0.42693,-1.48671c0.13684,-0.4251 0.25286,-0.84974 0.45209,-1.27619c0.03954,0.02553 0.03335,0.10482 0.03131,0.13126zM337.498,449.45162c-0.12861,0.31938 -0.21567,0.63786 -0.30474,0.98278c-0.11605,0.42464 -0.19049,0.8484 -0.28779,1.29902c-0.00411,0.05285 -0.00616,0.07929 0.01053,0.13169c0.03954,0.02553 0.08316,-0.00179 0.10807,-0.0551c0.0249,-0.05331 0.03107,-0.13259 0.05802,-0.21232c0.09115,-0.37133 0.18228,-0.74268 0.27547,-1.14044c0.06417,-0.29162 0.14916,-0.58368 0.25289,-0.84976c0.02901,-0.10616 0.01232,-0.15855 -0.08756,-0.20919c-0.02286,0.02689 -0.0457,0.05375 -0.0249,0.05334zM337.85049,448.38864c0.10603,-0.02868 0.18278,-0.21503 0.12862,-0.3194c-0.01668,-0.05239 -0.05827,-0.05149 -0.10192,-0.02417c-0.04569,0.05376 -0.05186,0.13305 -0.05596,0.1859c-0.00616,0.07929 0.01052,0.13169 0.02927,0.15768zM336.67006,453.42708c-0.02698,0.07974 -0.03107,0.13259 0.00436,0.21096c0.01463,0.07884 0.07701,0.07751 0.10191,0.0242c0.06854,-0.08066 0.07471,-0.15993 0.03928,-0.23831c0.00205,-0.02642 -0.03954,-0.02553 -0.05826,-0.05152c-0.02286,0.02689 -0.04365,0.02735 -0.08729,0.05467zM337.832,448.62649c0.00411,-0.05288 -0.01461,-0.07887 -0.05415,-0.1044c-0.03954,-0.02553 -0.06238,0.00136 -0.08729,0.05467c-0.02286,0.02686 -0.04775,0.08017 -0.03107,0.13259c0.01875,0.02599 0.03543,0.07838 0.07909,0.05107c0.06444,-0.02778 0.08935,-0.08107 0.09343,-0.13392zM337.01507,453.26131c-0.04365,0.02732 -0.06856,0.08062 -0.07265,0.13351c-0.00411,0.05285 -0.00822,0.1057 0.05211,0.13077c0.03954,0.02553 0.10602,-0.02865 0.11218,-0.10794c0.00411,-0.05285 -0.02927,-0.15768 -0.09164,-0.15634zM336.8713,452.97418c0.00205,-0.02644 -0.01259,-0.10527 -0.07701,-0.07751c-0.04159,0.0009 -0.08935,0.08107 -0.07471,0.15991c-0.00411,0.05285 0.03335,0.10482 0.07701,0.07751c0.04159,-0.0009 0.06853,-0.08063 0.07471,-0.15991zM338.22683,448.35414c0.00413,-0.05288 -0.0354,-0.07841 -0.07701,-0.07751c-0.04159,0.0009 -0.06649,0.05421 -0.07058,0.10706c-0.00412,0.05285 0.01463,0.07884 0.05417,0.10437c0.04362,-0.02732 0.08729,-0.05464 0.09343,-0.13392z" fill="#ffc941"/><path d="M350.30411,458.83209c0.287,0.04658 0.57608,0.06673 0.86308,0.11331c0.12272,0.02374 0.24749,0.02105 0.37227,0.01835c0.04159,-0.0009 0.10603,-0.02868 0.17045,-0.05646c0.28059,-0.13798 0.40691,-0.69476 0.15506,-0.92678c-0.11655,-0.10304 -0.25595,-0.17918 -0.3974,-0.22891c-0.18508,-0.02238 -0.34733,-0.07166 -0.53037,-0.12047c-0.12064,-0.05016 -0.26622,-0.047 -0.40562,-0.12318c0.03313,-0.15901 0.06419,-0.2916 0.0973,-0.45063c0.12889,-0.05554 0.24749,0.02105 0.37019,0.04481c0.38895,0.07077 0.77376,0.19439 1.12957,0.42417c0.07908,0.05106 0.13734,0.10258 0.19561,0.1541c0.29343,0.23114 0.23594,0.97113 0.00747,1.23989c-0.18486,0.24146 -0.40101,0.35165 -0.65259,0.38347c-0.37633,0.0345 -0.72574,-0.01076 -1.09388,-0.08196c-0.14145,-0.04973 -0.28907,-0.02014 -0.42643,-0.12272c0.02698,-0.07974 0.03313,-0.15904 0.06008,-0.23877c0.04161,-0.00087 0.06238,-0.00133 0.08523,-0.02819z" fill="#fdc841"/><path d="M352.707,457.83045c-0.04799,-0.18364 -0.12092,-0.31398 -0.18971,-0.4972c0.19947,-0.1626 0.28034,-0.4018 0.382,-0.64145c0.08088,-0.23919 0.05983,-0.50256 0.01799,-0.76551c0.24748,0.02105 1.00043,0.21589 1.13984,0.29203c0.0028,0.76507 -0.61795,1.80743 -1.33086,2.1658c0.01643,-0.21143 0.01001,-0.39597 -0.01925,-0.55366zM352.97451,457.05955c0.01259,0.10527 0.07497,0.10391 0.12064,0.05019c0.13299,-0.10841 0.14737,-0.29341 0.20129,-0.45288c0.03106,-0.13259 0.02054,-0.26428 -0.09601,-0.36732c-0.14532,0.26699 -0.06394,0.55544 -0.22593,0.77001zM353.54161,456.44048c0.05829,0.05152 0.13939,0.07617 0.22052,0.10079c0.04159,-0.0009 0.08319,-0.00179 0.11014,-0.08153c0.00411,-0.05285 -0.01259,-0.10527 -0.05211,-0.13079c0,0 0.00205,-0.02642 -0.01874,-0.02596c-0.10191,-0.0242 -0.20179,-0.07481 -0.31192,0.00671c-0.00615,0.0793 0.01259,0.10524 0.05211,0.13077zM353.4692,456.83782c0.05827,0.05149 0.13735,0.10255 0.24131,0.10031c0.04158,-0.00087 0.08935,-0.08107 0.07265,-0.13348c-0.07292,-0.13036 -0.19357,-0.18054 -0.28292,-0.09945c-0.02078,0.00043 -0.02283,0.02686 -0.04567,0.05373c-0.00205,0.02644 -0.00413,0.05288 0.01461,0.07887zM353.52569,457.17957c-0.01463,-0.07884 -0.05622,-0.07792 -0.11859,-0.07659c-0.04161,0.0009 -0.08524,0.02822 -0.08935,0.08109c-0.00616,0.07926 0.05211,0.13077 0.11448,0.12944c0.04161,-0.0009 0.08936,-0.08107 0.09345,-0.13394z" fill="#fdc841"/><path d="M348.17925,457.05741c0.13866,-0.71538 0.35838,-1.40609 0.49498,-2.09503c0.0208,-0.00046 0.04362,-0.02732 0.06444,-0.02778c0.26622,0.04703 0.55118,0.12004 0.83613,0.19306c0.04159,-0.0009 0.08113,0.02463 0.09577,0.10346c-0.13249,0.63609 -0.36893,1.2744 -0.48265,1.93646c-0.02286,0.02686 -0.0249,0.05331 -0.04775,0.08017c-0.16636,0.00361 -0.77992,-0.1151 -0.96091,-0.19032zM348.65265,456.30844c0.12246,-0.2401 0.18459,-0.50529 0.26751,-0.77092c0.02695,-0.07971 -0.00849,-0.1581 -0.04596,-0.21007c-0.03954,-0.02553 -0.06034,-0.02508 -0.10396,0.00225c-0.26751,0.77089 -0.26751,0.77089 -0.24852,1.06071c0.06034,0.02511 0.10604,-0.02865 0.13094,-0.08195zM349.1227,456.40385c0.01876,0.02596 0.03954,0.02553 0.05829,0.05149c0,0 0.0208,-0.00043 0.04362,-0.02732c0.02286,-0.02686 0.0249,-0.05331 0.04775,-0.08017c0.08292,-0.26563 0.16586,-0.53126 0.23003,-0.82287c0.00411,-0.05285 0.00616,-0.07929 -0.01053,-0.13169c-0.01667,-0.05242 -0.0354,-0.07841 -0.07701,-0.07751c-0.02079,0.00046 -0.04362,0.02732 -0.06649,0.05421c0,0 -0.02286,0.02686 -0.0249,0.05331c-0.08087,0.23921 -0.143,0.50438 -0.22385,0.74358c-0.0249,0.05331 -0.02695,0.07971 -0.03107,0.13259c-0.00205,0.02642 -0.00614,0.07927 0.05417,0.10437zM349.02743,456.82803c0.00208,-0.02644 -0.01874,-0.02599 -0.03746,-0.05197c-0.0208,0.00046 -0.06238,0.00136 -0.08729,0.05467c-0.0457,0.05375 -0.07471,0.15991 -0.06008,0.23875c-0.00205,0.02644 0.01667,0.05242 0.05621,0.07794c0.04159,-0.0009 0.06444,-0.02778 0.08935,-0.08107c0.0249,-0.05331 0.02901,-0.10619 0.05393,-0.15947c-0.01875,-0.02599 -0.01464,-0.07884 -0.01464,-0.07884z" fill="#fdc841"/><path d="M347.21939,455.78526c0.06829,-0.34447 0.15944,-0.7158 0.22771,-1.06027c0.25158,-0.0318 0.78402,0.06225 0.98375,0.16349c-0.02876,0.37 -0.15943,0.7158 -0.24852,1.06071c-0.09114,0.37136 -0.15943,0.7158 -0.25262,1.11359c-0.30576,-0.07256 -0.59276,-0.11912 -0.9193,-0.19124c0.02874,-0.37 0.15943,-0.7158 0.20896,-1.08626zM347.40242,455.83409c-0.02695,0.07974 -0.05596,0.1859 -0.00179,0.29027c0.04159,-0.0009 0.08524,-0.02822 0.11014,-0.08153c0.12861,-0.31938 0.21358,-0.61143 0.26109,-0.95547c0.00616,-0.07929 -0.01052,-0.13169 -0.0896,-0.18275c-0.14529,0.26696 -0.19073,0.58455 -0.27984,0.92948zM348.06375,455.8726c0.12451,-0.26653 0.20948,-0.55856 0.21129,-0.84882c-0.06034,-0.02511 -0.10396,0.00225 -0.12886,0.05554c-0.10167,0.23964 -0.18461,0.50526 -0.20513,0.76956c0,0 -0.00207,0.02641 0.01668,0.05239c0.04159,-0.0009 0.08316,-0.00179 0.10603,-0.02868zM347.74619,456.48627c-0.02698,0.07974 0.01051,0.13172 0.07084,0.15679c0.13505,-0.13484 0.1869,-0.26788 0.14095,-0.47794c-0.14966,0.05597 -0.18073,0.18856 -0.21179,0.32115z" fill="#fdc841"/><path d="M349.70467,456.12746c-0.0539,0.15946 -0.06417,0.2916 -0.05364,0.42329c0.06032,0.0251 0.08316,-0.00179 0.10807,-0.0551c0.12657,-0.29295 0.21153,-0.58501 0.2154,-0.9017c0,0 0.00205,-0.02644 -0.01668,-0.05239c-0.03954,-0.02553 -0.06238,0.00133 -0.1081,0.05509c-0.04569,0.05376 -0.01232,0.15858 -0.09756,0.18679c0.0144,-0.18501 0.07035,-0.37091 0.06599,-0.58189c0.28495,0.07302 0.55118,0.12004 0.81534,0.19351c0.06032,0.02507 0.09984,0.0506 0.11451,0.12944c-0.17407,0.63698 -0.30859,1.29948 -0.44311,1.96199c-0.33066,-0.01926 -0.63641,-0.09184 -0.92137,-0.16482c-0.03543,-0.07841 -0.03134,-0.13126 -0.00643,-0.18457c0.09525,-0.42418 0.21335,-0.87526 0.3294,-1.29993c0.00205,-0.02642 0.02286,-0.02686 0.04567,-0.05373c0.01259,0.10524 -0.01846,0.23785 -0.04749,0.34401zM350.51515,455.58229c-0.03954,-0.02553 -0.10603,0.02868 -0.1371,0.16126c-0.06008,0.23875 -0.12016,0.47749 -0.18022,0.71624c-0.0249,0.05334 -0.02695,0.07974 -0.03106,0.13259c-0.00413,0.05288 -0.01027,0.13216 0.05006,0.15725c0.06032,0.02507 0.08521,-0.02823 0.13502,-0.13484c0.08292,-0.26563 0.16791,-0.55769 0.20719,-0.796c0.01027,-0.13215 0.01643,-0.21143 -0.0439,-0.23649zM350.22967,457.11872c0.00205,-0.02644 -0.01667,-0.05242 -0.03543,-0.07838c0.00208,-0.02644 -0.03954,-0.02553 -0.06236,0.00133c-0.06444,0.02778 -0.07061,0.10706 -0.09756,0.18679c-0.00412,0.05285 -0.00616,0.07929 0.06881,0.18321c0.11014,-0.08153 0.13913,-0.18769 0.12657,-0.29295z" fill="#fdc841"/><path d="M346.62328,456.5105c-0.08524,0.02822 -0.07061,0.10706 -0.03517,0.18544c-0.04365,0.02732 -0.06649,0.05421 -0.10604,0.02868c-0.18304,-0.04882 -0.34527,-0.09809 -0.52831,-0.14692c-0.22462,-0.04791 -0.44721,-0.12226 -0.67183,-0.17021c-0.40974,-0.07031 -0.81535,-0.19348 -1.223,-0.29024c0.13709,-0.16124 0.18072,-0.18856 0.35117,-0.24501c0.29934,-0.11199 0.59047,-0.11826 0.89828,-0.07214c0.3494,0.04521 0.67594,0.11733 1.02329,0.18899c0.18304,0.04882 0.36606,0.09764 0.56991,0.14603c-0.03107,0.13256 -0.03107,0.13256 -0.07265,0.13348c-0.1227,-0.02374 -0.22256,-0.07435 -0.3494,-0.04521c-0.04365,0.02732 -0.08523,0.02819 -0.09137,0.10749c-0.00413,0.05288 0.01463,0.07884 0.05417,0.10437c0.04158,-0.00087 0.06238,-0.00133 0.10191,0.0242c0.03954,0.02553 0.05826,0.05152 0.07908,0.05106z" fill="#fdc741"/><path d="M347.64267,459.15332c0.08088,-0.23919 0.143,-0.50438 0.20513,-0.76956c0.34733,0.07166 0.69675,0.11688 1.06283,0.21453c-0.08498,0.29208 -0.16995,0.58411 -0.25698,0.90261c-0.39919,0.06138 -0.75065,0.04257 -1.01097,-0.34757zM348.60719,458.76312c0,0 -0.01874,-0.02596 -0.03954,-0.02553c-0.04159,0.0009 -0.08729,0.05467 -0.1163,0.16083c-0.00411,0.05285 0.01259,0.10527 0.05211,0.13079c0.0208,-0.00046 0.06238,-0.00133 0.08729,-0.05467c0.02286,-0.02686 0.0249,-0.05331 0.04981,-0.10659c-0.01668,-0.05239 -0.03338,-0.10483 -0.03338,-0.10483z" fill="#fcc741"/><path d="M346.22176,458.47157c-0.44926,-0.09586 -0.92137,-0.16482 -1.36651,-0.31353c-0.22258,-0.07435 -0.46801,-0.12183 -0.68443,-0.27545c-0.11859,-0.07659 -0.23721,-0.15319 -0.36838,-0.33506c0.49084,0.09494 0.89442,0.24458 1.34572,0.31399c0.4513,0.06941 0.90262,0.13884 1.32903,0.26156c-0.01026,0.13215 -0.03722,0.21189 -0.08908,0.34493c-0.06238,0.00133 -0.12682,0.02911 -0.16634,0.00358z" fill="#f9c540"/><path d="M349.7198,458.87107c-0.06853,0.08063 -0.09962,0.21322 -0.10989,0.34535c-0.00411,0.05288 0.01463,0.07884 0.05417,0.10437c0.04161,-0.00087 0.06238,-0.00133 0.08729,-0.05464c0.09345,-0.13394 0.12451,-0.26653 0.07447,-0.42376c0.04773,-0.08017 0.10602,-0.02865 0.14965,-0.056c0.01875,0.02599 0.05829,0.05152 0.03338,0.10483c-0.02902,0.10615 -0.08088,0.23919 -0.11193,0.37179c-0.02903,0.10617 -0.06008,0.23875 -0.09115,0.37133c-0.00615,0.0793 -0.04981,0.10662 -0.11424,0.1344c-0.29522,0.05912 -0.58224,0.01253 -0.81327,-0.21994c0.08703,-0.31848 0.15119,-0.61008 0.23822,-0.92857c0.22669,0.0215 0.42643,0.12272 0.65515,0.11779c-0.00411,0.05285 -0.00615,0.0793 -0.05186,0.13305z" fill="#fcc741"/><path d="M346.52159,458.88724c0.06008,-0.23875 0.09935,-0.47706 0.15943,-0.7158c0.24954,-0.00536 0.69879,0.09048 0.96091,0.19035c-0.04133,0.26474 -0.10345,0.52991 -0.22796,0.79646c-0.33066,-0.01926 -0.64464,0.01389 -0.89236,-0.271zM347.43629,458.60368c0.00411,-0.05285 0.02695,-0.07974 0.03107,-0.13259c0.00411,-0.05285 0.00819,-0.1057 -0.05418,-0.10437c-0.06237,0.00136 -0.10807,0.0551 -0.11424,0.13438c-0.00411,0.05288 0.03134,0.13126 0.07292,0.13036c0.02079,-0.00046 0.04158,-0.00087 0.06444,-0.02778z" fill="#fbc641"/><path d="M356.78396,456.92466c-0.18098,-0.07526 -0.33911,-0.17739 -0.47029,-0.35924c0.12451,-0.26653 0.19073,-0.58455 0.23414,-0.87572c0.30139,-0.1384 0.30139,-0.1384 0.50523,-0.09003c0.06906,0.44705 -0.02826,0.89767 -0.26905,1.32501z" fill="#fbc641"/><path d="M350.74238,451.85724c0.02698,-0.07974 0.00822,-0.1057 0.03313,-0.15904c0.03517,-0.18544 0.05802,-0.21231 0.20358,-0.21545c0.27032,-0.00582 0.5137,0.06808 0.72601,0.27458c0.11655,0.10304 0.15403,0.15498 0.02952,0.42152c-0.34529,-0.09809 -0.66772,-0.22306 -0.99223,-0.32161z" fill="#fbc640"/><path d="M349.33377,451.01695c0.05829,0.05152 0.14146,0.0497 0.19561,0.15407c-0.00822,0.10573 -0.01438,0.18503 -0.08498,0.29208c-0.32449,-0.09855 -0.65104,-0.17066 -0.99631,-0.26873c-0.01259,-0.10527 -0.02721,-0.18411 0.06417,-0.29162c0.27237,-0.03226 0.54477,-0.0645 0.82149,0.11422z" fill="#f7c340"/><path d="M349.75813,451.16609c0.34093,-0.1129 0.60099,0.01342 0.80508,0.32562c0.05417,0.10437 0.02721,0.18411 -0.0434,0.29116c-0.14761,0.02956 -0.28496,-0.07299 -0.42641,-0.12272c-0.14145,-0.04973 -0.28703,-0.0466 -0.4223,-0.17557c0.00822,-0.10573 0.01642,-0.21143 0.0434,-0.29116c0.02284,-0.02689 0.02284,-0.02689 0.04362,-0.02732z" fill="#f8c440"/><path d="M349.28499,450.04177c-0.01463,-0.07884 -0.03336,-0.10479 -0.09369,-0.1299c-0.04159,0.0009 -0.06444,0.02778 -0.07058,0.10706c-0.02286,0.02689 -0.04775,0.0802 -0.11219,0.10796c-0.01875,-0.02599 -0.07908,-0.05106 -0.11862,-0.0766c-0.03954,-0.02553 -0.0978,-0.07705 -0.07084,-0.15679c0.02695,-0.07971 0.07265,-0.13348 0.13709,-0.16124c0.17045,-0.05646 0.35557,-0.03406 0.51165,0.09451c0.07908,0.05106 0.13528,0.12899 0.10628,0.23516c-0.11218,0.10794 -0.11218,0.10794 -0.27855,0.11155c-0.03748,-0.05198 -0.01463,-0.07884 -0.01053,-0.13172z" fill="#ecbb3f"/><path d="M338.40603,446.58253c0.0249,-0.05331 0.04981,-0.10659 0.11218,-0.10794c0.03954,0.02553 0.03543,0.07838 -0.01027,0.13215c-0.14118,0.21411 -0.26364,0.4542 -0.38816,0.72074c-0.04981,0.10659 -0.06212,0.26516 -0.13272,0.37221c-0.01668,-0.05239 0.01027,-0.13215 -0.05005,-0.15722c0.10989,-0.34535 0.28008,-0.66565 0.46901,-0.95995z" fill="#d8ac3c"/><path d="M351.78904,450.40995c0.07908,0.05106 0.17893,0.10167 0.1874,0.2598c-0.07265,0.13351 -0.15582,0.13528 -0.23694,0.11064c-0.05623,-0.07793 -0.02516,-0.21053 -0.10631,-0.23515c-0.10189,-0.0242 -0.11424,0.13438 -0.19946,0.16262c-0.08113,-0.02466 -0.09369,-0.1299 -0.0855,-0.23563c0.15377,-0.10885 0.29934,-0.11199 0.4408,-0.06225z" fill="#dfb13d"/><path d="M350.59965,450.48833c-0.01463,-0.07884 -0.00643,-0.18454 -0.10835,-0.20874c-0.10189,-0.0242 -0.09139,0.10752 -0.15786,0.1617c-0.08319,0.00182 -0.14146,-0.0497 -0.19561,-0.15407c0.14118,-0.21411 0.2847,-0.19083 0.44695,-0.14155c0.10192,0.02417 0.2018,0.07478 0.20615,0.28578c-0.08729,0.05464 -0.14968,0.056 -0.19125,0.05688z" fill="#e4b53e"/><path d="M356.10724,456.01581c0.05392,-0.15946 0.04749,-0.34401 0.10552,-0.55636c0.13939,0.07617 0.10628,0.23516 0.07727,0.34135c-0.0434,0.29113 -0.08883,0.60875 -0.39639,0.82644c0.07881,-0.21278 0.15556,-0.39911 0.21358,-0.61143z" fill="#e3b53e"/><path d="M349.99835,458.75954c-0.04362,0.02732 -0.08316,0.00179 -0.14968,0.056c0.02928,0.15768 -0.00179,0.29027 -0.07444,0.42375c-0.02286,0.02689 -0.04775,0.0802 -0.08729,0.05467c-0.03954,-0.02553 -0.05826,-0.05152 -0.05417,-0.10437c0.00822,-0.10573 0.01849,-0.23786 0.10989,-0.34537c0.04365,-0.02732 0.0457,-0.05372 0.02901,-0.10616c0.06238,-0.00133 0.14968,-0.056 0.22669,0.0215z" fill="#c59b31"/><path d="M346.81249,456.48001c0.03954,0.02553 0.05826,0.05152 0.01052,0.13169c-0.06032,-0.02507 -0.12271,-0.02371 -0.18304,-0.04882c-0.03954,-0.02553 -0.05829,-0.05149 -0.09576,-0.10345c0.08521,-0.02823 0.18919,-0.03047 0.26828,0.02061z" fill="#ac8b37"/><path d="M337.3067,453.78271c0.00411,-0.05288 -0.01053,-0.13172 -0.00436,-0.21096c0.0208,-0.00046 0.06034,0.02508 0.09987,0.05061c0.01463,0.07884 -0.01232,0.15855 -0.09551,0.16037z" fill="#c59b31"/><path d="M351.52512,452.73742c0.20588,0.02196 0.3848,0.12363 0.5658,0.19889c0.38276,0.15004 0.71982,0.35385 1.05074,0.63694c0.17482,0.15455 0.34759,0.33551 0.47469,0.57024c-0.02491,0.0533 -0.04982,0.10659 -0.11014,0.08153c-0.12272,-0.02374 -0.19768,-0.12766 -0.27468,-0.20516c-0.21232,-0.2065 -0.42667,-0.38654 -0.66389,-0.53974c-0.27878,-0.15231 -0.55964,-0.27818 -0.84048,-0.40405c-0.11859,-0.07659 -0.28291,-0.09943 -0.3974,-0.22888c0.03107,-0.13259 0.09345,-0.13392 0.19538,-0.10975z" fill="#c59b31"/><path d="M352.23082,453.54012c0.04159,-0.0009 0.06238,-0.00136 0.12064,0.05016c0.23927,0.12678 0.47648,0.27997 0.68672,0.51287c0.01875,0.02599 0.05829,0.05152 0.07701,0.07751c0.03954,0.02553 0.05623,0.07793 0.01053,0.13169c-0.0457,0.05375 -0.08729,0.05467 -0.12683,0.02914c-0.01874,-0.02599 -0.03748,-0.05198 -0.07701,-0.07751c-0.17277,-0.18096 -0.36838,-0.33506 -0.58685,-0.46226c-0.03954,-0.02553 -0.07908,-0.05106 -0.11655,-0.10304c-0.01876,-0.02596 -0.01669,-0.0524 -0.03543,-0.07838c0.00411,-0.05285 0.02695,-0.07971 0.04775,-0.08017z" fill="#c59b31"/><path d="M351.71071,453.28747c0.1081,-0.05509 0.24954,-0.00536 0.32243,0.12499c0.01669,0.0524 -0.01026,0.13215 -0.05185,0.13302c-0.10396,0.00225 -0.18304,-0.04882 -0.28085,-0.12584c-0.01874,-0.02599 -0.01667,-0.05242 -0.0354,-0.07841c0.00205,-0.02642 0.0249,-0.05331 0.04569,-0.05376z" fill="#c59b31"/><path d="M350.9824,452.7755c-0.06034,-0.02508 -0.1435,-0.02329 -0.19972,-0.10125c-0.01876,-0.02596 -0.03543,-0.07838 -0.01259,-0.10524c0.02901,-0.10619 0.17456,-0.10931 0.29318,-0.03271c0.02079,-0.00046 0.03748,0.05195 0.03335,0.10482c-0.02695,0.07971 -0.09137,0.10749 -0.11424,0.13438z" fill="#c59b31"/><path d="M350.51003,452.44268c-0.00205,0.02644 -0.00411,0.05285 -0.02695,0.07974c-0.04775,0.08017 -0.10807,0.0551 -0.1684,0.03001c-0.01874,-0.02599 -0.03748,-0.05198 -0.05621,-0.07794c-0.01876,-0.02596 0.00411,-0.05285 0.02695,-0.07971c0.02286,-0.02689 0.04362,-0.02732 0.06649,-0.05421c0.08524,-0.02822 0.12682,-0.02911 0.15813,0.10212z" fill="#c59b31"/><path d="M343.8777,453.64104c-0.20999,0.03093 -0.42205,0.08824 -0.6174,0.19801c-0.30345,0.16484 -0.62769,0.33013 -0.8061,0.75614c-0.0249,0.05331 -0.07061,0.10706 -0.13094,0.08195c-0.03954,-0.02553 -0.05622,-0.07792 -0.05005,-0.15722c0.01642,-0.21143 0.10989,-0.34535 0.22413,-0.47976c0.35734,-0.3243 0.74603,-0.51737 1.15139,-0.65802c0.10603,-0.02868 0.22874,-0.00494 0.35349,-0.00764c0.06238,-0.00136 0.12272,0.02374 0.13531,0.12899c-0.08935,0.08107 -0.17457,0.10929 -0.25981,0.13752z" fill="#fefdfa"/><path d="M344.46607,453.54922c-0.01874,-0.02599 -0.03746,-0.05197 -0.05621,-0.07794c-0.01668,-0.05239 0.00616,-0.07929 0.04981,-0.10659c0.1081,-0.05509 0.19742,-0.13617 0.31603,-0.05956c0.06034,0.02508 0.1435,0.02329 0.15607,0.12854c0.01463,0.07884 -0.07061,0.10706 -0.19535,0.10975c-0.0208,0.00046 -0.04161,0.0009 -0.10399,0.00224c-0.04159,0.0009 -0.10396,0.00225 -0.16636,0.00361z" fill="#fefbf3"/><path d="M337.58965,449.60792c-0.08498,0.29208 -0.16791,0.55769 -0.23414,0.87572c-0.07035,0.37091 -0.16149,0.74224 -0.27547,1.14047c-0.00412,0.05285 -0.03107,0.13259 -0.05802,0.21231c-0.00411,0.05288 -0.04775,0.0802 -0.10808,0.05513c0.00411,-0.05288 -0.01464,-0.07884 -0.01053,-0.13172c0.07444,-0.42375 0.16969,-0.84795 0.26699,-1.29857c0.0891,-0.34492 0.17613,-0.66339 0.30474,-0.98278c0.00205,-0.02644 0.0249,-0.05331 0.04775,-0.0802c0.07908,0.05106 0.09575,0.10347 0.06674,0.20963z" fill="#fefcf4"/><path d="M337.89798,448.04463c0.02286,-0.02686 0.06444,-0.02778 0.10191,0.0242c0.03336,0.10479 -0.02259,0.2907 -0.12656,0.29293c-0.04161,0.0009 -0.05829,-0.05149 -0.05211,-0.13077c0.00411,-0.05285 0.01027,-0.13215 0.07676,-0.18636z" fill="#c59b31"/><path d="M336.83641,453.42347c0.01463,0.07884 0.00847,0.15811 -0.0393,0.23831c-0.02283,0.02686 -0.08521,0.02823 -0.10191,-0.0242c-0.03542,-0.07838 -0.03132,-0.13123 -0.00436,-0.21096c0,0 0.04365,-0.02732 0.0665,-0.05421c0.01874,0.02599 0.03954,0.02553 0.07908,0.05106z" fill="#c59b31"/><path d="M337.65742,448.73579c-0.01667,-0.05242 0.00822,-0.10573 0.03313,-0.15904c0.0249,-0.05331 0.0457,-0.05375 0.08729,-0.05467c0.03954,0.02553 0.05826,0.05152 0.05415,0.1044c-0.00411,0.05285 -0.02901,0.10616 -0.09343,0.13392c-0.04365,0.02732 -0.06238,0.00133 -0.08113,-0.02463z" fill="#c59b31"/><path d="M337.01328,453.55158c-0.06032,-0.02507 -0.05622,-0.07792 -0.05211,-0.13079c0.00412,-0.05285 0.00822,-0.1057 0.07265,-0.13348c0.04161,-0.0009 0.07908,0.05106 0.07292,0.13036c-0.00412,0.05285 -0.05186,0.13305 -0.09345,0.13392z" fill="#c59b31"/><path d="M336.69676,453.0835c-0.01463,-0.07884 0.03107,-0.13259 0.07471,-0.15993c0.04365,-0.02732 0.06034,0.02511 0.07701,0.07751c0.01667,0.05242 -0.01027,0.13215 -0.05186,0.13305c-0.04158,0.00087 -0.0811,-0.02466 -0.09987,-0.05061z" fill="#c59b31"/><path d="M338.05842,448.38416c0.00411,-0.05285 0.04981,-0.10659 0.09139,-0.10752c0.04161,-0.0009 0.07908,0.05106 0.07497,0.10391c-0.00411,0.05288 -0.04775,0.0802 -0.09139,0.10752c-0.03954,-0.02553 -0.05829,-0.05152 -0.07497,-0.10391z" fill="#c59b31"/><path d="M353.29643,456.65684c-0.03313,0.15904 -0.06829,0.34447 -0.20129,0.45288c-0.04567,0.05373 -0.08729,0.05464 -0.12064,-0.05019c0.162,-0.21457 0.08062,-0.50302 0.22593,-0.77001c0.11655,0.10304 0.12706,0.2347 0.09601,0.36732z" fill="#fef7e3"/><path d="M353.80141,456.30298c0,0 -0.00207,0.02641 0.01874,0.02596c0.03954,0.02553 0.07701,0.07751 0.05211,0.13079c-0.02695,0.07974 -0.07061,0.10706 -0.11014,0.08153c-0.06034,-0.02508 -0.14146,-0.0497 -0.22052,-0.10079c-0.03954,-0.02553 -0.05827,-0.05149 -0.05211,-0.13077c0.12886,-0.05554 0.21002,-0.03091 0.31192,-0.00671z" fill="#c59b31"/><path d="M353.50027,456.70522c0.11014,-0.08153 0.25158,-0.03182 0.30371,0.09898c0.01668,0.05239 -0.03106,0.13259 -0.07265,0.13351c-0.08316,0.00179 -0.16224,-0.04927 -0.2413,-0.10033c-0.0208,0.00046 -0.01669,-0.05243 -0.03543,-0.07841c0.00205,-0.02642 0.00411,-0.05285 0.04567,-0.05373z" fill="#c59b31"/><path d="M353.31568,457.21048c0.0249,-0.05331 0.04775,-0.08017 0.08936,-0.08107c0.06444,-0.02778 0.10396,-0.00225 0.11859,0.07659c-0.00412,0.05285 -0.04981,0.10659 -0.0914,0.10752c-0.06236,0.00133 -0.11859,-0.07659 -0.11655,-0.10304z" fill="#c59b31"/><path d="M348.77023,455.3297c0.04362,-0.02732 0.08729,-0.05467 0.10396,-0.00225c0.03748,0.05198 0.07292,0.13036 0.04596,0.21007c-0.08089,0.23922 -0.143,0.50438 -0.26751,0.77092c-0.0249,0.05331 -0.07061,0.10706 -0.13094,0.08195c-0.019,-0.2898 -0.019,-0.2898 0.24852,-1.06071z" fill="#fefbf1"/><path d="M349.05803,456.16777c0.08087,-0.23921 0.14297,-0.50438 0.22385,-0.74358c0,0 0.00205,-0.02642 0.0249,-0.05331c0.02286,-0.02686 0.0457,-0.05375 0.06649,-0.05421c0.04158,-0.00087 0.06034,0.02511 0.07701,0.07751c0.01667,0.05242 0.01463,0.07884 0.01053,0.13169c-0.04136,0.26476 -0.14505,0.53083 -0.23003,0.82287c-0.00205,0.02644 -0.0249,0.05331 -0.04775,0.0802c-0.00205,0.02642 -0.02286,0.02686 -0.04362,0.02732c-0.0208,0.00046 -0.03954,-0.02553 -0.05829,-0.05152c-0.01874,-0.02599 -0.01463,-0.07884 -0.01259,-0.10524c0.00413,-0.05288 0.00616,-0.07929 -0.01051,-0.13172z" fill="#c59b31"/><path d="M349.01103,457.03945c-0.0249,0.05331 -0.04981,0.10659 -0.08935,0.08107c-0.0208,0.00046 -0.03954,-0.02553 -0.05622,-0.07792c-0.01464,-0.07884 -0.00848,-0.15813 0.06008,-0.23875c0.00205,-0.02644 0.0249,-0.05334 0.06444,-0.02781c0.01874,0.02599 0.01874,0.02599 0.03954,0.02553c-0.00208,0.02644 -0.00413,0.05288 0.01259,0.10527c-0.02491,0.0533 -0.02903,0.10617 -0.03107,0.13259z" fill="#c59b31"/><path d="M347.77597,455.03452c-0.04544,0.31759 -0.13247,0.63607 -0.2611,0.95546c-0.00411,0.05285 -0.04981,0.10659 -0.11014,0.08153c-0.05621,-0.07794 -0.02721,-0.18411 0.0018,-0.29027c0.08292,-0.26563 0.10757,-0.58276 0.2757,-0.87663c0.08113,0.02463 0.09577,0.10346 0.09372,0.1299z" fill="#fefcf4"/><path d="M347.94102,455.84889c0.04133,-0.26474 0.1222,-0.50396 0.20513,-0.76956c0.00615,-0.0793 0.04774,-0.0802 0.12886,-0.05554c-0.0018,0.29027 -0.08678,0.58231 -0.21129,0.84882c-0.0249,0.05331 -0.06649,0.05421 -0.10603,0.02868c0.00205,-0.02644 -0.01668,-0.05239 -0.01668,-0.05239z" fill="#c59b31"/><path d="M347.81702,456.64306c-0.06034,-0.02508 -0.09783,-0.07705 -0.07084,-0.15679c0.03106,-0.13259 0.06008,-0.23875 0.21179,-0.32115c0.02515,0.21052 -0.0267,0.34356 -0.14095,0.47794z" fill="#c59b31"/><path d="M350.35186,456.61478c-0.04981,0.10659 -0.09548,0.16037 -0.13502,0.13484c-0.06034,-0.02508 -0.05623,-0.07796 -0.05006,-0.15725c0.00411,-0.05285 0.00614,-0.07927 0.03106,-0.13259c0.06008,-0.23875 0.12016,-0.47749 0.18022,-0.71624c0.03107,-0.13259 0.07677,-0.18634 0.1371,-0.16126c0.08113,0.02463 0.05417,0.10437 0.0439,0.23649c-0.03928,0.23831 -0.12425,0.53037 -0.20719,0.796z" fill="#c59b31"/><path d="M349.82893,455.59709c0.0249,-0.05331 0.04774,-0.0802 0.10808,-0.05513c0,0 0.01875,0.02599 0.01667,0.05242c-0.02465,0.31713 -0.08882,0.60875 -0.2154,0.9017c-0.00411,0.05285 -0.04773,0.08017 -0.10807,0.0551c-0.01053,-0.13169 0.00179,-0.29027 0.05367,-0.42331c0.04981,-0.10659 0.0788,-0.21276 0.06827,-0.34445c0.08524,-0.02822 0.05188,-0.13305 0.07677,-0.18634z" fill="#fdf7e7"/><path d="M350.03636,457.20205c0.0249,-0.05331 0.05186,-0.13305 0.09756,-0.18679c0.00205,-0.02642 0.04362,-0.02732 0.06238,-0.00133c-0.00208,0.02644 0.03748,0.05198 0.03542,0.07838c0.01053,0.13172 -0.01847,0.23788 -0.12862,0.3194c-0.05211,-0.13079 -0.07084,-0.15679 -0.06674,-0.20963z" fill="#c59b31"/><path d="M348.61152,458.97411c-0.00411,0.05285 -0.04773,0.08017 -0.08727,0.05464c-0.06034,-0.02508 -0.07701,-0.07751 -0.05211,-0.13079c0.00819,-0.1057 0.07675,-0.18633 0.11629,-0.1608c0.0208,-0.00046 0.0208,-0.00046 0.03954,0.02553c-0.00205,0.02642 -0.00411,0.05285 0.01259,0.10524c-0.02286,0.02689 -0.02695,0.07974 -0.02903,0.10617z" fill="#c59b31"/><path d="M347.27816,458.50155c0.00615,-0.0793 0.05186,-0.13305 0.11424,-0.13438c0.06238,-0.00133 0.05826,0.05152 0.05417,0.10437c-0.00411,0.05285 -0.00616,0.07929 -0.03107,0.13259c0,0 -0.02079,0.00046 -0.04362,0.02732c-0.04159,0.0009 -0.07908,-0.05106 -0.09369,-0.1299z" fill="#c59b31"/></g></g></g><g stroke="#d63636" stroke-width="3.5"><path d="M227.92186,460.55411c-2.49097,0 -4.5103,-4.66969 -4.5103,-10.43006c0,-5.76035 2.01933,-10.43006 4.5103,-10.43006c2.49097,0 4.5103,4.66969 4.5103,10.43006c0,5.76035 -2.01933,10.43006 -4.5103,10.43006z" fill="#d63636" stroke-linecap="butt"/><path d="M224.54274,449.09065l-4.71562,-4.35288" data-paper-data="{&quot;index&quot;:null}" fill="none" stroke-linecap="round"/></g><g stroke="#d63636" stroke-width="3.5"><path d="M172.53349,454.42423c0,-5.76035 2.01933,-10.43006 4.5103,-10.43006c2.49096,0 4.51028,4.66969 4.51028,10.43006c0,5.76035 -2.01933,10.43006 -4.51028,10.43006c-2.49097,0 -4.5103,-4.66969 -4.5103,-10.43006z" fill="#d63636" stroke-linecap="butt"/><path d="M180.26453,452.95053l4.71562,-4.35288" fill="none" stroke-linecap="round"/></g><path d="M264.23411,447.85043c0,0 -0.24271,2.64156 -2.43299,2.66321c-2.23693,0.02211 -2.35484,-2.21594 -2.70167,-2.19165c-0.36142,0.02533 -0.85346,2.19174 -2.43037,2.19665c-2.2876,0.00712 -2.86989,-2.49533 -2.86989,-2.49533" fill="none" stroke="#d63636" stroke-width="3.5" stroke-linecap="round"/></g></g></svg>