<svg version="1.1" xmlns="http://www.w3.org/2000/svg" xmlns:xlink="http://www.w3.org/1999/xlink" width="152.99998" height="118.90739" viewBox="0,0,152.99998,118.90739"><g transform="translate(-163.50001,-119.21394)"><g data-paper-data="{&quot;isPaintingLayer&quot;:true}" fill-rule="nonzero" stroke-linejoin="miter" stroke-miterlimit="10" stroke-dasharray="" stroke-dashoffset="0" style="mix-blend-mode: normal"><path d="M192.08663,233.97885v-93.10965h94.85701v93.10965z" fill="#111111" stroke="#0b0ef8" stroke-width="3.5" stroke-linecap="butt"/><path d="M174.72125,233.4571c-5.23082,0 -9.47124,-4.24042 -9.47124,-9.47124c0,-5.23082 4.24042,-9.47124 9.47124,-9.47124c5.23082,0 9.47124,4.24042 9.47124,9.47124c0,5.23082 -4.24042,9.47124 -9.47124,9.47124z" fill="#ffffff" stroke="#40a8ff" stroke-width="3.5" stroke-linecap="butt"/><path d="M305.27874,236.37133c-5.23083,0 -9.47124,-4.24043 -9.47124,-9.47125c0,-5.23082 4.24042,-9.47124 9.47124,-9.47124c5.23083,0 9.47125,4.24042 9.47125,9.47124c0,5.23083 -4.24042,9.47125 -9.47125,9.47125z" fill="#ffffff" stroke="#4067ff" stroke-width="3.5" stroke-linecap="butt"/><g fill="#000707" stroke="#4042ff" stroke-width="3.5"><path d="M229.58077,195.16411c-2.51932,0 -4.56163,-4.72284 -4.56163,-10.54876c0,-5.82592 2.04231,-10.54876 4.56163,-10.54876c2.51932,0 4.56163,4.72284 4.56163,10.54876c0,5.82592 -2.04231,10.54876 -4.56163,10.54876z" stroke-linecap="butt"/><path d="M216.90958,177.80459l11.40407,6.96916" stroke-linecap="round"/></g><g data-paper-data="{&quot;index&quot;:null}" fill="#000000" stroke="#0000f8" stroke-width="3.5"><path d="M249.60724,185.13991c0,-5.82592 2.04231,-10.54876 4.56163,-10.54876c2.51931,0 4.56162,4.72284 4.56162,10.54876c0,5.82592 -2.04231,10.54876 -4.56162,10.54876c-2.51932,0 -4.56163,-4.72284 -4.56163,-10.54876z" stroke-linecap="butt"/><path d="M255.43599,185.29831l11.40407,-6.96916" stroke-linecap="round"/></g><path d="M246.54648,200.27938c0,0 -0.24547,2.67163 -2.46067,2.69353c-2.26239,0.02236 -2.38165,-2.24116 -2.73242,-2.21659c-0.36553,0.02562 -0.86317,2.21668 -2.45803,2.22165c-2.31364,0.0072 -2.90256,-2.52373 -2.90256,-2.52373" fill="none" stroke="#0034ff" stroke-width="3.5" stroke-linecap="round"/><g fill="#6c00ff" stroke="#000707"><g stroke-width="3.5"><path d="M281.94452,142.19303l16.67267,-10.06237l-5.74431,24.37763z" data-paper-data="{&quot;index&quot;:null}" stroke-linecap="round"/><path d="M260.86491,148.22857l4.70224,-24.59989l11.116,15.9895z" stroke-linecap="round"/><path d="M277.42456,149.76324c-5.08378,-1.08433 -8.2928,-6.24009 -7.16755,-11.51571c1.12525,-5.27562 6.15867,-8.67333 11.24244,-7.589c5.08378,1.08433 8.2928,6.24009 7.16755,11.51571c-1.12525,5.27562 -6.15867,8.67333 -11.24244,7.589z" stroke-linecap="butt"/></g><g data-paper-data="{&quot;index&quot;:null}" stroke-width="1" stroke-linecap="butt"><path d="M281.9516,138.53821c-0.03058,0.03597 -0.04725,0.07164 -0.05137,0.12469c0.02371,0.05245 0.07798,0.06894 0.11562,0.12109c0.03898,0.03447 0.07798,0.06894 0.1156,0.12109c0.13072,-0.07344 0.25732,-0.09381 0.37843,-0.04347c0.04587,-0.05394 0.06528,-0.12499 0.07078,-0.19572c-0.05291,-0.03417 -0.10581,-0.06833 -0.15872,-0.10251c-0.10446,-0.08603 -0.11562,-0.12109 -0.07405,-0.29854c0.14035,-0.19723 0.29479,-0.21822 0.47292,-0.18674c0.12385,0.01498 0.22831,0.101 0.27021,0.27664c0.00705,0.08812 -0.01374,0.17684 -0.08882,0.24908c-0.04586,0.05395 -0.0876,0.05486 -0.14464,0.07373c-0.04312,0.01859 -0.08211,-0.01587 -0.14189,0.03838c-0.01804,0.05334 -0.05137,0.12469 -0.02903,0.19481c0.05153,0.05186 0.09052,0.08633 0.14205,0.13819c0.10307,0.10371 0.17694,0.22568 0.10616,0.42142c-0.00137,0.01768 0.01116,0.03506 0.00842,0.07042c0.11973,0.06804 0.25474,0.11809 0.38839,0.18583c0.20183,0.08392 0.38702,0.20351 0.56946,0.35847c0.11698,0.10342 0.21867,0.22479 0.3329,0.36356c0.15186,0.19092 0.25922,0.41813 0.3068,0.69957c0.00979,0.05275 0.02095,0.08783 0.03074,0.14058c0.01255,0.01739 0.02508,0.03478 0.039,0.03447c0.31315,0.08151 0.6124,0.16335 0.92555,0.24486c0.06819,0.01619 0.12249,0.03267 0.19618,-0.02188c0.08762,-0.05485 0.15444,-0.02097 0.21851,0.04826c0.02646,0.01708 0.03898,0.03447 0.06407,0.06924c0.11407,-0.03777 0.22813,-0.07555 0.33944,-0.07794c0.16698,-0.0036 0.21713,0.06593 0.21594,0.26016c0.00858,0.24697 -0.06631,0.49575 -0.15513,0.74484c-0.03744,0.12439 -0.11664,0.24969 -0.23207,0.30514c-0.17677,-0.04915 -0.291,-0.18792 -0.4219,-0.29104c-0.20442,0.12799 -0.25732,0.09383 -0.35216,-0.11599c-0.30062,-0.06415 -0.5832,-0.18163 -0.88382,-0.24577c-0.10496,0.81437 -0.51914,1.31765 -1.08791,1.66534c-0.08882,0.24908 -0.23757,0.37588 -0.42671,0.48588c-0.15993,0.09172 -0.3269,0.09533 -0.49249,0.08125c-0.263,-0.01199 -0.52324,-0.05935 -0.79741,-0.1064c-0.03745,0.12439 -0.08744,0.23139 -0.06787,0.33691c-0.06115,0.07193 -0.1321,0.09112 -0.20168,0.09261c-0.15306,0.0033 -0.2922,0.0063 -0.42447,-0.07912c-0.13227,-0.08542 -0.26455,-0.17084 -0.42309,-0.09681c-0.20735,-0.01318 -0.41193,-0.06173 -0.57908,-0.23468c-0.02508,-0.03476 -0.06408,-0.06922 -0.10719,-0.05065c-0.08486,0.01948 -0.15306,0.0033 -0.23518,-0.01259c-0.19342,-0.01348 -0.36743,-0.09801 -0.50813,-0.25387c-0.01391,0.00031 -0.01254,-0.01737 -0.02507,-0.03475c-0.0098,-0.05275 0.02215,-0.10642 -0.01547,-0.15856c-0.05153,-0.05186 -0.13777,-0.0147 -0.20597,-0.03087c-0.29924,-0.08183 -0.61378,-0.14567 -0.92693,-0.22719c-0.12248,-0.03267 -0.24221,-0.1007 -0.36194,-0.16875c-0.17264,-0.1022 -0.31608,-0.22269 -0.36778,-0.45108c-0.0529,-0.03418 -0.09328,-0.05097 -0.14756,-0.06744c-0.27004,-0.10011 -0.52067,-0.27126 -0.73935,-0.49605c-0.07662,-0.08661 -0.15323,-0.17325 -0.19926,-0.29584c-0.17297,-0.45529 -0.19291,-0.91388 0.08075,-1.39646c0.04862,-0.08932 0.10976,-0.16125 0.15838,-0.25058c0.03058,-0.03595 0.05978,-0.05425 0.03607,-0.1067c-0.0821,-0.01589 -0.16971,0.03897 -0.26574,0.02339c-0.10994,-0.01528 -0.22263,0.0048 -0.33532,0.02488c-0.36453,0.04316 -0.71925,0.1391 -1.07536,0.2527c-0.63851,0.17266 -1.2449,0.46821 -1.82896,0.8339c-0.10289,0.07284 -0.19326,0.16306 -0.31986,0.18344c-0.1266,0.02039 -0.18089,0.00389 -0.22554,-0.13637c-0.03487,-0.08752 -0.04192,-0.17564 -0.04758,-0.28145c-0.00997,-0.2293 -0.00463,-0.47659 0.01323,-0.70648c0.03849,-0.49517 0.11597,-0.95585 0.19482,-1.43424c0.04844,-0.26587 0.09826,-0.54941 0.17591,-0.83356c0.1455,-0.62105 0.34528,-1.22562 0.55762,-1.8128c0.09019,-0.26676 0.1943,-0.53384 0.33876,-0.78411c0.04725,-0.07164 0.09585,-0.16095 0.15564,-0.2152c0.09035,-0.09022 0.17384,-0.09203 0.25045,-0.00541c0.02646,0.01708 0.03761,0.05216 0.07936,0.05125c0.20493,0.40165 0.45573,0.74933 0.7524,1.04306c0.29667,0.29374 0.63646,0.56889 0.97898,0.80867c0.32998,0.2224 0.69331,0.37346 1.05938,0.48914c0.27142,0.08243 0.55812,0.14687 0.82953,0.22929c0.09466,0.03326 0.17676,0.04914 0.27141,0.08242c0.25889,0.06504 0.53305,0.1121 0.80583,0.17683c0.27279,0.06473 0.54696,0.11179 0.81838,0.19422c0.23104,0.06564 0.47875,0.09559 0.72234,0.17863c0,0 0.01529,-0.01799 0.04312,-0.01859c0.01804,-0.05336 0.03607,-0.10672 0.05549,-0.17775c0.02078,-0.08872 0.07918,-0.12528 0.15151,-0.16216c0.0876,-0.05484 0.18226,-0.02159 0.26712,-0.04106c0.04586,-0.05397 0.04862,-0.08933 0.03883,-0.14208c-0.039,-0.03447 -0.09328,-0.05095 -0.14619,-0.08512c-0.14481,-0.10281 -0.12557,-0.35039 0.02182,-0.45951c0.19051,-0.12769 0.51758,-0.04647 0.62494,0.18074c0.05996,0.12228 0.0225,0.24667 -0.08177,0.3372c-0.05978,0.05425 -0.13211,0.09113 -0.20168,0.09263c-0.02782,0.00059 -0.06819,-0.01619 -0.10016,0.03747c-0.01804,0.05334 -0.00824,0.10609 0.03213,0.1229c0.09466,0.03326 0.17401,0.08451 0.252,0.15345c0.14327,-0.05605 0.28104,-0.04138 0.42017,-0.04438c0.01804,-0.05334 0.04725,-0.07164 0.02354,-0.12408c-0.02646,-0.01708 -0.05291,-0.03417 -0.07936,-0.05125c-0.02508,-0.03478 -0.06546,-0.05156 -0.09052,-0.08632c-0.06546,-0.05156 -0.08503,-0.15706 -0.05034,-0.24609c0.03333,-0.07133 0.07782,-0.10761 0.13622,-0.14417c0.13074,-0.07344 0.26988,-0.07644 0.40352,-0.00871c0.11973,0.06804 0.16715,0.17295 0.19653,0.33121c-0.08469,0.19603 -0.08469,0.19603 -0.33085,0.32491zM281.00761,143.71374c-0.05824,0.21311 -0.10117,0.40823 -0.15941,0.62134c0.15459,0.15556 0.34665,0.18673 0.5442,0.14717c0.0292,-0.0183 0.05841,-0.03658 0.07645,-0.08994c0.01942,-0.07103 0.0402,-0.15976 0.06099,-0.24848c0.01941,-0.07103 0.05411,-0.16006 0.0749,-0.24878c0.00137,-0.01768 0.00412,-0.05306 -0.02234,-0.07014c-0.02232,-0.07013 -0.08073,-0.03356 -0.13639,-0.03237c-0.15305,0.0033 -0.2867,-0.06442 -0.43838,-0.07882zM279.22934,142.28674c-0.02646,-0.01708 -0.039,-0.03447 -0.03625,-0.06984c0.00412,-0.05306 0.03333,-0.07133 0.06116,-0.07194c0.08349,-0.0018 0.15169,0.01439 0.23379,0.03028c0.01392,-0.00031 0.01392,-0.00031 0.04862,-0.08933c-0.12248,-0.03267 -0.24495,-0.06533 -0.38135,-0.0977c-0.23242,-0.04795 -0.45093,-0.0962 -0.68472,-0.12648c-0.19204,-0.03117 -0.40076,-0.02667 -0.60245,0.06595c-0.11406,0.03778 -0.14326,0.05606 -0.23499,0.16397c0.27278,0.06473 0.54557,0.12946 0.81836,0.19421c0.15169,0.01437 0.30062,0.06413 0.44955,0.11388c0.12249,0.03267 0.23104,0.06564 0.35354,0.09831c0.01391,-0.00031 0.04312,-0.01859 0.07095,-0.01919c-0.02371,-0.05245 -0.03487,-0.08751 0.02354,-0.12408c0.04036,0.01678 0.0821,0.01589 0.12248,0.03267c0.03195,-0.05365 0.01941,-0.07103 -0.00705,-0.08812c-0.05153,-0.05186 -0.10719,-0.05066 -0.17812,-0.03147c-0.02646,-0.01708 -0.04037,-0.01679 -0.05704,0.01888zM281.43021,141.85089c-0.07765,0.28415 -0.15529,0.56829 -0.22039,0.86982c-0.00276,0.03538 -0.01943,0.07104 0.00428,0.1235c0.19067,0.04886 0.39664,0.07972 0.61653,0.11029c0.07611,-0.44301 0.16612,-0.88632 0.29651,-1.31285c-0.00979,-0.05275 -0.03625,-0.06984 -0.07662,-0.08661c-0.17677,-0.04915 -0.35489,-0.08062 -0.54558,-0.12948c-0.02491,0.14178 -0.07627,0.26647 -0.07198,0.38997c-0.00137,0.01768 -0.01527,0.01797 -0.00275,0.03536zM273.64786,136.17496c0.08332,-0.17834 0.16525,-0.339 0.25974,-0.48228c0.02921,-0.01828 0.03195,-0.05365 0.00687,-0.08842c-0.02783,0.0006 -0.05841,0.03658 -0.07507,0.07224c-0.12643,0.19692 -0.24033,0.41123 -0.31385,0.64233c-0.1333,0.28534 -0.21094,0.56949 -0.30251,0.85395c-0.09569,0.33749 -0.19,0.65731 -0.28569,0.99481c-0.07902,0.30184 -0.14411,0.60337 -0.20924,0.9049c-0.07472,0.42531 -0.12162,0.85004 -0.16852,1.27477c-0.02903,0.19483 -0.07199,0.38995 -0.07319,0.58418c-0.00824,0.10611 -0.00396,0.22961 0.00033,0.35309c-0.00412,0.05306 0.00567,0.10581 0.02938,0.15828c0.0237,0.05245 0.06545,0.05154 0.10993,0.01528c0.02079,-0.08872 -0.03074,-0.14058 -0.03779,-0.2287c0.0055,-0.07075 -0.00155,-0.15886 -0.00858,-0.24697c0.0055,-0.07075 0.01099,-0.14147 0.01786,-0.22992c0.0055,-0.07073 0.01237,-0.15914 0.07215,-0.2134c0.04312,-0.01859 0.0682,0.01617 0.06408,0.06922c0.00567,0.10581 -0.0012,0.19423 -0.00944,0.30034c-0.00963,0.12378 -0.02062,0.26526 0.00875,0.42353c0.05841,-0.03658 0.07645,-0.08994 0.06803,-0.16036c-0.02938,-0.15825 -0.01562,-0.33511 0.01066,-0.49457c0.01805,-0.05336 0.02354,-0.12408 0.04158,-0.17744c0.00137,-0.0177 0.01666,-0.03567 0.05978,-0.05425c0.08502,0.15705 -0.02749,0.35368 0.0158,0.51165c0.05978,-0.05425 0.07919,-0.1253 0.07214,-0.21342c-0.00704,-0.08812 0.00121,-0.19423 0.00809,-0.28264c0.01666,-0.03567 0.02078,-0.08872 0.04999,-0.107c0.01392,-0.00031 0.0292,-0.0183 0.01392,-0.00031c-0.00275,0.03536 0.00704,0.08812 0.00292,0.14117c0.06957,-0.0015 0.0876,-0.05486 0.07782,-0.10761c0.06939,-0.17804 0.12626,-0.37348 0.18312,-0.5689c0.0749,-0.24878 0.14981,-0.49756 0.21216,-0.76373c0.16492,-0.69209 0.30201,-1.38357 0.39735,-2.07417c0.0055,-0.07075 0.011,-0.14147 0.01651,-0.21222c-0.08212,-0.01587 -0.09328,-0.05095 -0.07388,-0.12199c0.02079,-0.08872 0.05412,-0.16005 0.08744,-0.23139c0.01804,-0.05336 0.0347,-0.08903 -0.00292,-0.14117c-0.0931,0.12559 -0.13467,0.30303 -0.22641,0.41092c-0.05429,-0.01648 -0.05017,-0.06953 -0.03213,-0.1229c0.05273,-0.14237 0.10411,-0.26706 0.16939,-0.39206c0.01804,-0.05334 0.05135,-0.12468 0.08332,-0.17834c0.01804,-0.05336 0.02215,-0.1064 -0.00017,-0.17653c-0.06254,0.08961 -0.09586,0.16095 -0.13056,0.24997c-0.04862,0.08932 -0.08332,0.17834 -0.13194,0.26767c-0.0347,0.08903 -0.04157,0.17744 -0.11527,0.232c-0.0821,-0.01589 -0.03348,-0.10522 -0.04328,-0.15796c0.06116,-0.07194 0.08332,-0.17834 0.10135,-0.2317zM274.14739,136.18185c0.00327,0.49426 -0.04913,0.98972 -0.14328,1.48608c-0.07748,0.4607 -0.18141,0.90429 -0.28534,1.3479c-0.17041,0.76283 -0.42157,1.4921 -0.76736,2.18808c-0.00137,0.0177 -0.00275,0.03536 -0.01804,0.05336c0.02508,0.03476 0.05565,-0.0012 0.08487,-0.0195c0.34769,-0.18403 0.68146,-0.36778 1.01385,-0.53385c0.32965,-0.13069 0.65792,-0.24369 0.99873,-0.3393c0.21284,-0.05755 0.40902,-0.07944 0.62185,-0.13699c0.2977,-0.07705 0.60382,-0.08365 0.89465,-0.07226c0.06957,-0.0015 0.12523,-0.00269 0.18501,-0.05694c0.20717,-0.16336 0.43393,-0.22122 0.67321,-0.26169c0.24067,-0.05816 0.4925,-0.08124 0.7263,-0.05098c0.26162,0.02967 0.52187,0.07703 0.79604,0.12408c0.39664,0.07972 0.77938,0.15976 1.17464,0.25716c0.35489,0.08062 0.70842,0.17893 1.06331,0.25955c0.50521,0.11268 0.99514,0.24336 1.50034,0.35606c0.29924,0.08181 0.60123,0.12826 0.9144,0.2098c0.19068,0.04885 0.38135,0.0977 0.57203,0.14654c0.05429,0.0165 0.10994,0.01528 0.19206,0.03118c0.00962,-0.12379 -0.01134,-0.21162 -0.06012,-0.29884c-0.1199,-0.24457 -0.269,-0.47087 -0.46397,-0.64322c-0.19496,-0.17234 -0.39544,-0.27395 -0.60982,-0.37524c-0.49422,-0.25418 -1.01197,-0.38425 -1.51168,-0.56768c-0.36607,-0.1157 -0.73488,-0.19602 -1.10233,-0.29403c-0.58732,-0.12857 -1.17463,-0.25714 -1.76059,-0.40341c-0.36881,-0.08034 -0.73625,-0.17832 -1.10369,-0.27633c-0.44956,-0.1139 -0.91303,-0.22749 -1.35844,-0.39444c-0.18931,-0.06653 -0.36195,-0.16873 -0.53459,-0.27094c-0.27984,-0.15287 -0.52496,-0.39474 -0.78675,-0.60096c-0.15737,-0.12018 -0.29942,-0.25836 -0.43873,-0.43191c-0.12677,-0.15614 -0.23826,-0.33029 -0.36367,-0.50414c-0.02507,-0.03477 -0.05015,-0.06955 -0.08778,-0.1217c-0.03333,0.07133 -0.02354,0.12408 -0.01512,0.19453zM285.60451,141.7609c-0.1211,-0.05034 -0.2575,-0.08272 -0.39389,-0.11509c-0.25887,-0.06504 -0.53167,-0.12977 -0.79054,-0.1948c-0.50521,-0.1127 -1.02433,-0.22508 -1.52953,-0.33778c-0.39527,-0.0974 -0.79053,-0.19482 -1.18581,-0.29222c-0.23242,-0.04795 -0.46347,-0.11359 -0.69588,-0.16155c-0.15169,-0.01439 -0.29924,-0.08181 -0.44956,-0.1139c-0.47875,-0.09559 -0.95614,-0.20889 -1.44742,-0.32187c-0.20597,-0.03087 -0.41056,-0.07943 -0.61653,-0.11029c-0.42722,-0.04376 -0.85581,-0.06983 -1.29679,0.06325c-0.29907,0.09472 -0.53819,0.31174 -0.7299,0.63366c-0.33206,0.51914 -0.17129,1.31014 0.12951,1.55081c0.20888,0.17206 0.44698,0.32581 0.70448,0.40854c0.33961,0.09859 0.69315,0.19691 1.04941,0.25984c0.34374,0.04556 0.68609,0.10879 1.04237,0.17174c0.26024,0.04734 0.53441,0.0944 0.79329,0.15944c0.26024,0.04736 0.53303,0.11209 0.79191,0.17713c0.43564,0.1142 0.88932,0.17503 1.34299,0.23587c0.09602,0.01559 0.20733,0.01319 0.30474,0.01109c0.02783,-0.0006 0.04173,-0.00089 0.07095,-0.01919c0.04448,-0.03626 0.07645,-0.08992 0.09585,-0.16095c0.00413,-0.05305 -0.02095,-0.08783 -0.05994,-0.1223c-0.06546,-0.05154 -0.14481,-0.10279 -0.22693,-0.11868c-0.30199,-0.04645 -0.59986,-0.14596 -0.91576,-0.1921c-0.31591,-0.04617 -0.61653,-0.11029 -0.93106,-0.17414c-0.16422,-0.03178 -0.34235,-0.06325 -0.50659,-0.09501c-0.15031,-0.03209 -0.30062,-0.06415 -0.45093,-0.0962c-0.31315,-0.08153 -0.64159,-0.14507 -0.952,-0.26196c-0.22968,-0.08332 -0.46485,-0.09591 -0.6959,-0.16155c-0.20459,-0.04854 -0.42309,-0.09679 -0.6263,-0.16304c-0.15031,-0.03207 -0.26868,-0.11779 -0.38566,-0.22119c-0.23672,-0.17145 -0.28996,-0.5587 -0.14137,-0.86204c0.06665,-0.14267 0.15701,-0.23289 0.25991,-0.30572c0.15993,-0.09172 0.3324,-0.16608 0.51328,-0.16997c0.33532,-0.02488 0.66652,0.00329 0.99633,0.04913c0.15031,0.03207 0.31728,0.02847 0.46759,0.06054c0.2185,0.04825 0.43838,0.07882 0.65827,0.1094c0.26024,0.04734 0.50796,0.07732 0.7682,0.12466c0.32845,0.06354 0.66944,0.14446 0.99513,0.24338c0.29924,0.08181 0.61378,0.14565 0.92693,0.22717c0.15031,0.03209 0.30198,0.04647 0.45093,0.0962c0.17814,0.03147 0.35626,0.06295 0.53303,0.11209c0.41056,0.07943 0.81836,0.19421 1.22618,0.309c0.24495,0.06533 0.48992,0.13068 0.74742,0.2134c0.08195,-0.16066 0.13467,-0.30303 0.15958,-0.44481zM278.14059,141.63933c0.16833,-0.02128 0.3214,-0.02458 0.47034,0.02517c0,0 0.01529,-0.01797 0.02919,-0.01828c-0.08795,-0.29823 -0.06579,-0.40465 0.15238,-0.70948c-0.02371,-0.05245 -0.06683,-0.03387 -0.10719,-0.05065c-0.3312,-0.02817 -0.66101,-0.07403 -1.00888,-0.06652c-0.08348,0.00178 -0.18364,0.03925 -0.26851,0.05875c-0.11406,0.03778 -0.21696,0.11061 -0.30731,0.20083c-0.06115,0.07193 -0.10976,0.16125 -0.11801,0.26737c-0.01512,0.19453 0.02818,0.35248 0.14515,0.4559c0.09052,0.08632 0.21164,0.13667 0.33137,0.20471c0.19034,-0.30423 0.44355,-0.345 0.68148,-0.36779zM282.06666,142.41977c0.05292,0.03418 0.1072,0.05065 0.16148,0.06714c0.30338,0.02876 0.58733,0.12857 0.85323,0.28172c0.31007,-0.23619 0.40026,-0.50295 0.27743,-0.88871c-0.16285,-0.04945 -0.94084,-0.22688 -1.10645,-0.24097c-0.06235,0.26617 -0.12334,0.51465 -0.1857,0.78081zM281.70367,144.05182c0.0919,0.06864 0.1893,0.06655 0.28533,0.08212c0.24633,0.04767 0.48013,0.07792 0.73196,0.05484c0.16835,-0.02128 0.29907,-0.09472 0.43666,-0.25658c0.13897,-0.17953 0.17746,-0.6747 -0.00497,-0.82966c-0.05291,-0.03417 -0.09189,-0.06864 -0.1309,-0.10311c-0.2381,-0.15376 -0.48168,-0.23679 -0.75584,-0.28383c-0.06819,-0.01619 -0.14756,-0.06744 -0.24771,-0.02998c-0.02078,0.08872 -0.04294,0.19512 -0.06511,0.30154c0.07936,0.05125 0.17677,0.04915 0.27142,0.08243c0.12385,0.01498 0.23242,0.04795 0.35489,0.08062c0.09602,0.01559 0.18793,0.08423 0.26592,0.15317c0.16852,0.15525 0.07008,0.52812 -0.10376,0.62015c-0.02921,0.01828 -0.07233,0.03686 -0.11407,0.03775c-0.08348,0.0018 -0.16697,0.00361 -0.24908,-0.01228c-0.19204,-0.03117 -0.38548,-0.04465 -0.57752,-0.07582c-0.01255,-0.01739 -0.02783,0.0006 -0.05566,0.0012c-0.00412,0.05306 -0.02215,0.10642 -0.04157,0.17744zM284.29965,142.10681c-0.07936,-0.05125 -0.59712,-0.18132 -0.76271,-0.19541c0.04329,0.15795 0.05737,0.3342 -0.01202,0.51223c-0.05412,0.16005 -0.12214,0.32042 -0.25562,0.42922c0.04604,0.12259 0.09482,0.20982 0.12695,0.3327c0.03348,0.10522 0.03779,0.2287 0.02679,0.37017c0.47704,-0.2398 0.89241,-0.93728 0.87661,-1.44893zM281.05538,142.7417c0.0761,-0.44301 0.2343,-0.87012 0.32296,-1.29576c-0.00979,-0.05275 -0.03763,-0.05215 -0.06408,-0.06923c-0.17814,-0.03147 -0.36882,-0.08032 -0.55949,-0.12918c0,0 -0.01392,0.00031 -0.04312,0.01859c-0.0914,0.461 -0.23843,0.92318 -0.33121,1.40187c0.1211,0.05034 0.53167,0.12977 0.64298,0.12735c0.00137,-0.01768 0.01666,-0.03567 0.03195,-0.05365zM280.2274,142.67127c0.04844,-0.26587 0.09414,-0.49635 0.16904,-0.74513c0.05961,-0.23081 0.13313,-0.46189 0.16629,-0.70978c-0.1211,-0.05036 -0.48992,-0.13068 -0.65827,-0.1094c-0.0457,0.2305 -0.10531,0.46131 -0.15238,0.70948c-0.0457,0.2305 -0.13314,0.46189 -0.15375,0.72717c0.2185,0.04825 0.41055,0.0794 0.62906,0.12766zM280.86984,143.69905c-0.24495,-0.06533 -0.46484,-0.0959 -0.71118,-0.14355c-0.04157,0.17744 -0.06922,0.35459 -0.13726,0.51494c0.17419,0.26107 0.40936,0.27365 0.67648,0.23257c0.05824,-0.21311 0.1151,-0.40854 0.17196,-0.60397zM279.24152,143.38107c-0.28533,-0.08212 -0.58732,-0.12857 -0.88931,-0.17502c-0.30199,-0.04645 -0.57203,-0.14657 -0.90048,-0.2101c0.08778,0.1217 0.16713,0.17295 0.2465,0.2242c0.13228,0.08542 0.29513,0.13487 0.45798,0.18432c0.29923,0.08183 0.59985,0.14596 0.91439,0.2098c0.02646,0.01708 0.06957,-0.0015 0.11131,-0.0024c0.03333,-0.07133 0.05274,-0.14238 0.05961,-0.23081zM280.03482,143.54051c-0.17539,-0.06684 -0.476,-0.13097 -0.64298,-0.12737c-0.0402,0.15977 -0.06511,0.30155 -0.10668,0.47898c0.15184,0.19094 0.36331,0.15106 0.5832,0.18165c0.0694,-0.17805 0.11097,-0.3555 0.16646,-0.53324zM285.96766,141.7354c-0.02903,0.19483 -0.05945,0.40736 -0.15669,0.586c0.08917,0.104 0.19361,0.19001 0.31471,0.24038c0.18758,-0.26886 0.25406,-0.58809 0.19258,-0.86923c-0.13777,-0.0147 -0.13777,-0.0147 -0.35061,0.04286zM279.18554,141.59915c0.11544,-0.05545 0.16268,-0.12708 0.14722,-0.28564c-0.01547,-0.15856 -0.14362,-0.29703 -0.31195,-0.27575c-0.15443,0.02099 -0.27675,0.16486 -0.29049,0.3417c-0.0055,0.07075 0.01821,0.12319 0.05582,0.17535c0.06408,0.06923 0.15737,0.12018 0.27005,0.1001c0.02782,-0.00059 0.08486,-0.01948 0.12935,-0.05575zM282.75502,139.10351c-0.14207,-0.1382 -0.30355,-0.20531 -0.48581,-0.18374c-0.09739,0.00209 -0.11268,0.02008 -0.13622,0.14417c-0.01666,0.03567 -0.01804,0.05336 -0.02216,0.10642c0.21576,0.08362 0.4176,0.16754 0.64866,0.23319c0.06803,-0.16036 0.05686,-0.19544 -0.00447,-0.30003zM279.33602,141.80777c0.08212,0.01589 0.15031,0.03207 0.24497,0.06534c0.06235,-0.26617 0.12334,-0.51465 0.17179,-0.78051c-0.10581,-0.06833 -0.2185,-0.04825 -0.32707,-0.08123c-0.03333,0.07133 0.00705,0.08812 0.01821,0.12319c0.09207,0.24517 0.06442,0.42232 -0.14688,0.63873c0.02646,0.01708 0.02508,0.03478 0.03898,0.03447zM280.54643,138.74505c0.21712,0.06595 0.44955,0.1139 0.66668,0.17985c0.06116,-0.07194 0.05136,-0.1247 0.05686,-0.19544c-0.02371,-0.05245 -0.07799,-0.06893 -0.13091,-0.10309c-0.15598,-0.13789 -0.35215,-0.116 -0.53578,-0.07673c-0.06116,0.07194 -0.05136,0.1247 -0.05686,0.19543zM281.36478,138.93926c0.09053,0.08633 0.18793,0.08423 0.28258,0.1175c0.08075,0.03356 0.17401,0.08451 0.28533,0.08212c0.06116,-0.07194 0.0792,-0.1253 0.02903,-0.19483c-0.13657,-0.20891 -0.31058,-0.29343 -0.53871,-0.2179c0,0 0,0 -0.01528,0.01799c-0.00413,0.05305 -0.00963,0.12378 -0.04295,0.19512zM281.28732,137.96994c0.0055,-0.07075 -0.03213,-0.1229 -0.07111,-0.15736c-0.09053,-0.08633 -0.21438,-0.10131 -0.34236,-0.06324c-0.04312,0.01859 -0.0737,0.05455 -0.09173,0.10789c-0.00413,0.05305 0.02095,0.08783 0.0474,0.10491c0.02646,0.01708 0.05292,0.03418 0.07937,0.05126c0.04174,-0.00091 0.05839,-0.03658 0.07506,-0.07225c0.01667,-0.03566 0.03334,-0.07133 0.0737,-0.05455c0.04175,-0.00089 0.05291,0.03417 0.06269,0.08692c-0.00275,0.03538 -0.01804,0.05336 0.00705,0.08814c0.09739,-0.00211 0.09739,-0.00211 0.15993,-0.09172zM282.55816,138.41921c0.04312,-0.01859 0.05136,-0.1247 0.13347,-0.10881c0.04037,0.01679 0.01959,0.10551 0.07113,0.15735c0.05427,0.0165 0.11131,-0.0024 0.15855,-0.07403c-0.00567,-0.1058 -0.05857,-0.13997 -0.1254,-0.17384c-0.09328,-0.05095 -0.19206,-0.03118 -0.29495,0.04166c-0.00549,0.07075 -0.01099,0.14147 0.05721,0.15767zM281.97755,138.02567c-0.10857,-0.03298 -0.20598,-0.03087 -0.29909,0.09472c0.02234,0.07014 0.07662,0.08661 0.1309,0.10311c0.04312,-0.01859 0.03744,-0.12439 0.10564,-0.10822c0.06957,-0.0015 0.06269,0.08692 0.07249,0.13967c0.039,0.03447 0.08212,0.01589 0.14052,-0.02067c-0.00291,-0.14119 -0.06838,-0.19273 -0.15048,-0.20862zM285.80636,141.84482c0.01941,-0.07103 0.04157,-0.17744 -0.05171,-0.22839c-0.03745,0.12439 -0.03315,0.24789 -0.07061,0.37228c-0.03607,0.1067 -0.08744,0.23139 -0.14154,0.39145c0.19188,-0.14538 0.22091,-0.3402 0.26386,-0.53533z"/><path d="M274.25029,136.10901c0.1115,0.17413 0.2369,0.34799 0.36367,0.50414c0.1254,0.17384 0.28137,0.31173 0.43873,0.43191c0.26179,0.20622 0.50828,0.43042 0.78675,0.60096c0.17264,0.1022 0.34528,0.2044 0.53459,0.27094c0.4468,0.14926 0.89635,0.26315 1.35844,0.39444c0.36745,0.09801 0.73626,0.17832 1.10369,0.27633c0.58733,0.12857 1.17464,0.25714 1.76059,0.40341c0.36882,0.08032 0.73763,0.16066 1.10233,0.29403c0.51363,0.18312 1.03138,0.3132 1.51168,0.56768c0.21437,0.10129 0.42876,0.2026 0.60982,0.37524c0.19498,0.17234 0.33016,0.39896 0.46397,0.64322c0.03624,0.06985 0.05583,0.17536 0.06012,0.29884c-0.06957,0.0015 -0.13777,-0.01468 -0.19206,-0.03118c-0.19068,-0.04885 -0.38135,-0.0977 -0.57203,-0.14654c-0.29924,-0.08183 -0.60123,-0.12828 -0.9144,-0.2098c-0.50521,-0.1127 -0.9965,-0.22568 -1.50034,-0.35606c-0.35489,-0.08062 -0.70842,-0.17893 -1.06331,-0.25955c-0.38273,-0.08003 -0.778,-0.17743 -1.17464,-0.25716c-0.26026,-0.04735 -0.5205,-0.09471 -0.79604,-0.12408c-0.23518,-0.01257 -0.487,0.01051 -0.7263,0.05098c-0.2393,0.04047 -0.46605,0.09832 -0.67321,0.26169c-0.05841,0.03656 -0.11544,0.05545 -0.18501,0.05694c-0.30474,-0.01109 -0.59694,-0.00479 -0.89465,0.07226c-0.21145,0.03987 -0.40902,0.07944 -0.62185,0.13699c-0.34082,0.09561 -0.66771,0.19094 -0.99873,0.3393c-0.34356,0.13099 -0.67871,0.33243 -1.0264,0.51646c-0.03057,0.03598 -0.05978,0.05427 -0.08487,0.0195c0.00137,-0.0177 0.00275,-0.03536 0.01804,-0.05336c0.34581,-0.69598 0.59696,-1.42523 0.76737,-2.18808c0.10393,-0.4436 0.20787,-0.88721 0.28534,-1.3479c0.09413,-0.49637 0.16045,-0.99213 0.14328,-1.48608c0.00412,-0.05306 -0.00567,-0.10581 0.02765,-0.17714c0.039,0.03447 0.06271,0.08692 0.08778,0.1217zM282.74196,139.98652c0.18792,0.08421 0.37722,0.15076 0.56241,0.27035c0.15872,0.10251 0.30216,0.22299 0.44422,0.36116c0.06546,0.05156 0.11699,0.10342 0.1838,0.13728c0.02646,0.01708 0.05704,-0.01888 0.0737,-0.05455c-0.07111,-0.15736 -0.20064,-0.27815 -0.31761,-0.38155c-0.20751,-0.18973 -0.44698,-0.32581 -0.7031,-0.42621c-0.1211,-0.05036 -0.24221,-0.1007 -0.3786,-0.13309c-0.04037,-0.01679 -0.08349,0.0018 -0.11819,0.09083c0.07662,0.08661 0.17264,0.1022 0.25338,0.13578zM283.08603,140.38516c0.02646,0.01708 0.05153,0.05186 0.07798,0.06894c0.13227,0.08542 0.27708,0.18823 0.39269,0.30932c0.01255,0.01739 0.02508,0.03478 0.05153,0.05186c0.02646,0.01708 0.05429,0.01648 0.08487,-0.0195c0.02921,-0.01828 0.00413,-0.05305 -0.00704,-0.08812c-0.01255,-0.01739 -0.02508,-0.03478 -0.05153,-0.05186c-0.14207,-0.13818 -0.28687,-0.24098 -0.45952,-0.34319c-0.02646,-0.01708 -0.05429,-0.0165 -0.06819,-0.01619c-0.01392,0.00031 -0.03058,0.03597 -0.04725,0.07164c-0.00137,0.0177 -0.00275,0.03536 0.02646,0.01708zM282.73801,140.21612c0.05153,0.05186 0.10307,0.10371 0.18792,0.08423c0.02784,-0.0006 0.04587,-0.05394 0.03471,-0.08903c-0.04879,-0.08723 -0.14207,-0.13818 -0.21576,-0.08362c-0.01529,0.01797 -0.01666,0.03567 -0.03195,0.05365c0.01254,0.01739 0.01116,0.03508 0.02508,0.03478zM282.2991,139.60765c-0.06545,-0.05154 -0.17813,-0.03146 -0.19618,0.02188c-0.00137,0.0177 -0.00412,0.05306 0.00842,0.07044c0.02371,0.05245 0.07936,0.05125 0.13366,0.06773c0.02646,0.01708 0.06957,-0.0015 0.0876,-0.05484c0.00276,-0.03538 -0.00979,-0.05275 -0.03349,-0.10522zM281.79115,139.53034c-0.02783,0.0006 -0.03058,0.03597 -0.01804,0.05336c0.01254,0.01739 0.02508,0.03476 0.03762,0.05214c0.04037,0.0168 0.08074,0.03358 0.11268,-0.02008c0.02784,-0.00059 0.02921,-0.01828 0.01804,-0.05334c-0.02234,-0.07014 -0.05016,-0.06955 -0.10719,-0.05066c0,0 -0.01391,0.00031 -0.04312,0.01859z"/><path d="M284.65851,141.95784c-0.39389,-0.11509 -0.81699,-0.21191 -1.22618,-0.309c-0.17812,-0.03147 -0.35626,-0.06295 -0.53303,-0.11209c-0.1503,-0.03208 -0.30062,-0.06415 -0.45092,-0.0962c-0.30062,-0.06415 -0.61378,-0.14567 -0.92693,-0.22719c-0.3257,-0.09891 -0.65277,-0.18013 -0.99513,-0.24338c-0.24634,-0.04765 -0.50796,-0.07732 -0.76821,-0.12466c-0.21987,-0.03058 -0.43976,-0.06115 -0.65827,-0.1094c-0.1503,-0.03206 -0.31728,-0.02846 -0.46759,-0.06053c-0.3312,-0.02817 -0.66102,-0.07402 -0.99634,-0.04913c-0.18089,0.00389 -0.35198,0.06055 -0.51328,0.16997c-0.10289,0.07284 -0.19326,0.16306 -0.25991,0.30572c-0.14721,0.28565 -0.08142,0.69029 0.14137,0.86204c0.11836,0.08572 0.25063,0.17115 0.38566,0.22119c0.20322,0.06625 0.40781,0.11481 0.62632,0.16304c0.23104,0.06564 0.46621,0.07823 0.69588,0.16155c0.31041,0.1169 0.62494,0.18074 0.95201,0.26197c0.1503,0.03206 0.30062,0.06415 0.45092,0.0962c0.16423,0.03178 0.34236,0.06324 0.5066,0.09502c0.3159,0.04614 0.61514,0.12797 0.93105,0.17413c0.30199,0.04645 0.60123,0.12826 0.91577,0.19211c0.0821,0.01589 0.16148,0.06714 0.22692,0.1187c0.04037,0.01679 0.06408,0.06922 0.05996,0.12228c-0.0055,0.07073 -0.03745,0.12439 -0.09586,0.16095c-0.0292,0.0183 -0.04312,0.0186 -0.07095,0.01919c-0.09739,0.00211 -0.20871,0.0045 -0.30474,-0.01109c-0.43976,-0.06113 -0.89343,-0.12197 -1.34298,-0.23586c-0.25887,-0.06504 -0.53303,-0.11209 -0.79191,-0.17713c-0.25889,-0.06504 -0.51913,-0.11238 -0.79329,-0.15944c-0.34374,-0.04556 -0.68609,-0.10879 -1.04236,-0.17174c-0.35765,-0.04524 -0.69588,-0.16155 -1.04943,-0.25984c-0.25887,-0.06504 -0.48305,-0.2191 -0.70447,-0.40852c-0.30079,-0.24069 -0.46158,-1.03169 -0.12951,-1.55083c0.20426,-0.30453 0.43083,-0.53894 0.72992,-0.63365c0.44096,-0.13308 0.86955,-0.10702 1.29677,-0.06326c0.20735,0.01318 0.41193,0.06173 0.61653,0.11029c0.47876,0.0956 0.97005,0.2086 1.44743,0.3219c0.1503,0.03206 0.29924,0.08181 0.44955,0.11388c0.23242,0.04795 0.46483,0.09592 0.69588,0.16155c0.39389,0.11509 0.79053,0.19482 1.18581,0.29222c0.50521,0.1127 1.02435,0.22508 1.52955,0.33778c0.27417,0.04704 0.53167,0.12977 0.79054,0.1948c0.12248,0.03267 0.26024,0.04736 0.39389,0.11509c0.01408,0.17625 -0.03865,0.31862 -0.1206,0.47928c-0.2575,-0.08272 -0.51637,-0.14776 -0.78642,-0.24786zM277.5854,140.20362c-0.0821,-0.01589 -0.15168,-0.01439 -0.23653,0.00511c-0.26987,0.07642 -0.54387,0.20592 -0.77044,0.44031c-0.07645,0.08994 -0.13898,0.17955 -0.14997,0.32102c-0.00275,0.03536 -0.00687,0.08842 0.03348,0.1052c0.04037,0.0168 0.06958,-0.00149 0.08762,-0.05483c0.11939,-0.28506 0.33636,-0.39566 0.5394,-0.50597c0.13072,-0.07344 0.27125,-0.09413 0.41313,-0.1325c0.05704,-0.01888 0.11407,-0.03777 0.17385,-0.09203c-0.00842,-0.07042 -0.04879,-0.08723 -0.09054,-0.08632zM278.06416,140.29921c0.08349,-0.0018 0.14189,-0.03836 0.13074,-0.07344c-0.00842,-0.07042 -0.06546,-0.05154 -0.10446,-0.08601c-0.06681,-0.03386 -0.13914,0.003 -0.21145,0.03987c-0.01529,0.01799 -0.0445,0.03627 -0.03333,0.07133c0.01254,0.01739 0.02369,0.05246 0.03761,0.05216c0.05428,0.01648 0.09602,0.01559 0.12385,0.01498c0.04175,-0.00089 0.04175,-0.00089 0.05704,-0.01888z"/><path d="M273.54788,136.38898c0.00842,0.07042 -0.03883,0.14206 0.01545,0.15856c0.0737,-0.05455 0.08057,-0.14297 0.12919,-0.2323c0.04862,-0.08933 0.08332,-0.17834 0.13194,-0.26767c0.04862,-0.08932 0.08195,-0.16066 0.14446,-0.25028c0.02234,0.07014 0.01821,0.12319 0.00017,0.17653c-0.03195,0.05366 -0.06528,0.12499 -0.08332,0.17836c-0.06528,0.12498 -0.13056,0.24997 -0.16939,0.39206c-0.01804,0.05334 -0.02216,0.1064 0.03213,0.1229c0.09174,-0.10791 0.13331,-0.28536 0.22641,-0.41094c0.02371,0.05245 0.00567,0.1058 -0.011,0.14147c-0.02078,0.08872 -0.05411,0.16006 -0.07353,0.23109c-0.01941,0.07105 -0.00824,0.10611 0.10307,0.10372c-0.00548,0.07073 0.00292,0.14117 -0.01649,0.2122c-0.08281,0.70798 -0.23242,1.38208 -0.39735,2.07417c-0.06099,0.24848 -0.13589,0.49726 -0.21216,0.76373c-0.05686,0.19543 -0.09843,0.37287 -0.18312,0.5689c-0.01392,0.00031 -0.04037,-0.01679 -0.06683,-0.03387c-0.01116,-0.03506 -0.02508,-0.03478 -0.04037,-0.01679c-0.03058,0.03597 -0.04725,0.07164 -0.04999,0.107c-0.00687,0.08842 -0.01512,0.19453 -0.00807,0.28265c0.00703,0.08814 -0.01237,0.15916 -0.07215,0.21342c-0.028,-0.17595 0.06923,-0.35459 -0.0158,-0.51165c-0.02783,0.0006 -0.04312,0.01859 -0.05978,0.05425c-0.01804,0.05336 -0.03745,0.12439 -0.04157,0.17744c-0.02766,0.17714 -0.04004,0.33631 -0.01066,0.49457c0.0084,0.07044 -0.00963,0.12378 -0.06804,0.16036c-0.03211,-0.12289 -0.03503,-0.26406 -0.02541,-0.38786c0.00824,-0.10609 0.01512,-0.19453 0.02336,-0.30063c0.00276,-0.03538 -0.00703,-0.08814 -0.06407,-0.06924c-0.05978,0.05425 -0.06528,0.12499 -0.07215,0.21342c-0.0055,0.07075 -0.02491,0.14178 -0.01786,0.2299c-0.0055,0.07075 0.00153,0.15886 0.00858,0.24697c-0.00687,0.08842 0.05858,0.13998 0.03779,0.2287c-0.04449,0.03627 -0.10016,0.03747 -0.10994,-0.01528c-0.00979,-0.05275 -0.01958,-0.10551 -0.02938,-0.15825c-0.00567,-0.1058 0.00395,-0.22959 -0.00033,-0.35309c0.01512,-0.19453 0.05806,-0.38965 0.07318,-0.58418c0.03299,-0.42442 0.09381,-0.84945 0.16853,-1.27479c0.0512,-0.30123 0.1163,-0.60276 0.19533,-0.9046c0.08177,-0.3372 0.17607,-0.65701 0.28568,-0.99482c0.09156,-0.28445 0.1692,-0.5686 0.30251,-0.85395c0.02646,0.01708 0.02232,0.07013 0.02095,0.08783zM273.23316,137.57863c-0.08605,0.21371 -0.14431,0.42682 -0.20391,0.65762c-0.07765,0.28415 -0.12747,0.5677 -0.19258,0.86923c-0.00275,0.03536 -0.00413,0.05305 0.00705,0.08812c0.02646,0.01708 0.05565,-0.0012 0.07231,-0.03687c0.01666,-0.03567 0.02079,-0.08872 0.03883,-0.14208c0.06099,-0.24848 0.12197,-0.49695 0.18433,-0.76312c0.04294,-0.19514 0.09981,-0.39056 0.16921,-0.56861c0.01941,-0.07103 0.00824,-0.10609 -0.05858,-0.13998c-0.01529,0.01799 -0.03058,0.03597 -0.01666,0.03569zM273.46903,136.86734c0.07095,-0.01919 0.1223,-0.14389 0.08606,-0.21372c-0.01116,-0.03506 -0.03899,-0.03445 -0.0682,-0.01617c-0.03057,0.03598 -0.0347,0.08903 -0.03744,0.12439c-0.00413,0.05305 0.00704,0.08812 0.01958,0.10551zM272.67915,140.23878c-0.01805,0.05336 -0.02079,0.08872 0.00292,0.14117c0.00979,0.05275 0.05153,0.05186 0.06819,0.01619c0.04586,-0.05397 0.04999,-0.10702 0.02628,-0.15947c0.00137,-0.01768 -0.02646,-0.01708 -0.03898,-0.03447c-0.01529,0.01799 -0.02921,0.0183 -0.05841,0.03658zM273.45665,137.02651c0.00275,-0.03538 -0.00978,-0.05277 -0.03624,-0.06985c-0.02646,-0.01708 -0.04175,0.00091 -0.05841,0.03658c-0.01529,0.01797 -0.03195,0.05365 -0.02079,0.08872c0.01255,0.01739 0.02371,0.05245 0.05292,0.03418c0.04312,-0.01859 0.05978,-0.05425 0.06252,-0.08961zM272.91002,140.12786c-0.02921,0.01828 -0.04587,0.05394 -0.04862,0.08933c-0.00275,0.03536 -0.0055,0.07073 0.03487,0.08751c0.02646,0.01708 0.07094,-0.01917 0.07506,-0.07222c0.00275,-0.03536 -0.01958,-0.10551 -0.06132,-0.10462zM272.81382,139.93574c0.00137,-0.0177 -0.00842,-0.07044 -0.05153,-0.05186c-0.02783,0.0006 -0.05978,0.05425 -0.04999,0.107c-0.00275,0.03536 0.02232,0.07013 0.05153,0.05186c0.02783,-0.0006 0.04586,-0.05395 0.04999,-0.107zM273.72085,136.84426c0.00276,-0.03538 -0.02369,-0.05246 -0.05153,-0.05186c-0.02783,0.0006 -0.04449,0.03627 -0.04723,0.07164c-0.00275,0.03536 0.00979,0.05275 0.03625,0.06984c0.02919,-0.01828 0.05841,-0.03656 0.06252,-0.08961z"/><path d="M281.80228,143.85551c0.19204,0.03117 0.38548,0.04465 0.57752,0.07582c0.08212,0.01589 0.1656,0.01408 0.2491,0.01228c0.02783,-0.0006 0.07095,-0.01919 0.11406,-0.03778c0.18776,-0.09233 0.27228,-0.46489 0.10376,-0.62015c-0.07798,-0.06894 -0.17127,-0.1199 -0.26592,-0.15317c-0.12385,-0.01498 -0.23242,-0.04795 -0.35489,-0.08062c-0.08073,-0.03356 -0.17814,-0.03146 -0.27142,-0.08243c0.02216,-0.1064 0.04295,-0.19512 0.06511,-0.30154c0.08625,-0.03717 0.1656,0.01408 0.24771,0.02998c0.26026,0.04735 0.51776,0.13007 0.75584,0.28383c0.05291,0.03417 0.0919,0.06864 0.1309,0.10311c0.19634,0.15467 0.15788,0.64982 0.00499,0.82966c-0.12369,0.16157 -0.26833,0.2353 -0.43668,0.2566c-0.25182,0.02308 -0.48563,-0.0072 -0.73196,-0.05484c-0.09465,-0.03327 -0.19343,-0.01348 -0.28534,-0.08212c0.01805,-0.05336 0.02216,-0.10642 0.0402,-0.15977c0.02784,-0.00059 0.04175,-0.00089 0.05703,-0.01887z"/><path d="M283.41016,143.18526c-0.03211,-0.12289 -0.08091,-0.2101 -0.12694,-0.3327c0.13347,-0.1088 0.18758,-0.26886 0.25561,-0.42922c0.05412,-0.16005 0.04003,-0.33629 0.01204,-0.51223c0.1656,0.01408 0.66944,0.14446 0.76271,0.19541c0.00188,0.51195 -0.41349,1.20943 -0.89053,1.44923c0.011,-0.14147 0.0067,-0.26496 -0.01288,-0.37048zM283.58916,142.66942c0.00842,0.07044 0.05017,0.06953 0.08073,0.03358c0.08899,-0.07255 0.09861,-0.19633 0.13469,-0.30305c0.02078,-0.08872 0.01374,-0.17684 -0.06424,-0.24578c-0.09724,0.17866 -0.04278,0.37167 -0.15118,0.51525zM283.96863,142.25517c0.039,0.03447 0.09328,0.05097 0.14756,0.06744c0.02783,-0.0006 0.05566,-0.0012 0.0737,-0.05455c0.00275,-0.03536 -0.00842,-0.07044 -0.03487,-0.08752c0,0 0.00137,-0.01768 -0.01254,-0.01737c-0.06819,-0.01619 -0.13502,-0.05006 -0.20872,0.00449c-0.00412,0.05306 0.00842,0.07042 0.03487,0.08751zM283.92019,142.52106c0.03899,0.03445 0.09191,0.06862 0.16148,0.06713c0.02782,-0.00059 0.05978,-0.05425 0.04862,-0.08932c-0.04879,-0.08723 -0.12952,-0.12081 -0.18931,-0.06654c-0.0139,0.00029 -0.01527,0.01797 -0.03056,0.03596c-0.00137,0.0177 -0.00276,0.03538 0.00978,0.05277zM283.95798,142.74974c-0.00979,-0.05275 -0.03762,-0.05214 -0.07936,-0.05125c-0.02784,0.0006 -0.05704,0.01888 -0.05978,0.05427c-0.00413,0.05303 0.03487,0.08751 0.0766,0.08661c0.02784,-0.0006 0.05979,-0.05425 0.06254,-0.08963z"/><path d="M280.38045,142.66799c0.09278,-0.47869 0.2398,-0.94087 0.33121,-1.40187c0.01392,-0.00031 0.02919,-0.01828 0.04312,-0.01859c0.17814,0.03147 0.36882,0.08032 0.55949,0.12918c0.02783,-0.0006 0.05429,0.01648 0.06408,0.06923c-0.08866,0.42564 -0.24687,0.85275 -0.32296,1.29576c-0.01529,0.01797 -0.01666,0.03567 -0.03195,0.05365c-0.11132,0.00241 -0.52188,-0.07701 -0.64298,-0.12735zM280.69722,142.16683c0.08195,-0.16066 0.12352,-0.33811 0.17901,-0.51585c0.01804,-0.05334 -0.00568,-0.1058 -0.03076,-0.14056c-0.02646,-0.01708 -0.04037,-0.01679 -0.06957,0.0015c-0.17901,0.51584 -0.17901,0.51584 -0.16629,0.70977c0.04037,0.0168 0.07096,-0.01917 0.08762,-0.05483zM281.01175,142.23067c0.01255,0.01737 0.02646,0.01708 0.039,0.03445c0,0 0.01392,-0.00029 0.02919,-0.01828c0.01529,-0.01797 0.01666,-0.03567 0.03195,-0.05365c0.05549,-0.17775 0.11098,-0.3555 0.15392,-0.55061c0.00275,-0.03536 0.00413,-0.05305 -0.00705,-0.08812c-0.01116,-0.03508 -0.02369,-0.05246 -0.05153,-0.05186c-0.01391,0.00031 -0.02919,0.01828 -0.04449,0.03627c0,0 -0.01529,0.01797 -0.01666,0.03567c-0.05411,0.16006 -0.09569,0.3375 -0.14979,0.49756c-0.01666,0.03567 -0.01804,0.05334 -0.02079,0.08872c-0.00137,0.01768 -0.00411,0.05304 0.03625,0.06984zM280.94801,142.51451c0.00139,-0.01769 -0.01254,-0.01739 -0.02507,-0.03477c-0.01392,0.00031 -0.04175,0.00091 -0.05841,0.03658c-0.03058,0.03597 -0.04999,0.107 -0.0402,0.15976c-0.00137,0.0177 0.01116,0.03508 0.03761,0.05216c0.02783,-0.0006 0.04312,-0.01859 0.05978,-0.05425c0.01666,-0.03567 0.01941,-0.07105 0.03609,-0.10671c-0.01255,-0.01739 -0.0098,-0.05275 -0.0098,-0.05275z"/><path d="M279.73815,141.81674c0.0457,-0.2305 0.10669,-0.47898 0.15238,-0.70948c0.16835,-0.02128 0.52462,0.04165 0.65827,0.1094c-0.01924,0.24758 -0.10668,0.47898 -0.16629,0.70977c-0.06098,0.24849 -0.10668,0.47898 -0.16904,0.74515c-0.2046,-0.04856 -0.39665,-0.07971 -0.61514,-0.12797c0.01923,-0.24758 0.10668,-0.47898 0.13983,-0.72687zM279.86064,141.84942c-0.01804,0.05336 -0.03744,0.12439 -0.0012,0.19423c0.02783,-0.0006 0.05704,-0.01888 0.0737,-0.05455c0.08605,-0.21371 0.14292,-0.40914 0.17471,-0.63934c0.00413,-0.05305 -0.00704,-0.08812 -0.05996,-0.12228c-0.09722,0.17864 -0.12763,0.39115 -0.18725,0.62195zM280.30315,141.87518c0.08332,-0.17834 0.14017,-0.37376 0.14139,-0.56799c-0.04037,-0.0168 -0.06957,0.0015 -0.08623,0.03717c-0.06804,0.16036 -0.12353,0.33809 -0.13726,0.51494c0,0 -0.00138,0.01767 0.01116,0.03506c0.02783,-0.0006 0.05565,-0.0012 0.07095,-0.01919zM280.09066,142.28583c-0.01805,0.05336 0.00703,0.08814 0.0474,0.10491c0.09036,-0.09022 0.12506,-0.17925 0.09432,-0.31981c-0.10015,0.03745 -0.12094,0.12617 -0.14172,0.2149z"/><path d="M281.40117,142.04572c-0.03607,0.1067 -0.04294,0.19512 -0.03589,0.28324c0.04036,0.01679 0.05565,-0.0012 0.07231,-0.03687c0.08469,-0.19603 0.14154,-0.39145 0.14413,-0.60337c0,0 0.00137,-0.0177 -0.01116,-0.03506c-0.02646,-0.01708 -0.04175,0.00089 -0.07233,0.03686c-0.03057,0.03598 -0.00824,0.10611 -0.06528,0.12499c0.00963,-0.1238 0.04707,-0.24819 0.04416,-0.38936c0.19067,0.04886 0.36882,0.08032 0.54558,0.12948c0.04036,0.01678 0.06681,0.03386 0.07662,0.08661c-0.11648,0.42622 -0.20649,0.86954 -0.29651,1.31285c-0.22126,-0.01289 -0.42585,-0.06145 -0.61653,-0.11029c-0.02371,-0.05246 -0.02096,-0.08783 -0.0043,-0.1235c0.06373,-0.28384 0.14276,-0.58567 0.22041,-0.86984c0.00137,-0.01768 0.01529,-0.01797 0.03056,-0.03596c0.00842,0.07042 -0.01235,0.15915 -0.03178,0.2302zM281.9435,141.68093c-0.02646,-0.01708 -0.07095,0.01919 -0.09174,0.10791c-0.0402,0.15976 -0.0804,0.31951 -0.1206,0.47927c-0.01666,0.03569 -0.01804,0.05336 -0.02078,0.08872c-0.00276,0.03538 -0.00687,0.08843 0.03349,0.10522c0.04036,0.01678 0.05702,-0.01889 0.09035,-0.09022c0.05549,-0.17775 0.11235,-0.37317 0.13863,-0.53264c0.00687,-0.08842 0.011,-0.14147 -0.02938,-0.15825zM281.75246,142.70902c0.00137,-0.0177 -0.01116,-0.03508 -0.02371,-0.05245c0.00139,-0.01769 -0.02646,-0.01708 -0.04173,0.00089c-0.04312,0.01859 -0.04725,0.07164 -0.06528,0.12499c-0.00275,0.03536 -0.00413,0.05305 0.04604,0.12259c0.0737,-0.05455 0.0931,-0.12559 0.08469,-0.19603z"/><path d="M279.33929,142.30203c-0.05704,0.01888 -0.04725,0.07164 -0.02354,0.12408c-0.02921,0.01828 -0.04449,0.03627 -0.07096,0.01919c-0.12248,-0.03267 -0.23103,-0.06564 -0.35352,-0.09831c-0.1503,-0.03206 -0.29924,-0.08181 -0.44955,-0.1139c-0.27417,-0.04704 -0.54559,-0.12946 -0.81836,-0.19421c0.09173,-0.10789 0.12093,-0.12617 0.23499,-0.16395c0.2003,-0.07494 0.39511,-0.07913 0.60108,-0.04827c0.2338,0.03026 0.45229,0.07851 0.68473,0.12646c0.12248,0.03267 0.24495,0.06533 0.38135,0.09772c-0.02079,0.0887 -0.02079,0.0887 -0.04862,0.08932c-0.0821,-0.01589 -0.14893,-0.04975 -0.2338,-0.03026c-0.02921,0.01828 -0.05703,0.01887 -0.06115,0.07193c-0.00276,0.03538 0.00979,0.05275 0.03625,0.06984c0.02782,-0.00059 0.04175,-0.00089 0.06819,0.01619c0.02646,0.01708 0.03898,0.03447 0.05291,0.03417z"/><path d="M280.0214,144.07045c0.05412,-0.16005 0.09569,-0.3375 0.13726,-0.51494c0.23242,0.04795 0.46623,0.07821 0.71118,0.14355c-0.05686,0.19544 -0.11372,0.39086 -0.17196,0.60397c-0.26712,0.04107 -0.50229,0.02848 -0.67648,-0.23257zM280.66679,143.80935c0,0 -0.01254,-0.01737 -0.02646,-0.01708c-0.02783,0.0006 -0.05841,0.03658 -0.07782,0.10761c-0.00275,0.03536 0.00842,0.07044 0.03487,0.08752c0.01392,-0.00031 0.04175,-0.00089 0.05841,-0.03658c0.01529,-0.01797 0.01666,-0.03567 0.03333,-0.07133c-0.01116,-0.03506 -0.02234,-0.07014 -0.02234,-0.07014z"/><path d="M279.0706,143.61427c-0.30062,-0.06415 -0.61653,-0.11029 -0.91439,-0.2098c-0.14894,-0.04975 -0.31316,-0.08152 -0.45798,-0.18432c-0.07936,-0.05125 -0.15872,-0.10251 -0.2465,-0.2242c0.32845,0.06353 0.59849,0.16365 0.90048,0.2101c0.30199,0.04645 0.60398,0.0929 0.88931,0.17502c-0.00686,0.08842 -0.02491,0.14178 -0.05961,0.23081c-0.04175,0.00089 -0.08486,0.01948 -0.11131,0.0024z"/><path d="M281.4113,143.88159c-0.04586,0.05395 -0.06665,0.14267 -0.07353,0.23109c-0.00275,0.03538 0.00979,0.05275 0.03625,0.06984c0.02784,-0.00059 0.04175,-0.00089 0.05841,-0.03656c0.06254,-0.08963 0.08332,-0.17834 0.04983,-0.28355c0.03194,-0.05365 0.07094,-0.01917 0.10014,-0.03747c0.01255,0.01739 0.039,0.03447 0.02234,0.07014c-0.01942,0.07103 -0.05412,0.16005 -0.0749,0.24878c-0.01943,0.07104 -0.0402,0.15976 -0.06099,0.24848c-0.00412,0.05306 -0.03333,0.07135 -0.07645,0.08994c-0.19754,0.03956 -0.3896,0.00838 -0.5442,-0.14717c0.05824,-0.21311 0.10117,-0.40823 0.15941,-0.62134c0.15169,0.01439 0.28534,0.08212 0.43838,0.07882c-0.00275,0.03536 -0.00412,0.05306 -0.0347,0.08903z"/><path d="M279.27124,143.89241c0.0402,-0.15976 0.06648,-0.31922 0.10668,-0.47898c0.16698,-0.00358 0.46759,0.06054 0.64298,0.12737c-0.02765,0.17714 -0.06922,0.35459 -0.15254,0.53295c-0.22126,-0.01289 -0.43136,0.00929 -0.59712,-0.18134zM279.8833,143.70267c0.00275,-0.03536 0.01804,-0.05336 0.02079,-0.08872c0.00275,-0.03536 0.00548,-0.07073 -0.03626,-0.06984c-0.04174,0.00091 -0.07231,0.03687 -0.07645,0.08992c-0.00275,0.03538 0.02096,0.08783 0.04879,0.08723c0.01391,-0.00031 0.02782,-0.00059 0.04312,-0.01859z"/><path d="M286.13823,142.57916c-0.1211,-0.05036 -0.22692,-0.1187 -0.31469,-0.24039c0.08332,-0.17834 0.12763,-0.39115 0.15667,-0.58598c0.20168,-0.09261 0.20168,-0.09261 0.33807,-0.06025c0.04621,0.29914 -0.01891,0.60067 -0.18004,0.88662z"/><path d="M282.09554,139.18833c0.01805,-0.05336 0.0055,-0.07073 0.02216,-0.10642c0.02354,-0.12408 0.03883,-0.14206 0.13622,-0.14417c0.18089,-0.00389 0.34374,0.04556 0.48581,0.18374c0.07798,0.06894 0.10307,0.10371 0.01975,0.28206c-0.23104,-0.06564 -0.4468,-0.14926 -0.66395,-0.21521z"/><path d="M281.15298,138.62606c0.039,0.03447 0.09466,0.03326 0.1309,0.10309c-0.0055,0.07075 -0.00962,0.12381 -0.05686,0.19544c-0.21712,-0.06595 -0.43564,-0.1142 -0.66667,-0.17982c-0.00842,-0.07044 -0.01821,-0.12319 0.04294,-0.19514c0.18226,-0.02159 0.36453,-0.04316 0.5497,0.07643z"/><path d="M281.43694,138.72586c0.22813,-0.07555 0.40215,0.00898 0.53872,0.21789c0.03625,0.06984 0.01821,0.12319 -0.02903,0.19483c-0.09877,0.01978 -0.19068,-0.04885 -0.28533,-0.08212c-0.09465,-0.03327 -0.19206,-0.03118 -0.28258,-0.11748c0.0055,-0.07075 0.01099,-0.14147 0.02903,-0.19483c0.01528,-0.01799 0.01528,-0.01799 0.02919,-0.01828z"/><path d="M281.12035,137.97352c-0.00979,-0.05275 -0.02233,-0.07012 -0.06269,-0.08692c-0.02783,0.0006 -0.04312,0.01859 -0.04723,0.07164c-0.01529,0.01799 -0.03195,0.05366 -0.07507,0.07224c-0.01255,-0.01739 -0.05291,-0.03417 -0.07937,-0.05126c-0.02646,-0.01708 -0.06544,-0.05156 -0.0474,-0.10491c0.01804,-0.05334 0.04862,-0.08932 0.09173,-0.10789c0.11406,-0.03778 0.23792,-0.02279 0.34236,0.06324c0.05291,0.03417 0.09052,0.08632 0.07111,0.15736c-0.07506,0.07222 -0.07506,0.07222 -0.18639,0.07464c-0.02508,-0.03478 -0.00979,-0.05275 -0.00705,-0.08814z"/><path d="M273.84076,135.6588c0.01666,-0.03567 0.03333,-0.07133 0.07506,-0.07222c0.02646,0.01708 0.02371,0.05245 -0.00687,0.08842c-0.09447,0.14328 -0.17642,0.30392 -0.25974,0.48228c-0.03333,0.07133 -0.04156,0.17742 -0.08881,0.24906c-0.01116,-0.03506 0.00687,-0.08842 -0.03348,-0.1052c0.07353,-0.23109 0.18741,-0.44541 0.31384,-0.64234z"/><path d="M282.79591,138.21989c0.05291,0.03417 0.11973,0.06804 0.1254,0.17384c-0.04862,0.08933 -0.10427,0.09052 -0.15855,0.07403c-0.03763,-0.05215 -0.01684,-0.14087 -0.07113,-0.15735c-0.06818,-0.01619 -0.07645,0.08992 -0.13347,0.10881c-0.05429,-0.0165 -0.06269,-0.08692 -0.05721,-0.15767c0.10289,-0.07284 0.2003,-0.07494 0.29495,-0.04166z"/><path d="M282.00005,138.27234c-0.00979,-0.05275 -0.0043,-0.12348 -0.0725,-0.13967c-0.06818,-0.01619 -0.06116,0.07194 -0.10564,0.1082c-0.05566,0.00122 -0.09466,-0.03326 -0.1309,-0.10309c0.09447,-0.14328 0.1905,-0.1277 0.29907,-0.09472c0.0682,0.01617 0.13503,0.05004 0.13794,0.19123c-0.05841,0.03656 -0.10016,0.03747 -0.12798,0.03806z"/><path d="M285.68541,141.97101c0.03608,-0.1067 0.03178,-0.2302 0.07061,-0.37228c0.09328,0.05097 0.07111,0.15736 0.0517,0.22841c-0.02903,0.19481 -0.05944,0.40734 -0.26524,0.55301c0.05274,-0.14238 0.10409,-0.26706 0.14292,-0.40914z"/><path d="M281.59768,143.80696c-0.02919,0.01828 -0.05565,0.0012 -0.10016,0.03747c0.01959,0.10551 -0.0012,0.19423 -0.04982,0.28354c-0.01529,0.01799 -0.03195,0.05366 -0.05841,0.03658c-0.02646,-0.01708 -0.03898,-0.03447 -0.03625,-0.06984c0.0055,-0.07075 0.01237,-0.15916 0.07353,-0.2311c0.02921,-0.01828 0.03058,-0.03595 0.01941,-0.07103c0.04175,-0.00089 0.10016,-0.03747 0.15169,0.01439z"/><path d="M279.46589,142.28164c0.02646,0.01708 0.03898,0.03447 0.00704,0.08812c-0.04036,-0.01678 -0.08211,-0.01587 -0.12248,-0.03267c-0.02646,-0.01708 -0.039,-0.03445 -0.06408,-0.06922c0.05702,-0.01889 0.12659,-0.02039 0.17951,0.01379z"/><path d="M273.10515,140.47675c0.00275,-0.03538 -0.00705,-0.08814 -0.00292,-0.14117c0.01392,-0.00031 0.04037,0.01679 0.06683,0.03387c0.00979,0.05275 -0.00824,0.10609 -0.06391,0.10731z"/><path d="M282.61931,139.7773c0.13777,0.0147 0.25749,0.08272 0.3786,0.13309c0.25612,0.1004 0.48166,0.23677 0.7031,0.4262c0.11699,0.10342 0.23259,0.2245 0.31763,0.38157c-0.01667,0.03566 -0.03334,0.07133 -0.0737,0.05455c-0.08212,-0.01589 -0.13228,-0.08542 -0.1838,-0.13728c-0.14207,-0.13818 -0.2855,-0.25865 -0.44423,-0.36116c-0.18654,-0.10191 -0.37448,-0.18614 -0.5624,-0.27037c-0.07936,-0.05125 -0.18931,-0.06653 -0.26592,-0.15315c0.02079,-0.08872 0.06254,-0.08961 0.13074,-0.07344z"/><path d="M283.09153,140.31443c0.02783,-0.0006 0.04175,-0.00091 0.08073,0.03356c0.1601,0.08483 0.31883,0.18734 0.45952,0.34319c0.01255,0.01739 0.039,0.03447 0.05153,0.05186c0.02646,0.01708 0.03763,0.05215 0.00705,0.08812c-0.03058,0.03597 -0.05841,0.03658 -0.08487,0.0195c-0.01254,-0.01739 -0.02508,-0.03478 -0.05153,-0.05186c-0.1156,-0.12109 -0.2465,-0.2242 -0.39269,-0.30932c-0.02646,-0.01708 -0.05291,-0.03417 -0.07798,-0.06894c-0.01255,-0.01737 -0.01117,-0.03507 -0.02371,-0.05245c0.00275,-0.03536 0.01804,-0.05334 0.03195,-0.05365z"/><path d="M282.7435,140.14537c0.07233,-0.03686 0.16698,-0.00358 0.21575,0.08363c0.01117,0.03507 -0.00686,0.08842 -0.03469,0.08901c-0.06957,0.0015 -0.12248,-0.03267 -0.18793,-0.08421c-0.01254,-0.01739 -0.01116,-0.03508 -0.02369,-0.05246c0.00137,-0.01768 0.01666,-0.03567 0.03057,-0.03598z"/><path d="M282.25615,139.80279c-0.04037,-0.01679 -0.09602,-0.01559 -0.13364,-0.06775c-0.01255,-0.01737 -0.02371,-0.05245 -0.00842,-0.07042c0.01941,-0.07105 0.1168,-0.07314 0.19618,-0.02188c0.01391,-0.00031 0.02508,0.03476 0.02232,0.07013c-0.01804,0.05334 -0.06115,0.07193 -0.07645,0.08992z"/><path d="M281.94007,139.58009c-0.00137,0.0177 -0.00275,0.03536 -0.01804,0.05336c-0.03195,0.05365 -0.07231,0.03687 -0.11268,0.02008c-0.01254,-0.01739 -0.02508,-0.03478 -0.03761,-0.05216c-0.01255,-0.01737 0.00275,-0.03536 0.01804,-0.05334c0.01529,-0.01799 0.02919,-0.01828 0.04449,-0.03627c0.05704,-0.01888 0.08486,-0.01948 0.10581,0.06833z"/><path d="M277.50209,140.38196c-0.14051,0.02069 -0.28241,0.05905 -0.41313,0.1325c-0.20305,0.11031 -0.42002,0.22091 -0.5394,0.50597c-0.01666,0.03567 -0.04725,0.07164 -0.08762,0.05483c-0.02646,-0.01708 -0.03762,-0.05214 -0.03348,-0.1052c0.01099,-0.14147 0.07353,-0.23109 0.14997,-0.32102c0.23911,-0.217 0.4992,-0.34619 0.77044,-0.44031c0.07095,-0.01919 0.15306,-0.0033 0.23653,-0.00511c0.04175,-0.00091 0.08212,0.01589 0.09054,0.08632c-0.05978,0.05425 -0.11681,0.07313 -0.17385,0.09203z"/><path d="M277.89581,140.32051c-0.01254,-0.01739 -0.02507,-0.03477 -0.03761,-0.05216c-0.01116,-0.03506 0.00413,-0.05305 0.03333,-0.07133c0.07233,-0.03686 0.1321,-0.09112 0.21147,-0.03986c0.04037,0.01679 0.09602,0.01559 0.10444,0.08601c0.00979,0.05275 -0.04725,0.07164 -0.13072,0.07344c-0.01392,0.00031 -0.02784,0.0006 -0.06958,0.00149c-0.02783,0.0006 -0.06957,0.0015 -0.11132,0.00241z"/><path d="M273.29449,137.68322c-0.05686,0.19544 -0.11235,0.37317 -0.15667,0.58598c-0.04707,0.24819 -0.10806,0.49666 -0.18433,0.76314c-0.00275,0.03536 -0.02079,0.08872 -0.03883,0.14206c-0.00275,0.03538 -0.03195,0.05366 -0.07232,0.03689c0.00275,-0.03538 -0.0098,-0.05275 -0.00705,-0.08814c0.04982,-0.28354 0.11355,-0.5674 0.17866,-0.86893c0.05962,-0.2308 0.11785,-0.4439 0.20391,-0.65762c0.00137,-0.0177 0.01666,-0.03567 0.03195,-0.05366c0.05291,0.03417 0.06407,0.06924 0.04466,0.14028z"/><path d="M273.5008,136.63715c0.01529,-0.01797 0.04312,-0.01859 0.06819,0.01619c0.02233,0.07012 -0.01512,0.19452 -0.08468,0.19601c-0.02784,0.0006 -0.039,-0.03445 -0.03487,-0.08751c0.00275,-0.03536 0.00687,-0.08842 0.05136,-0.1247z"/><path d="M272.79046,140.23636c0.00979,0.05275 0.00567,0.1058 -0.0263,0.15947c-0.01527,0.01797 -0.05702,0.01889 -0.06819,-0.01619c-0.0237,-0.05245 -0.02096,-0.08781 -0.00292,-0.14117c0,0 0.02921,-0.01828 0.0445,-0.03627c0.01254,0.01739 0.02646,0.01708 0.05291,0.03417z"/><path d="M273.33983,137.09964c-0.01116,-0.03508 0.0055,-0.07075 0.02216,-0.10642c0.01666,-0.03567 0.03058,-0.03597 0.05841,-0.03658c0.02646,0.01708 0.03898,0.03447 0.03624,0.06985c-0.00275,0.03536 -0.01941,0.07103 -0.06252,0.08961c-0.02921,0.01828 -0.04175,0.00089 -0.05429,-0.01648z"/><path d="M272.90881,140.32209c-0.04036,-0.01678 -0.03762,-0.05214 -0.03487,-0.08752c0.00275,-0.03536 0.0055,-0.07073 0.04862,-0.08932c0.02784,-0.0006 0.05291,0.03417 0.04879,0.08723c-0.00275,0.03536 -0.0347,0.08903 -0.06254,0.08961z"/><path d="M272.69701,140.00888c-0.00979,-0.05275 0.02079,-0.08872 0.04999,-0.10702c0.02921,-0.01828 0.04037,0.0168 0.05153,0.05186c0.01116,0.03508 -0.00687,0.08842 -0.0347,0.08903c-0.02782,0.00059 -0.05427,-0.0165 -0.06683,-0.03387z"/><path d="M273.60817,136.86434c0.00275,-0.03536 0.03333,-0.07133 0.06116,-0.07194c0.02784,-0.0006 0.05291,0.03417 0.05017,0.06953c-0.00275,0.03538 -0.03195,0.05366 -0.06116,0.07194c-0.02646,-0.01708 -0.039,-0.03447 -0.05017,-0.06953z"/><path d="M283.80458,142.39995c-0.02216,0.10642 -0.0457,0.2305 -0.13469,0.30305c-0.03056,0.03596 -0.05841,0.03656 -0.08073,-0.03358c0.1084,-0.14358 0.05394,-0.33659 0.15118,-0.51525c0.07798,0.06894 0.08502,0.15705 0.06424,0.24578z"/><path d="M284.14248,142.16317c0,0 -0.00138,0.01767 0.01254,0.01737c0.02646,0.01708 0.05153,0.05186 0.03487,0.08752c-0.01804,0.05336 -0.04725,0.07164 -0.0737,0.05455c-0.04037,-0.01679 -0.09466,-0.03326 -0.14756,-0.06744c-0.02646,-0.01708 -0.03899,-0.03445 -0.03487,-0.08751c0.08623,-0.03717 0.14053,-0.02069 0.20872,-0.00449z"/><path d="M283.94097,142.43234c0.0737,-0.05455 0.16835,-0.0213 0.20322,0.06623c0.01116,0.03506 -0.02078,0.08872 -0.04862,0.08933c-0.05565,0.0012 -0.10856,-0.03297 -0.16146,-0.06714c-0.01392,0.00031 -0.01117,-0.03508 -0.02371,-0.05246c0.00137,-0.01768 0.00275,-0.03536 0.03056,-0.03596z"/><path d="M283.81745,142.77042c0.01666,-0.03567 0.03195,-0.05365 0.05979,-0.05425c0.04312,-0.01859 0.06957,-0.0015 0.07936,0.05125c-0.00275,0.03536 -0.03333,0.07133 -0.06116,0.07194c-0.04173,0.00089 -0.07936,-0.05125 -0.07798,-0.06894z"/><path d="M280.77589,141.5119c0.02919,-0.01828 0.05841,-0.03658 0.06957,-0.0015c0.02508,0.03478 0.04879,0.08723 0.03076,0.14056c-0.05413,0.16007 -0.09569,0.3375 -0.17901,0.51585c-0.01666,0.03567 -0.04725,0.07164 -0.08762,0.05483c-0.01271,-0.19392 -0.01271,-0.19392 0.16629,-0.70977z"/><path d="M280.96847,142.0727c0.05411,-0.16006 0.09567,-0.3375 0.14979,-0.49756c0,0 0.00137,-0.01768 0.01666,-0.03567c0.01529,-0.01797 0.03058,-0.03597 0.04449,-0.03627c0.02782,-0.00059 0.04037,0.0168 0.05153,0.05186c0.01116,0.03508 0.00979,0.05275 0.00705,0.08812c-0.02767,0.17716 -0.09706,0.3552 -0.15392,0.55061c-0.00137,0.0177 -0.01666,0.03567 -0.03195,0.05366c-0.00137,0.01768 -0.01529,0.01797 -0.02919,0.01828c-0.01392,0.00031 -0.02646,-0.01708 -0.039,-0.03447c-0.01254,-0.01739 -0.00979,-0.05275 -0.00842,-0.07042c0.00276,-0.03538 0.00413,-0.05305 -0.00703,-0.08814z"/><path d="M280.93702,142.65598c-0.01666,0.03567 -0.03333,0.07133 -0.05978,0.05425c-0.01392,0.00031 -0.02646,-0.01708 -0.03762,-0.05214c-0.0098,-0.05275 -0.00567,-0.10581 0.0402,-0.15976c0.00137,-0.0177 0.01666,-0.03569 0.04312,-0.0186c0.01254,0.01739 0.01254,0.01739 0.02646,0.01708c-0.00139,0.01769 -0.00276,0.03538 0.00842,0.07044c-0.01667,0.03566 -0.01943,0.07104 -0.02079,0.08872z"/><path d="M280.11059,141.31439c-0.03041,0.21251 -0.08864,0.42562 -0.17471,0.63934c-0.00275,0.03536 -0.03333,0.07133 -0.0737,0.05455c-0.03761,-0.05216 -0.01821,-0.12319 0.00121,-0.19423c0.05549,-0.17775 0.07198,-0.38995 0.18449,-0.58659c0.05429,0.01648 0.06408,0.06923 0.06271,0.08692z"/><path d="M280.22104,141.85931c0.02765,-0.17714 0.08177,-0.33721 0.13726,-0.51494c0.00412,-0.05306 0.03195,-0.05366 0.08623,-0.03717c-0.00121,0.19423 -0.05807,0.38964 -0.14139,0.56799c-0.01666,0.03567 -0.04449,0.03627 -0.07095,0.01919c0.00137,-0.0177 -0.01116,-0.03506 -0.01116,-0.03506z"/><path d="M280.13806,142.39074c-0.04037,-0.01679 -0.06546,-0.05156 -0.0474,-0.10491c0.02078,-0.08872 0.0402,-0.15976 0.14172,-0.2149c0.01683,0.14086 -0.01787,0.22989 -0.09432,0.31981z"/><path d="M281.83423,142.37182c-0.03333,0.07133 -0.06389,0.10731 -0.09035,0.09022c-0.04037,-0.01679 -0.03763,-0.05217 -0.03349,-0.10522c0.00275,-0.03536 0.00411,-0.05304 0.02078,-0.08872c0.0402,-0.15976 0.0804,-0.31951 0.1206,-0.47927c0.02079,-0.08872 0.05137,-0.12469 0.09174,-0.10791c0.05429,0.01648 0.03625,0.06984 0.02938,0.15825c-0.02628,0.15947 -0.08314,0.35489 -0.13863,0.53264z"/><path d="M281.48433,141.69083c0.01666,-0.03567 0.03195,-0.05366 0.07232,-0.03689c0,0 0.01255,0.01739 0.01116,0.03508c-0.01649,0.2122 -0.05943,0.40734 -0.14413,0.60337c-0.00275,0.03536 -0.03194,0.05365 -0.07231,0.03687c-0.00705,-0.08812 0.0012,-0.19423 0.03591,-0.28325c0.03333,-0.07133 0.05273,-0.14237 0.04568,-0.23048c0.05704,-0.01888 0.03471,-0.08903 0.05137,-0.12469z"/><path d="M281.62311,142.76478c0.01666,-0.03567 0.0347,-0.08903 0.06528,-0.12499c0.00137,-0.01768 0.02919,-0.01828 0.04175,-0.00089c-0.00139,0.01769 0.02508,0.03478 0.0237,0.05245c0.00705,0.08814 -0.01236,0.15917 -0.08606,0.21372c-0.03487,-0.08752 -0.0474,-0.10491 -0.04466,-0.14028z"/><path d="M280.66971,143.95055c-0.00275,0.03536 -0.03194,0.05365 -0.05839,0.03656c-0.04037,-0.01679 -0.05153,-0.05186 -0.03487,-0.08752c0.00548,-0.07073 0.05135,-0.12468 0.07781,-0.1076c0.01392,-0.00031 0.01392,-0.00031 0.02646,0.01708c-0.00137,0.01768 -0.00275,0.03536 0.00842,0.07042c-0.01529,0.01799 -0.01804,0.05336 -0.01943,0.07104z"/><path d="M279.77749,143.63433c0.00412,-0.05306 0.0347,-0.08903 0.07645,-0.08992c0.04175,-0.00089 0.03898,0.03447 0.03625,0.06984c-0.00275,0.03536 -0.00413,0.05305 -0.02079,0.08872c0,0 -0.01391,0.00031 -0.02919,0.01828c-0.02783,0.0006 -0.05291,-0.03417 -0.06269,-0.08692z"/></g></g></g></g></svg>